<?xml version="1.0" encoding="UTF-8"?>
<svg xmlns="http://www.w3.org/2000/svg" version="1.1" viewBox="0 0 132.85 333.71">
  <defs>
    <style>
      .cls-1, .cls-2 {
        fill: #fff;
      }

      .cls-3 {
        stroke-width: 1.02px;
      }

      .cls-3, .cls-4 {
        fill: none;
        stroke: #0080cb;
        stroke-linecap: round;
        stroke-linejoin: round;
      }

      .cls-2 {
        display: none;
      }

      .cls-5 {
        fill: #fff000;
      }

      .cls-6 {
        fill: #0080cb;
      }

      .cls-4 {
        stroke-width: 1.5px;
      }
    </style>
  </defs>
  <!-- Generator: Adobe Illustrator 28.6.0, SVG Export Plug-In . SVG Version: 1.2.0 Build 709)  -->
  <g>
    <g id="_レイヤー_1" data-name="レイヤー_1">
      <path class="cls-2" d="M180.03,203.77c-.43-2.92-2.1-5.31-4.37-6.75-.97-.62-1.6-1.65-1.65-2.8-.05-1.19-.28-2.4-.71-3.59-1.71-4.77-6.33-7.9-11.29-7.9-.61,0-1.23.05-1.85.15-2.75.44-5.1,1.75-6.85,3.6-.56.59-1.34.91-2.15.91-.21,0-.42-.02-.64-.07-.73-.16-1.48-.24-2.24-.24-1.09,0-2.21.17-3.32.53-4.74,1.54-7.81,6.32-7.24,11.27.22,1.92.93,3.64,1.97,5.07.55.75.54,1.76.08,2.57-.82,1.44-1.07,3.2-.54,4.93.12.4.28.78.47,1.13,1.07,1.96,3.16,3.26,5.44,3.3.04,0,.08,0,.13,0,.53,0,1.04-.07,1.51-.19.15-.04.3-.06.45-.06.7,0,1.36.4,1.73,1.03,2.03,3.43,5.76,5.59,9.79,5.59.84,0,1.69-.09,2.54-.29,3.33-.76,5.98-2.91,7.49-5.7.45-.83,1.27-1.42,2.22-1.47,1.14-.06,2.3-.33,3.44-.85.8-.36,1.53-.83,2.19-1.38,2.53-2.12,3.88-5.46,3.39-8.81Z"/>
      <path class="cls-1" d="M130.61,299.05c1.57-2.95,2.39-6.37,2.2-9.99-.49-9.42-8-17.22-17.4-18.04-.57-.05-1.14-.07-1.71-.07-1.59,0-3.13.19-4.6.56-.33.08-.67.12-1.01.12-1.35,0-2.65-.64-3.52-1.73-2.67-3.35-6.78-5.5-11.4-5.5-2.64,0-5.11.7-7.24,1.93-.72.42-1.52.62-2.33.62-.87,0-1.75-.24-2.53-.69-2.82-1.63-6.09-2.57-9.57-2.57-1.26,0-2.5.12-3.69.36-7.24,1.42-13.02,6.92-14.84,14.01-.45,1.76-1.62,3.22-3.23,4.06-2.58,1.35-4.81,3.28-6.52,5.6-2.34,3.17-3.73,7.1-3.73,11.34,0,4.89,1.83,9.35,4.85,12.73,2.19,2.45,5,4.34,8.19,5.41,2.07.69,3.69,2.28,4.48,4.31,2.77,7.14,9.71,12.21,17.84,12.21,3.61,0,6.98-1,9.86-2.74.87-.53,1.86-.79,2.85-.79,1.08,0,2.16.31,3.08.93,1.84,1.25,4.07,1.98,6.46,1.98,3.35,0,6.36-1.42,8.48-3.7,1.02-1.1,2.47-1.64,3.95-1.64.39,0,.79.04,1.19.11,1.07.21,2.17.32,3.3.32.84,0,1.68-.06,2.54-.18,7.68-1.11,13.77-7.39,14.67-15.1.04-.38.08-.75.1-1.12.13-2.49-.27-4.86-1.09-7.03-.71-1.86-.56-3.95.37-5.71Z"/>
      <path class="cls-1" d="M114.8,50.76c.98-1.85,1.5-3.98,1.38-6.25-.31-5.9-5.01-10.78-10.89-11.29-.36-.03-.72-.05-1.07-.05-.99,0-1.96.12-2.88.35-.21.05-.42.08-.63.08-.84,0-1.66-.4-2.2-1.08-1.67-2.1-4.24-3.44-7.14-3.44-1.65,0-3.19.44-4.53,1.21-.45.26-.95.39-1.46.39-.55,0-1.09-.15-1.59-.43-1.76-1.02-3.81-1.61-5.99-1.61-.79,0-1.56.08-2.31.22-4.53.89-8.15,4.33-9.29,8.77-.28,1.1-1.02,2.01-2.02,2.54-1.61.85-3.01,2.05-4.08,3.5-1.47,1.99-2.33,4.44-2.33,7.1,0,3.06,1.15,5.85,3.03,7.96,1.37,1.54,3.13,2.72,5.13,3.39,1.29.43,2.31,1.42,2.8,2.7,1.74,4.47,6.08,7.64,11.16,7.64,2.26,0,4.37-.63,6.17-1.71.55-.33,1.17-.49,1.78-.49.68,0,1.35.2,1.93.58,1.15.78,2.55,1.24,4.05,1.24,2.1,0,3.98-.89,5.31-2.31.64-.69,1.55-1.03,2.47-1.03.25,0,.5.02.74.07.67.13,1.36.2,2.06.2.52,0,1.05-.04,1.59-.11,4.81-.69,8.62-4.63,9.18-9.45.03-.24.05-.47.06-.7.08-1.56-.17-3.04-.68-4.4-.44-1.16-.35-2.47.23-3.57Z"/>
      <path class="cls-1" d="M77.71,165.75c1.34-2.52,2.04-5.43,1.88-8.52-.42-8.04-6.82-14.69-14.84-15.39-.49-.04-.97-.06-1.46-.06-1.35,0-2.67.16-3.92.47-.29.07-.57.1-.86.1-1.15,0-2.26-.55-3-1.47-2.28-2.86-5.78-4.69-9.73-4.69-2.25,0-4.35.6-6.17,1.65-.62.36-1.3.53-1.99.53-.74,0-1.49-.2-2.16-.59-2.4-1.39-5.19-2.19-8.17-2.19-1.08,0-2.13.1-3.15.3-6.18,1.21-11.1,5.9-12.66,11.95-.38,1.5-1.38,2.74-2.76,3.47-2.2,1.15-4.1,2.79-5.56,4.78-2,2.71-3.18,6.05-3.18,9.67,0,4.17,1.56,7.97,4.14,10.85,1.87,2.09,4.27,3.7,6.99,4.62,1.76.59,3.14,1.94,3.82,3.67,2.37,6.09,8.28,10.41,15.21,10.41,3.08,0,5.96-.85,8.41-2.34.74-.45,1.59-.67,2.43-.67.92,0,1.84.27,2.63.8,1.57,1.06,3.47,1.69,5.51,1.69,2.86,0,5.43-1.21,7.23-3.15.87-.94,2.11-1.4,3.37-1.4.34,0,.68.03,1.01.1.91.18,1.85.27,2.81.27.71,0,1.44-.05,2.17-.16,6.55-.94,11.75-6.31,12.51-12.88.04-.32.06-.64.08-.96.11-2.12-.23-4.14-.93-5.99-.6-1.59-.48-3.37.32-4.87Z"/>
      <path class="cls-1" d="M107.38,220.36c.53-1.79.6-3.75.09-5.71-1.32-5.1-6.3-8.52-11.54-7.91-.32.04-.63.09-.94.15-.87.18-1.69.46-2.45.82-.17.08-.35.14-.54.18-.74.15-1.52-.05-2.12-.55-1.84-1.53-4.33-2.25-6.85-1.73-1.44.3-2.71.96-3.74,1.87-.35.31-.76.51-1.2.6-.48.1-.98.07-1.46-.09-1.72-.58-3.62-.72-5.52-.33-.69.14-1.35.35-1.98.61-3.8,1.59-6.34,5.24-6.54,9.32-.05,1.01-.53,1.94-1.31,2.58-1.26,1.03-2.26,2.33-2.94,3.79-.92,2-1.24,4.3-.77,6.62.55,2.67,2.05,4.9,4.08,6.42,1.47,1.1,3.22,1.81,5.09,2.04,1.21.15,2.27.83,2.93,1.85,2.32,3.6,6.68,5.59,11.12,4.68,1.97-.4,3.71-1.33,5.09-2.6.42-.39.93-.64,1.47-.75.59-.12,1.21-.07,1.79.17,1.15.48,2.45.63,3.76.36,1.83-.38,3.32-1.49,4.22-2.97.44-.72,1.17-1.17,1.98-1.34.22-.04.44-.07.66-.07.61,0,1.22-.07,1.84-.2.46-.09.91-.22,1.37-.39,4.08-1.47,6.7-5.59,6.33-9.9-.02-.21-.04-.42-.07-.62-.21-1.37-.69-2.63-1.39-3.72-.59-.94-.75-2.1-.43-3.16Z"/>
      <g>
        <path class="cls-6" d="M61.46,324.78c-.28.27-.25.06-.64.06s-.38.24-.76.24-.38-.27-.77-.27-.38.2-.77.2-.38-.09-.77-.09-.38-.08-.77-.08-.38.05-.77.05-.38-.1-.77-.1-.38.04-.77.04-.38.05-.77.05-.38-.07-.76-.07-.38.15-.76.15-.38-.09-.77-.09-.38-.03-.77-.03-.38-.05-.77-.05-.38.21-.77.21-.38-.18-.77-.18-.38.14-.77.14-.38.14-.77.14-.38-.32-.77-.32-.39.33-.77.33-.38-.06-.77-.06-.38-.03-.77-.03-.38-.03-.77-.03-.39-.02-.77-.02-.39.14-.77.14-.39-.1-.77-.1-.45.16-.69-.14,0-.32.08-.69-.08-.42.01-.8.3-.33.39-.71c.06-.24.18-.46.25-.7s.24-.44.32-.68.12-.48.22-.71.14-.47.24-.7.17-.46.28-.69.04-.54.16-.76.21-.46.33-.67.42-.33.54-.55.09-.52.23-.74.34-.38.47-.59.41-.32.55-.53.17-.49.32-.69.33-.37.48-.57.29-.4.45-.6.18-.49.34-.68.35-.36.51-.55.5-.23.66-.43.24-.45.4-.64.29-.41.45-.6.42-.3.58-.48.31-.39.48-.57.26-.44.43-.62.48-.23.66-.41.1-.6.27-.78.34-.38.51-.55.58-.14.75-.31.2-.51.38-.68.29-.41.47-.59.49-.22.67-.39.41-.3.59-.47.43-.27.61-.43.28-.42.46-.59c.19-.17.35-.37.52-.55s.26-.44.42-.63.46-.28.6-.47.13-.52.26-.73.44-.32.56-.54.26-.44.36-.67.23-.47.3-.7-.18-.57-.12-.81.2-.46.23-.71-.11-.49-.11-.74.09-.5.07-.76-.08-.5-.12-.75-.12-.49-.19-.73-.06-.51-.15-.75-.21-.47-.32-.69-.37-.37-.51-.58-.3-.4-.45-.59-.16-.53-.33-.72-.37-.36-.57-.52-.37-.36-.59-.5-.42-.32-.64-.44-.48-.22-.72-.31-.54,0-.79-.06-.51.03-.76,0-.48-.21-.74-.21-.53-.08-.78-.05-.55-.03-.8.03-.52.15-.76.24-.37.46-.59.58-.59,0-.81.15-.24.55-.44.71-.43.27-.61.45-.27.43-.43.64-.56.23-.7.45-.27.45-.39.68-.11.52-.2.76-.05.52-.12.77-.34.45-.38.7-.07.52-.09.77-.02.52-.02.78c0,.29.1.57.13.86s.2.54.26.82.04.66.12.93c-.27.23-.42-.03-.76.09s-.27.3-.61.42-.33.13-.67.25-.43-.15-.77-.03-.26.47-.62.46c-.08-.25-.15-.57-.22-.81s.05-.55,0-.79c-.06-.26-.29-.47-.33-.72-.04-.26-.21-.5-.24-.75-.02-.27.28-.53.28-.78s-.31-.51-.29-.76.07-.51.1-.76.14-.49.18-.74.01-.52.07-.76.4-.41.48-.65-.04-.54.05-.78.37-.39.47-.61-.08-.6.04-.82.25-.45.39-.66.42-.33.57-.53.35-.36.52-.55.16-.54.34-.72.58-.12.77-.28.3-.42.5-.57.47-.2.68-.33.37-.35.6-.46.45-.22.68-.33.44-.24.68-.33.45-.26.69-.33.52,0,.77-.05.47-.24.72-.27.51-.05.76-.07.51.02.76.02.5.08.75.09.52-.09.76-.06.47.26.71.31.49.08.73.15.45.22.68.31.53.03.75.13.43.26.65.38.44.24.65.37.31.42.51.57.55.11.74.27.37.34.55.52.41.31.58.5.2.48.35.68.18.48.31.69.44.31.56.53,0,.56.1.78.29.41.38.64.4.39.47.63.09.5.14.75,0,.51.05.76.16.48.18.73-.23.52-.21.77.15.49.15.74.07.51.06.76-.19.49-.22.74.2.55.15.8-.24.47-.31.71-.09.51-.18.75-.33.42-.43.65-.32.4-.43.63-.16.48-.29.7-.11.53-.25.74-.48.28-.63.48-.16.52-.32.71-.33.38-.51.57-.42.3-.6.49-.36.35-.55.52c-.18.17-.28.44-.46.61s-.53.18-.71.35-.34.37-.52.55-.29.42-.47.6-.37.34-.54.52-.19.52-.36.69-.4.31-.57.49-.29.41-.46.59-.55.16-.72.34-.28.42-.45.6-.46.26-.62.44-.25.45-.41.63-.3.4-.46.58-.24.45-.4.64-.31.39-.47.58-.33.38-.48.57-.33.38-.48.57-.41.32-.55.51-.37.35-.51.55-.04.58-.18.78-.5.26-.63.47-.26.43-.39.64-.03.56-.15.77-.44.32-.56.53-.31.4-.42.62c-.11.23-.07.51-.17.73.36.12.38-.02.76-.02s.38.21.76.21.38-.26.76-.26.38.09.76.09.38.02.75.02.38-.1.76-.1.38.03.76.03.38-.07.76-.07.38-.08.76-.08.38.15.76.15.38.18.76.18.38-.22.76-.22.38.26.76.26.38-.13.76-.13.38.08.76.08.38-.33.76-.33.38.1.76.1.38-.08.76-.08.38.05.76.05.38.22.77.22.38.09.77.09.55-.52.83-.25.02.43.02.8-.05.37-.05.73-.13.37-.13.74-.1.39-.05.76c.04.32.29.33.02.58Z"/>
        <path class="cls-3" d="M61.46,324.78c-.28.27-.25.06-.64.06s-.38.24-.76.24-.38-.27-.77-.27-.38.2-.77.2-.38-.09-.77-.09-.38-.08-.77-.08-.38.05-.77.05-.38-.1-.77-.1-.38.04-.77.04-.38.05-.77.05-.38-.07-.76-.07-.38.15-.76.15-.38-.09-.77-.09-.38-.03-.77-.03-.38-.05-.77-.05-.38.21-.77.21-.38-.18-.77-.18-.38.14-.77.14-.38.14-.77.14-.38-.32-.77-.32-.39.33-.77.33-.38-.06-.77-.06-.38-.03-.77-.03-.38-.03-.77-.03-.39-.02-.77-.02-.39.14-.77.14-.39-.1-.77-.1-.45.16-.69-.14,0-.32.08-.69-.08-.42.01-.8.3-.33.39-.71c.06-.24.18-.46.25-.7s.24-.44.32-.68.12-.48.22-.71.14-.47.24-.7.17-.46.28-.69.04-.54.16-.76.21-.46.33-.67.42-.33.54-.55.09-.52.23-.74.34-.38.47-.59.41-.32.55-.53.17-.49.32-.69.33-.37.48-.57.29-.4.45-.6.18-.49.34-.68.35-.36.51-.55.5-.23.66-.43.24-.45.4-.64.29-.41.45-.6.42-.3.58-.48.31-.39.48-.57.26-.44.43-.62.48-.23.66-.41.1-.6.27-.78.34-.38.51-.55.58-.14.75-.31.2-.51.38-.68.29-.41.47-.59.49-.22.67-.39.41-.3.59-.47.43-.27.61-.43.28-.42.46-.59c.19-.17.35-.37.52-.55s.26-.44.42-.63.46-.28.6-.47.13-.52.26-.73.44-.32.56-.54.26-.44.36-.67.23-.47.3-.7-.18-.57-.12-.81.2-.46.23-.71-.11-.49-.11-.74.09-.5.07-.76-.08-.5-.12-.75-.12-.49-.19-.73-.06-.51-.15-.75-.21-.47-.32-.69-.37-.37-.51-.58-.3-.4-.45-.59-.16-.53-.33-.72-.37-.36-.57-.52-.37-.36-.59-.5-.42-.32-.64-.44-.48-.22-.72-.31-.54,0-.79-.06-.51.03-.76,0-.48-.21-.74-.21-.53-.08-.78-.05-.55-.03-.8.03-.52.15-.76.24-.37.46-.59.58-.59,0-.81.15-.24.55-.44.71-.43.27-.61.45-.27.43-.43.64-.56.23-.7.45-.27.45-.39.68-.11.52-.2.76-.05.52-.12.77-.34.45-.38.7-.07.52-.09.77-.02.52-.02.78c0,.29.1.57.13.86s.2.54.26.82.04.66.12.93c-.27.23-.42-.03-.76.09s-.27.3-.61.42-.33.13-.67.25-.43-.15-.77-.03-.26.47-.62.46c-.08-.25-.15-.57-.22-.81s.05-.55,0-.79c-.06-.26-.29-.47-.33-.72-.04-.26-.21-.5-.24-.75-.02-.27.28-.53.28-.78s-.31-.51-.29-.76.07-.51.1-.76.14-.49.18-.74.01-.52.07-.76.4-.41.48-.65-.04-.54.05-.78.37-.39.47-.61-.08-.6.04-.82.25-.45.39-.66.42-.33.57-.53.35-.36.52-.55.16-.54.34-.72.58-.12.77-.28.3-.42.5-.57.47-.2.68-.33.37-.35.6-.46.45-.22.68-.33.44-.24.68-.33.45-.26.69-.33.52,0,.77-.05.47-.24.72-.27.51-.05.76-.07.51.02.76.02.5.08.75.09.52-.09.76-.06.47.26.71.31.49.08.73.15.45.22.68.31.53.03.75.13.43.26.65.38.44.24.65.37.31.42.51.57.55.11.74.27.37.34.55.52.41.31.58.5.2.48.35.68.18.48.31.69.44.31.56.53,0,.56.1.78.29.41.38.64.4.39.47.63.09.5.14.75,0,.51.05.76.16.48.18.73-.23.52-.21.77.15.49.15.74.07.51.06.76-.19.49-.22.74.2.55.15.8-.24.47-.31.71-.09.51-.18.75-.33.42-.43.65-.32.4-.43.63-.16.48-.29.7-.11.53-.25.74-.48.28-.63.48-.16.52-.32.71-.33.38-.51.57-.42.3-.6.49-.36.35-.55.52c-.18.17-.28.44-.46.61s-.53.18-.71.35-.34.37-.52.55-.29.42-.47.6-.37.34-.54.52-.19.52-.36.69-.4.31-.57.49-.29.41-.46.59-.55.16-.72.34-.28.42-.45.6-.46.26-.62.44-.25.45-.41.63-.3.4-.46.58-.24.45-.4.64-.31.39-.47.58-.33.38-.48.57-.33.38-.48.57-.41.32-.55.51-.37.35-.51.55-.04.58-.18.78-.5.26-.63.47-.26.43-.39.64-.03.56-.15.77-.44.32-.56.53-.31.4-.42.62c-.11.23-.07.51-.17.73.36.12.38-.02.76-.02s.38.21.76.21.38-.26.76-.26.38.09.76.09.38.02.75.02.38-.1.76-.1.38.03.76.03.38-.07.76-.07.38-.08.76-.08.38.15.76.15.38.18.76.18.38-.22.76-.22.38.26.76.26.38-.13.76-.13.38.08.76.08.38-.33.76-.33.38.1.76.1.38-.08.76-.08.38.05.76.05.38.22.77.22.38.09.77.09.55-.52.83-.25.02.43.02.8-.05.37-.05.73-.13.37-.13.74-.1.39-.05.76c.04.32.29.33.02.58Z"/>
      </g>
      <g>
        <path class="cls-6" d="M69.02,286.07v7.72h-.94v-7.72h.94ZM68.6,286.07h1.58c.5,0,.95.09,1.34.28s.71.45.94.8c.23.35.35.76.35,1.24s-.12.88-.35,1.23c-.23.35-.54.62-.94.81s-.84.28-1.34.28h-1.58v-.88h1.58c.5,0,.91-.12,1.22-.36.31-.24.47-.6.47-1.07s-.16-.84-.47-1.08c-.31-.24-.72-.36-1.22-.36h-1.58v-.88Z"/>
        <path class="cls-6" d="M75.23,292.74c.18.22.45.33.81.33.26,0,.48-.05.68-.16.19-.11.35-.26.45-.45s.16-.41.16-.66v-3.09h.88v5.08h-.88v-.79c-.17.3-.38.53-.63.68-.25.15-.54.23-.88.23-.53,0-.95-.18-1.27-.54s-.47-.84-.47-1.45v-3.2h.88v3.09c0,.4.09.72.28.94Z"/>
        <path class="cls-6" d="M80.69,293.79h-.88v-8.61h.88v8.61ZM84.6,292.66c-.23.4-.53.7-.91.92-.38.21-.8.32-1.26.32-.42,0-.79-.11-1.11-.32-.32-.21-.57-.52-.75-.92-.18-.4-.27-.87-.27-1.41s.09-1.02.27-1.42.43-.7.75-.91c.32-.21.69-.32,1.11-.32.46,0,.88.11,1.26.32.38.21.68.52.91.91.23.39.34.87.34,1.42s-.11,1.02-.34,1.41ZM83.81,290.26c-.16-.27-.37-.48-.63-.62s-.55-.21-.87-.21c-.26,0-.51.07-.76.21s-.46.35-.62.62c-.16.27-.24.6-.24.99s.08.72.24.99c.16.27.37.48.62.62s.5.21.76.21c.32,0,.61-.07.87-.21s.47-.35.63-.62.24-.6.24-.99-.08-.72-.24-.99Z"/>
        <path class="cls-6" d="M87.04,285.18v8.61h-.88v-8.61h.88Z"/>
        <path class="cls-6" d="M88.87,286.19c.12-.12.26-.18.42-.18s.31.06.43.18c.12.12.18.26.18.43s-.06.3-.18.42c-.12.12-.26.18-.43.18s-.3-.06-.42-.18-.18-.26-.18-.42.06-.31.18-.43ZM89.74,288.71v5.08h-.88v-5.08h.88Z"/>
        <path class="cls-6" d="M92.18,292.19c.15.27.36.49.62.65.26.16.56.24.89.24.27,0,.53-.04.77-.13.24-.08.45-.2.62-.34s.3-.3.38-.46v1.1c-.18.21-.43.37-.76.48s-.66.17-1.01.17c-.49,0-.94-.11-1.33-.34-.4-.23-.71-.54-.94-.94-.23-.4-.35-.86-.35-1.36s.12-.97.35-1.37.55-.71.94-.94c.4-.23.84-.34,1.33-.34.35,0,.68.06,1.01.17s.58.27.76.48v1.1c-.07-.17-.2-.32-.38-.46s-.38-.25-.62-.34c-.24-.08-.5-.13-.77-.13-.33,0-.63.08-.89.23-.26.15-.47.37-.62.65-.15.28-.23.59-.23.94s.08.67.23.94Z"/>
        <path class="cls-6" d="M68.85,305.07h-.88v-8.61h.88v8.61ZM72.76,303.94c-.23.4-.53.7-.91.92-.38.21-.8.32-1.26.32-.42,0-.79-.11-1.11-.32-.32-.21-.57-.52-.75-.92-.18-.4-.27-.87-.27-1.41s.09-1.02.27-1.42.43-.7.75-.91c.32-.21.69-.32,1.11-.32.46,0,.88.11,1.26.32.38.21.68.52.91.91.23.39.34.87.34,1.42s-.11,1.02-.34,1.41ZM71.97,301.54c-.16-.27-.37-.48-.63-.62s-.55-.21-.87-.21c-.26,0-.51.07-.76.21s-.46.35-.62.62c-.16.27-.24.6-.24.99s.08.72.24.99c.16.27.37.48.62.62s.5.21.76.21c.32,0,.61-.07.87-.21s.47-.35.63-.62.24-.6.24-.99-.08-.72-.24-.99Z"/>
        <path class="cls-6" d="M74.85,304c.09.14.22.24.39.31.17.07.35.1.57.1.27,0,.52-.05.73-.17.22-.11.39-.27.52-.47.13-.2.19-.44.19-.7l.18.66c0,.32-.1.59-.29.81-.2.21-.43.37-.72.47-.28.1-.56.15-.84.15-.31,0-.6-.06-.87-.19-.27-.13-.48-.31-.65-.56-.16-.24-.24-.54-.24-.88,0-.49.17-.89.52-1.19.35-.3.84-.45,1.46-.45.37,0,.67.04.92.13.25.08.44.18.59.29s.25.19.3.26v.52c-.26-.18-.52-.3-.79-.38-.27-.08-.56-.12-.87-.12-.29,0-.52.04-.7.11-.18.07-.31.18-.4.31-.09.13-.13.29-.13.47s.05.36.14.5ZM74.15,300.51c.19-.14.45-.28.79-.42s.74-.21,1.21-.21c.4,0,.75.06,1.04.18.3.12.53.3.7.52.17.23.25.51.25.84v3.64h-.88v-3.52c0-.18-.03-.32-.09-.44-.06-.11-.14-.2-.25-.27-.11-.07-.23-.11-.37-.14s-.29-.04-.44-.04c-.25,0-.48.03-.68.09-.2.06-.37.13-.51.21-.14.08-.25.15-.33.21l-.43-.65Z"/>
        <path class="cls-6" d="M81.39,299.99v.83h-2.54v-.83h2.54ZM80.56,298.23v6.84h-.88v-6.84h.88Z"/>
        <path class="cls-6" d="M83.15,305.07h-.88v-8.61h.88v8.61ZM85.25,301.03c-.18-.21-.45-.32-.81-.32-.26,0-.48.05-.68.17-.2.11-.35.26-.45.45-.11.19-.16.41-.16.65h-.29c0-.4.08-.76.23-1.08.15-.31.37-.56.63-.74.27-.18.58-.28.93-.28s.66.07.92.22.46.37.61.66.21.66.21,1.1v3.2h-.88v-3.09c0-.42-.09-.74-.27-.95Z"/>
        <path class="cls-6" d="M88.94,305.07h-.88v-8.61h.88v8.61ZM91.05,301.03c-.18-.21-.45-.32-.81-.32-.26,0-.48.05-.68.17-.2.11-.35.26-.45.45-.11.19-.16.41-.16.65h-.29c0-.4.08-.76.23-1.08.15-.31.37-.56.63-.74.27-.18.58-.28.93-.28s.66.07.92.22.46.37.61.66.21.66.21,1.1v3.2h-.88v-3.09c0-.42-.09-.74-.27-.95Z"/>
        <path class="cls-6" d="M93.76,301.16c.23-.4.55-.71.94-.94.4-.23.84-.34,1.33-.34s.95.11,1.34.34c.39.23.71.54.94.94.23.4.35.85.35,1.37s-.12.96-.35,1.36c-.23.4-.54.71-.94.94-.39.23-.84.34-1.34.34s-.94-.11-1.33-.34c-.4-.23-.71-.54-.94-.94-.23-.4-.35-.86-.35-1.36s.12-.97.35-1.37ZM94.53,303.47c.15.27.36.49.62.65.26.16.56.24.89.24s.63-.08.89-.24c.26-.16.47-.37.62-.65.15-.27.23-.58.23-.94s-.08-.67-.23-.94c-.15-.28-.36-.49-.62-.65-.26-.15-.56-.23-.89-.23s-.63.08-.89.23c-.26.15-.47.37-.62.65-.15.28-.23.59-.23.94s.08.67.23.94Z"/>
        <path class="cls-6" d="M101.04,304.02c.18.22.45.33.81.33.26,0,.48-.05.68-.16.19-.11.35-.26.45-.45s.16-.41.16-.66v-3.09h.88v5.08h-.88v-.79c-.17.3-.38.53-.63.68-.25.15-.54.23-.88.23-.53,0-.95-.18-1.27-.54s-.47-.84-.47-1.45v-3.2h.88v3.09c0,.4.09.72.28.94Z"/>
        <path class="cls-6" d="M106.24,303.94c.13.13.29.24.46.31.17.08.36.12.57.12.25,0,.45-.06.59-.17s.22-.27.22-.47c0-.18-.06-.33-.17-.45-.11-.12-.26-.22-.44-.31-.18-.08-.36-.16-.56-.24-.22-.09-.44-.19-.67-.31-.22-.12-.41-.28-.56-.47-.15-.2-.23-.44-.23-.73s.08-.55.24-.75.36-.35.62-.44.52-.14.79-.14.53.04.77.13c.24.09.45.21.63.35.18.15.33.32.43.51l-.71.45c-.14-.19-.31-.35-.52-.47-.21-.12-.45-.19-.71-.19-.18,0-.34.04-.47.12s-.2.21-.2.38c0,.13.05.25.15.35.1.1.24.2.4.28.16.08.33.16.51.23.29.12.56.25.81.38.24.14.44.3.58.49.14.19.21.44.21.74,0,.44-.16.81-.48,1.1-.32.29-.74.44-1.26.44-.34,0-.64-.06-.92-.18-.27-.12-.5-.28-.69-.47s-.33-.39-.42-.58l.7-.43c.1.15.22.3.35.43Z"/>
        <path class="cls-6" d="M110.83,304.84c-.36-.22-.65-.54-.85-.93-.2-.4-.3-.86-.3-1.38s.11-.99.32-1.39c.21-.4.5-.71.88-.93.38-.22.82-.33,1.32-.33s.93.1,1.29.31c.36.21.63.51.82.9s.29.85.29,1.39c0,.05,0,.1,0,.16,0,.05,0,.09,0,.1h-4.34v-.75h3.64l-.35.51s.04-.09.07-.17.03-.14.03-.19c0-.3-.06-.56-.18-.78-.12-.22-.29-.39-.5-.52-.21-.12-.46-.19-.75-.19-.34,0-.63.07-.87.21s-.42.35-.55.62-.2.6-.2.99c0,.4.06.74.19,1.01s.31.49.55.64c.24.15.54.22.88.22s.65-.08.92-.23.49-.38.67-.69l.72.45c-.27.43-.6.75-1,.97-.4.22-.87.33-1.42.33-.47,0-.89-.11-1.25-.34Z"/>
        <path class="cls-6" d="M68.59,313.42c.13.13.29.24.46.31.17.08.36.12.57.12.25,0,.45-.06.59-.17s.22-.27.22-.47c0-.18-.06-.33-.17-.45-.11-.12-.26-.22-.44-.31-.18-.08-.36-.16-.56-.24-.22-.09-.44-.19-.67-.31-.22-.12-.41-.28-.56-.47-.15-.2-.23-.44-.23-.73s.08-.55.24-.75.36-.35.62-.44.52-.14.79-.14.53.04.77.13c.24.09.45.21.63.35.18.15.33.32.43.51l-.71.45c-.14-.19-.31-.35-.52-.47-.21-.12-.45-.19-.71-.19-.18,0-.34.04-.47.12s-.2.21-.2.38c0,.13.05.25.15.35.1.1.24.2.4.28.16.08.33.16.51.23.29.12.56.25.81.38.24.14.44.3.58.49.14.19.21.44.21.74,0,.44-.16.81-.48,1.1-.32.29-.74.44-1.26.44-.34,0-.64-.06-.92-.18-.27-.12-.5-.28-.69-.47s-.33-.39-.42-.58l.7-.43c.1.15.22.3.35.43Z"/>
        <path class="cls-6" d="M73.01,313.47c.09.14.22.24.39.31.17.07.35.1.57.1.27,0,.52-.05.73-.17.22-.11.39-.27.52-.47.13-.2.19-.44.19-.7l.18.66c0,.32-.1.59-.29.81-.2.21-.43.37-.72.47-.28.1-.56.15-.84.15-.31,0-.6-.06-.87-.19-.27-.13-.48-.31-.65-.56-.16-.24-.24-.54-.24-.88,0-.49.17-.89.52-1.19.35-.3.84-.45,1.46-.45.37,0,.67.04.92.13.25.08.44.18.59.29s.25.19.3.26v.52c-.26-.18-.52-.3-.79-.38-.27-.08-.56-.12-.87-.12-.29,0-.52.04-.7.11-.18.07-.31.18-.4.31-.09.13-.13.29-.13.47s.05.36.14.5ZM72.31,309.99c.19-.14.45-.28.79-.42s.74-.21,1.21-.21c.4,0,.75.06,1.04.18.3.12.53.3.7.52.17.23.25.51.25.84v3.64h-.88v-3.52c0-.18-.03-.32-.09-.44-.06-.11-.14-.2-.25-.27-.11-.07-.23-.11-.37-.14s-.29-.04-.44-.04c-.25,0-.48.03-.68.09-.2.06-.37.13-.51.21-.14.08-.25.15-.33.21l-.43-.65Z"/>
        <path class="cls-6" d="M78.94,313.5c.18.22.45.33.81.33.26,0,.48-.05.68-.16.19-.11.35-.26.45-.45s.16-.41.16-.66v-3.09h.88v5.08h-.88v-.79c-.17.3-.38.53-.63.68-.25.15-.54.23-.88.23-.53,0-.95-.18-1.27-.54s-.47-.84-.47-1.45v-3.2h.88v3.09c0,.4.09.72.28.94Z"/>
        <path class="cls-6" d="M86.55,310.51c-.18-.21-.45-.32-.8-.32-.26,0-.48.05-.68.16-.2.11-.35.26-.45.45s-.16.41-.16.66v3.09h-.88v-5.08h.88v.79c.17-.31.38-.54.63-.68s.55-.22.88-.22c.54,0,.96.18,1.27.54.31.36.47.84.47,1.45v3.2h-.88v-3.09c0-.42-.09-.74-.28-.95Z"/>
        <path class="cls-6" d="M89.9,313.47c.09.14.22.24.39.31.17.07.35.1.57.1.27,0,.52-.05.73-.17.22-.11.39-.27.52-.47.13-.2.19-.44.19-.7l.18.66c0,.32-.1.59-.29.81-.2.21-.43.37-.72.47-.28.1-.56.15-.84.15-.31,0-.6-.06-.87-.19-.27-.13-.48-.31-.65-.56-.16-.24-.24-.54-.24-.88,0-.49.17-.89.52-1.19.35-.3.84-.45,1.46-.45.37,0,.67.04.92.13.25.08.44.18.59.29s.25.19.3.26v.52c-.26-.18-.52-.3-.79-.38-.27-.08-.56-.12-.87-.12-.29,0-.52.04-.7.11-.18.07-.31.18-.4.31-.09.13-.13.29-.13.47s.05.36.14.5ZM89.2,309.99c.19-.14.45-.28.79-.42s.74-.21,1.21-.21c.4,0,.75.06,1.04.18.3.12.53.3.7.52.17.23.25.51.25.84v3.64h-.88v-3.52c0-.18-.03-.32-.09-.44-.06-.11-.14-.2-.25-.27-.11-.07-.23-.11-.37-.14s-.29-.04-.44-.04c-.25,0-.48.03-.68.09-.2.06-.37.13-.51.21-.14.08-.25.15-.33.21l-.43-.65Z"/>
        <path class="cls-6" d="M71.66,321.91h3.59c0,.54-.08,1.05-.24,1.53-.16.48-.4.91-.72,1.29s-.71.67-1.16.89c-.46.22-.98.33-1.57.33-.56,0-1.08-.1-1.56-.29-.48-.2-.89-.47-1.25-.83-.35-.36-.63-.78-.82-1.26-.19-.49-.29-1.01-.29-1.59s.1-1.1.29-1.59c.2-.49.47-.91.82-1.26.35-.36.77-.63,1.25-.83.48-.2,1-.29,1.56-.29.48,0,.92.06,1.32.19.4.12.76.31,1.08.55.32.24.59.54.81.91l-.66.61c-.24-.41-.58-.73-1.02-.97-.43-.23-.95-.35-1.53-.35-.54,0-1.04.13-1.48.39s-.79.61-1.05,1.06c-.26.45-.39.98-.39,1.58s.13,1.12.39,1.58.61.81,1.05,1.07.93.39,1.48.39c.38,0,.73-.06,1.03-.17.31-.11.57-.27.79-.48s.4-.44.55-.71c.14-.27.25-.55.31-.85h-2.57v-.88Z"/>
        <path class="cls-6" d="M77.73,324.78c.18.22.45.33.81.33.26,0,.48-.05.68-.16.19-.11.35-.26.45-.45s.16-.41.16-.66v-3.09h.88v5.08h-.88v-.79c-.17.3-.38.53-.63.68-.25.15-.54.23-.88.23-.53,0-.95-.18-1.27-.54s-.47-.84-.47-1.45v-3.2h.88v3.09c0,.4.09.72.28.94Z"/>
        <path class="cls-6" d="M82.55,318.22c.12-.12.26-.18.42-.18s.31.06.43.18c.12.12.18.26.18.43s-.06.3-.18.42c-.12.12-.26.18-.43.18s-.3-.06-.42-.18-.18-.26-.18-.42.06-.31.18-.43ZM83.42,320.75v5.08h-.88v-5.08h.88Z"/>
        <path class="cls-6" d="M85.14,321.87c.23-.39.53-.7.92-.91.38-.21.8-.32,1.26-.32.43,0,.8.11,1.11.32.32.21.56.52.75.91.18.39.27.87.27,1.42s-.09,1.02-.27,1.41c-.18.4-.43.7-.75.92-.32.21-.69.32-1.11.32-.46,0-.88-.11-1.26-.32-.38-.21-.69-.52-.92-.92-.23-.4-.34-.87-.34-1.41s.11-1.02.34-1.42ZM85.93,324.28c.16.27.37.48.63.62.27.14.55.21.86.21.26,0,.51-.07.76-.21.25-.14.46-.35.62-.62.16-.27.24-.6.24-.99s-.08-.72-.24-.99c-.16-.27-.37-.48-.62-.62-.25-.14-.5-.21-.76-.21-.31,0-.6.07-.86.21-.26.14-.48.35-.63.62s-.24.6-.24.99.08.72.24.99ZM89.93,317.22v8.61h-.88v-8.61h.88Z"/>
        <path class="cls-6" d="M92.24,325.6c-.36-.22-.65-.54-.85-.93-.2-.4-.3-.86-.3-1.38s.11-.99.32-1.39c.21-.4.5-.71.88-.93.38-.22.82-.33,1.32-.33s.93.1,1.29.31c.36.21.63.51.82.9s.29.85.29,1.39c0,.05,0,.1,0,.16,0,.05,0,.09,0,.1h-4.34v-.75h3.64l-.35.51s.04-.09.07-.17.03-.14.03-.19c0-.3-.06-.56-.18-.78-.12-.22-.29-.39-.5-.52-.21-.12-.46-.19-.75-.19-.34,0-.63.07-.87.21s-.42.35-.55.62-.2.6-.2.99c0,.4.06.74.19,1.01s.31.49.55.64c.24.15.54.22.88.22s.65-.08.92-.23.49-.38.67-.69l.72.45c-.27.43-.6.75-1,.97-.4.22-.87.33-1.42.33-.47,0-.89-.11-1.25-.34Z"/>
      </g>
      <path class="cls-1" d="M95.34,94.07c-.3-2.05-1.48-3.73-3.07-4.74-.68-.43-1.13-1.16-1.16-1.97-.04-.83-.2-1.68-.5-2.52-1.2-3.35-4.45-5.55-7.93-5.55-.43,0-.86.03-1.3.1-1.93.31-3.58,1.23-4.81,2.53-.39.42-.94.64-1.51.64-.15,0-.3-.02-.45-.05-.51-.11-1.04-.17-1.57-.17-.77,0-1.55.12-2.33.37-3.33,1.08-5.49,4.44-5.09,7.92.16,1.35.65,2.56,1.39,3.56.39.53.38,1.23.06,1.8-.57,1.01-.75,2.25-.38,3.47.09.28.2.55.33.8.75,1.38,2.22,2.29,3.82,2.32.03,0,.06,0,.09,0,.37,0,.73-.05,1.06-.13.11-.03.21-.04.32-.04.49,0,.95.28,1.21.72,1.43,2.41,4.05,3.93,6.88,3.93.59,0,1.19-.07,1.79-.2,2.34-.53,4.2-2.04,5.26-4,.32-.59.89-1,1.56-1.03.8-.04,1.61-.23,2.41-.59.56-.26,1.08-.58,1.54-.97,1.78-1.49,2.73-3.83,2.38-6.19Z"/>
      <g>
        <g>
          <path class="cls-5" d="M62.13,28.73c-.75,0-1.29.64-1.29,1.29v5.46c0,3.11.11,6.43.11,7.93,0,1.18-1.07,1.93-2.14,2.04-1.93.21-5.36.21-7.29,0-1.07-.11-1.93-.86-1.93-1.93.11-2.04.21-5.36.21-7.5v-5.89c0-.64-.54-1.29-1.18-1.29h-7.61c-3.32,0-6.11.21-7.82.21-1.07.11-1.93-.75-2.04-1.82-.21-1.93-.21-5.46,0-7.39.11-.96.96-1.82,2.04-1.82,1.71.11,4.5.21,7.82.21h7.5c.64,0,1.29-.54,1.29-1.18,0-2.36,0-5.47-.21-9-.11-1.07.75-1.82,1.82-1.93,2.04-.21,5.68-.21,7.71,0,.96.11,1.82.86,1.82,1.93-.21,3.11-.21,6.11-.21,9,0,.64.54,1.29,1.29,1.29h17.36c.75,0,1.18-.54,1.29-1.18.21-2.36.11-4.39.11-6.64,0-2.46-.11-4.29-.11-5.46,0-1.07.75-1.93,1.82-2.04,1.93-.21,5.79-.21,7.71,0,.96.11,1.82.86,1.82,1.93,0,1.29-.11,3.32-.21,6.11-.11,2.36-.11,3.64-.11,5.89,0,.75.54,1.29,1.29,1.29h4.61c3.96,0,7.18-.11,9.22-.11.96-.11,1.82.75,1.93,1.82.21,1.93.21,5.36,0,7.29-.11,1.07-.96,1.93-2.04,1.93-1.93-.11-5.14-.32-9.11-.32h-5.68c-.64,0-1.18.43-1.29,1.07-1.71,9.32-4.93,17.36-9.64,24.32-9.43,13.5-24.11,22.82-41.04,28.93-1.29.43-2.57-.11-3.54-1.18-1.29-1.5-3.43-4.93-4.29-6.64-.43-.96-.11-2.25.96-2.68,12-4.07,23.68-9.32,32.25-17.25,7.07-6.43,12.54-15.54,14.14-25.29.11-.64-.32-1.29-.96-1.29l-16.39-.11Z"/>
          <path class="cls-5" d="M99.42,116.08c0,6-1.07,18.32-10.07,30.86-9.96,13.72-27,24.54-50.47,32.25-1.29.32-2.46-.21-3.43-1.18-1.39-1.5-3.75-4.82-4.71-6.54-.54-.96-.21-2.46.96-2.79,11.25-3.22,26.57-8.47,38.79-18.64,8.04-6.75,14.47-15.11,16.39-25.39.21-.64-.32-1.29-1.07-1.29h-33.32c-.75,0-1.29.54-1.29,1.29,0,7.07.11,9.32.21,11.57,0,1.18-.86,1.93-1.93,2.04-2.14.21-6,.21-8.14,0-.54,0-1.07-.21-1.39-.54-.32-.43-.54-.96-.54-1.5.11-2.89.21-8.25.21-10.5,0-1.93-.11-6.43-.21-9.64,0-1.93,1.61-3.54,3.64-3.54,3.11.11,7.5.21,9.43.21h10.07c.96,0,1.61-.54,1.61-1.61-.11-4.82-.21-8.68-.21-10.39-.11-1.07.75-1.93,1.93-2.04,2.14-.21,5.89-.21,8.04,0,1.07.11,1.93.96,1.93,2.04-.11,1.71-.21,5.57-.21,10.39,0,1.07.64,1.61,1.61,1.61h9.32c4.07,0,7.18-.11,9.32-.11,1.93-.11,3.54,1.5,3.54,3.43Z"/>
          <path class="cls-5" d="M101.89,215.54c1.07,0,1.82.86,1.93,1.93.21,1.93.21,5.46,0,7.39-.11,1.07-.86,1.93-1.93,1.93-2.36-.11-6.43-.21-12.11-.21h-9.86c-.86,0-1.61.64-1.71,1.5-2.68,21.97-14.14,36.22-36.86,47.68-1.29.64-2.68.21-3.64-.75-1.39-1.5-3.75-4.5-4.82-6.21-.54-.96-.43-2.14.64-2.68,20.14-9.11,30.86-20.68,33.54-38.04.11-.86-.54-1.5-1.29-1.5h-12.11c-6.86,0-11.47.11-13.82.21-1.07,0-1.82-.86-1.93-1.93-.21-1.93-.21-5.46,0-7.39.11-1.07.86-1.93,1.93-1.93,2.36.11,6.96.21,13.72.21h12.75c.64,0,1.29-.64,1.29-1.29v-7.5c0-4.18-.11-7.18-.21-8.89,0-1.07.86-1.93,1.93-2.04,2.14-.21,5.57-.21,7.82,0,1.07.11,1.93.96,1.93,2.04-.11,1.93-.21,5.25-.21,9.43v6.96c0,.64.64,1.29,1.39,1.29h10.07c5.36,0,9.32-.11,11.57-.21Z"/>
        </g>
        <g>
          <path class="cls-4" d="M60.15,26.79l-.64.14-.61.39.09.72-.19.68-.02.68.05.68.17.68-.3.68.09.68-.02.69.07.69.1.72-.1.72.13.72-.17.72.02.72.12.72.05.72.04.72.06.72-.03.72-.2.72-.11.6-.1.7-.54.43-.68.11-.61.21-.74-.07-.71.24-.73.07-.73.03h-.73s-.73-.07-.73-.07l-.73-.15-.74.16h-.73s-.72-.18-.72-.18l-.66-.36-.75-.2-.36-.68-.06-.73-.13-.75.04-.75.02-.75-.04-.75.02-.75.25-.75.07-.75-.17-.76.06-.75.15-.75-.2-.74.02-.73.2-.73-.22-.73.1-.74-.17-.74.11-.74.17-.74-.23-.65-.42-.54-.67-.22-.69.17-.69-.05-.69.14-.69-.19-.69.09-.69.1-.69-.22h-.69s-.69,0-.69,0l-.7.03-.7.2-.72-.16-.72-.1-.71.25-.71-.05-.71.13-.72-.17-.71.1-.7.17-.72-.28-.7.24-.71-.09-.73-.11-.58-.42-.42-.57-.17-.7-.1-.73-.26-.73.06-.74.02-.74-.14-.74v-.74s.29-.73.29-.73l-.19-.75-.02-.74.33-.71.02-.76.55-.53.63-.37.71-.22.7.22.72-.13.7.19.71-.06.71.1h.71s.71.02.71.02l.72-.17.71-.06.72.03.72.16.75-.13.75.06.75.02.75-.02.75.13.75.03.75-.26.75.24.75-.11.75-.04.58-.21.42-.41.19-.54.02-.69-.05-.69.05-.69v-.69s.06-.69.06-.69l.09-.69v-.69s-.25-.69-.25-.69l.11-.7-.05-.69-.1-.69-.12-.69.24-.72-.05-.72.41-.61.65-.33.67-.39.71.08.7.03.69-.19.71.09.7.05h.7s.71-.14.71-.14l.7.16.71-.08h.7s.68.26.68.26l.69.1.7.3.18.74.19.65.16.7-.1.69-.18.69-.04.69-.06.69.22.7-.25.69.15.7.13.69-.06.69v.69s-.11.69-.11.69v.68s.26.6.26.6l.45.43.59.2.72-.04.72.14.72-.17.72.09.72-.09.72.11.72.1.72-.07.72.11.72-.16h.72s.72.12.72.12l.72-.03.73-.06.72-.08.72-.05.73.26h.72s.72-.27.72-.27l.72.06.73.04.73-.05h.73s.73.08.73.08l.57-.21.53-.34.06-.63.21-.72.02-.74.09-.74-.02-.74.09-.74-.05-.74-.12-.73.14-.73-.14-.74-.06-.68.1-.69-.2-.68.22-.69-.06-.68-.05-.68.03-.68-.14-.68.18-.75.3-.73.74-.28.69-.23.7-.04.7-.09.69-.2.71.17.7.04h.7s.7.07.7.07l.71-.13.7.11.7-.02.69.15.64.23.59.34.42.55.21.69v.76s-.07.76-.07.76v.76s-.08.76-.08.76l-.1.76.02.77-.05.77.12.77v.74s-.21.73-.21.73l-.07.74.23.74-.25.73.06.73.04.74-.12.74.24.7.6.34.6.37h.77s.76-.11.76-.11l.77-.11.77.19.77-.17.77.17h.71s.71-.08.71-.08h.71s.71-.16.71-.16l.71.05.71.21h.71s.71-.16.71-.16l.71-.17.71.02h.71s.71.05.71.05l.71.19.71-.03.69.32.43.64-.03.77.16.71.14.72-.17.74.1.73.13.73v.73s-.18.73-.18.73l.07.73-.2.72.24.75-.5.65-.35.64-.59.47h-.74s-.7.13-.7.13l-.71.11-.69-.3-.7-.02-.7.02-.7-.14h-.7s-.7.09-.7.09l-.7.07h-.7s-.7-.09-.7-.09l-.71-.12-.71.18-.71-.16-.71-.02-.71-.02-.71.03-.71-.07-.71.28-.71-.18h-.71s-.55.25-.55.25l-.45.35-.34.51-.22.69v.73s-.22.68-.22.68l-.07.72-.18.69-.22.68-.12.71-.32.65-.12.71-.22.68-.05.73-.19.69-.39.62.03.76-.43.61-.09.73-.26.67-.39.62-.1.73-.51.56-.05.75-.44.58-.22.68-.31.64-.16.71-.46.57-.34.62-.2.7-.32.64-.49.54-.21.7-.41.58-.41.58-.38.6-.45.55-.27.67-.31.65-.49.54-.44.57-.52.51-.42.58-.3.68-.61.43-.33.66-.51.51-.51.51-.33.67-.67.36-.34.66-.59.44-.51.5-.46.55-.49.53-.61.4-.32.7-.59.42-.51.51-.48.54-.62.39-.54.48-.64.35-.42.61-.64.35-.46.58-.69.28-.56.44-.54.48-.54.48-.53.49-.6.4-.58.43-.73.2-.53.5-.6.39-.61.37-.56.45-.68.27-.53.51-.72.2-.54.49-.56.47-.61.38-.7.23-.7.21-.61.38-.56.48-.73.15-.52.57-.69.24-.6.41-.63.34-.76.09-.62.36-.6.41-.7.19-.67.27-.68.25-.63.36-.59.46-.7.2-.7.2-.68.24-.68.25-.65.31-.62.39-.66.28-.76.02-.62.4-.79.15-.81-.06-.76-.28-.61-.53-.62-.5-.52-.51-.4-.6-.31-.66-.49-.54-.23-.71-.37-.62-.48-.55-.37-.62-.45-.58-.41-.6-.19-.71-.07-.76-.11-.8.43-.7.71-.36.71-.14.62-.41.64-.36.73-.1.71-.15.64-.35.7-.19.72-.14.64-.35.65-.33.66-.3.68-.25.65-.32.77-.03.57-.52.71-.18.68-.25.69-.24.63-.36.64-.33.66-.29.7-.22.67-.28.56-.51.73-.17.61-.39.67-.28.55-.51.71-.2.66-.3.52-.55.68-.27.6-.41.73-.19.64-.35.52-.53.64-.34.53-.51.62-.36.56-.46.59-.42.57-.44.7-.27.47-.58.56-.45.6-.4.59-.41.64-.36.51-.51.59-.43.34-.7.71-.29.47-.55.47-.55.44-.57.62-.4.35-.65.6-.43.56-.47.27-.71.43-.58.56-.47.45-.56.33-.65.59-.46.32-.66.34-.64.39-.6.44-.57.46-.56.34-.63.41-.6.24-.69.42-.59.14-.74.41-.6.46-.58.2-.7.26-.67.28-.66.09-.74.38-.63.26-.67.16-.71.14-.71.46-.62.17-.7.18-.7-.04-.75.2-.69.07-.72.27-.68.02-.65-.55-.35-.49-.27-.71-.17-.71.1-.71-.12-.71.14-.71-.14-.71.02h-.71s-.71.11-.71.11l-.71-.06-.71.05-.71.16-.71-.2-.71.02-.71.04-.71-.19-.72.13-.71-.08-.71.18-.71-.02-.71-.23-.72.02-.72-.04-.72.2Z"/>
          <path class="cls-4" d="M97.52,114.1v.72s-.07.71-.07.71l-.17.71-.05.71.21.73-.1.71-.21.7-.08.71.1.73-.3.68-.12.7.07.73-.15.7-.1.71-.18.69-.3.67.1.76-.47.62v.74s-.17.7-.17.7l-.27.67-.12.72-.28.66-.31.65-.17.7-.2.69-.18.7-.46.59-.1.73-.47.58-.16.71-.29.66-.46.57-.25.68-.32.64-.33.64-.24.69-.43.58-.49.54-.22.7-.44.58-.39.61-.27.69-.45.57-.39.61-.48.55-.32.66-.62.43-.31.66-.42.58-.43.57-.59.44-.44.57-.37.63-.65.37-.27.72-.63.39-.53.48-.34.66-.67.34-.49.52-.38.64-.48.53-.58.42-.65.35-.48.53-.62.38-.35.69-.63.36-.56.44-.53.49-.63.36-.57.43-.49.54-.68.29-.42.64-.6.39-.55.46-.69.27-.59.41-.5.53-.64.33-.63.35-.56.46-.65.31-.64.32-.53.49-.7.22-.49.58-.7.23-.56.46-.69.24-.63.34-.56.47-.64.32-.61.37-.67.27-.68.25-.55.5-.74.12-.58.43-.68.23-.64.31-.62.37-.67.25-.68.24-.58.46-.73.11-.59.43-.61.4-.72.14-.63.34-.64.32-.71.16-.66.27-.63.35-.67.24-.63.35-.69.2-.72.12-.62.38-.67.27-.67.25-.66.31-.71.16-.72.11-.67.28-.7.18-.65.33-.69.22-.69.22-.74.17-.72-.23-.76-.12-.55-.54-.65-.4-.43-.59-.41-.61-.53-.51-.35-.65-.64-.44-.36-.65-.43-.6-.32-.67-.6-.49-.29-.68-.25-.7-.45-.56v-.71s.46-.56.46-.56l.21-.67.67-.18.66-.3.72-.12.69-.21.65-.35.71-.16.68-.24.66-.28.7-.17.71-.13.73-.09.61-.44.76.02.6-.46h.76s.58-.54.58-.54l.69-.21.76-.03.64-.35.66-.3.66-.29.7-.18.67-.26.65-.33.72-.15.63-.37.65-.31.73-.12.62-.39.67-.28.67-.28.59-.46.76-.08.62-.39.62-.38.68-.26.62-.37.71-.21.58-.46.59-.43.7-.23.55-.5.7-.23.69-.26.64-.35.54-.51.56-.48.69-.26.68-.28.5-.56.64-.34.53-.51.65-.34.58-.44.71-.26.54-.49.47-.58.59-.42.63-.37.49-.55.55-.47.59-.41.61-.39.49-.53.58-.43.53-.48.39-.63.63-.38.45-.56.47-.54.63-.39.36-.64.53-.48.44-.56.64-.39.36-.64.54-.49.4-.6.34-.64.6-.45.18-.75.45-.56.44-.57.36-.62.45-.56.26-.68.55-.51.31-.65.19-.71.51-.54.17-.72.32-.64.23-.68.46-.58.34-.64v-.77s.31-.65.31-.65l.22-.68.16-.7.42-.62.09-.72.29-.67.06-.72.18-.69-.21-.59-.35-.45-.57-.3-.72-.1-.72.3-.72-.29-.72.14-.72.08-.72-.15-.72.02-.72-.1-.72.14-.72-.07-.72.08-.72-.07-.72-.05-.72.27-.72-.18h-.72s-.73-.1-.73-.1l-.72.18-.72-.18-.72-.03-.72.07-.72.03-.72-.04-.73.26-.72-.29-.72.04-.72-.02-.72.21-.72.03-.72-.15-.72-.03-.73.14-.72-.06-.72-.11-.72.13-.73-.02-.73.02-.73-.13-.73.04-.73-.1-.73.08-.73-.02h-.73s-.73-.02-.73-.02l-.73.02-.73.04-.71.08-.54.51-.16.72.08.72.17.73-.26.73.05.73v.72s-.04.73-.04.73l.22.72-.05.73v.73s-.04.72-.04.72l.14.72v.72s-.13.73-.13.73l.12.72.18.71-.23.73-.07.73-.37.66-.67.33-.69.34-.75-.07-.72.29-.74-.06-.74.12-.74-.14-.74-.06-.75.18-.74-.19-.75.14-.73-.15-.73-.22-.73-.06-.56-.43-.4-.65-.19-.75-.04-.7-.06-.7v-.7s.26-.69.26-.69l-.03-.7-.08-.7-.03-.7.06-.7v-.7s.11-.7.11-.7l.04-.7-.16-.71.03-.7-.05-.7.26-.7-.26-.74-.03-.74.21-.74-.24-.74-.03-.74.2-.75-.15-.74v-.74s.12-.75.12-.75l-.21-.74.16-.75-.23-.73.19-.75-.03-.7.22-.67.46-.54.31-.66.58-.42.65-.27.69-.12.68-.2.72.12.73-.05.72-.08.72.09.73.08.73.09.73-.17.73.07.73-.03.73.11.73-.11.72.04.72-.07.72.31.72-.12.72-.07.72.07.72.1.72-.08.72-.15.72.06.72.09.72.02.72-.1.72-.13.72.27.72-.03.68-.04.47-.5.28-.54.16-.61.13-.75v-.74s-.02-.74-.02-.74l-.27-.74.22-.75-.2-.74.05-.75v-.74s-.04-.74-.04-.74l.05-.75-.07-.74-.1-.74.03-.74-.09-.73.29-.76.37-.67.62-.5.77-.24.73-.03.74.05h.73s.73-.15.73-.15l.73.13.73-.19.74.08.73.24.74-.25.73.11.71.25.77.03.63.46.43.65.24.77-.28.73.09.75-.05.74-.12.74.16.75.02.74-.13.74.04.74-.11.74.12.74-.17.74v.74s.13.75.13.75l.09.75-.09.66.44.48.49.41.65.11h.71s.71-.03.71-.03l.72.15.72-.18.72.12.72-.13.72.05.72-.05.71.12.72-.11.72.05.72-.17.72-.02.72.13.72.06.72-.14.72.04h.72s.72.05.72.05l.71-.17h.72s.72.11.72.11l.72.15.71-.19.71-.14.72.29.69-.17.69.15.49.53.63.29.32.61.35.56.16.65.28.66Z"/>
          <path class="cls-4" d="M99.9,213.41l.75.26.65.41.24.73.33.67.14.73-.04.75v.74s.11.74.11.74l-.18.74.17.74-.17.74-.08.74.08.74-.2.72.02.77-.49.58-.64.33-.67.13-.72.26-.7-.15-.71-.04-.71.11-.71-.05-.71-.17-.72.18-.71-.17-.71-.14-.72.19-.71.03-.71-.11-.71.04-.72-.14-.71.07-.72-.09h-.72s-.7.14-.7.14l-.7.02-.7-.15-.7.08h-.7s-.7.12-.7.12l-.71-.19h-.7s-.7-.03-.7-.03l-.7.14-.71.06-.71-.1-.71.12-.71.06-.76.1-.6.51-.33.73-.23.7-.11.71.15.75-.16.71-.26.69-.14.71.04.74-.35.67-.16.7.02.74-.19.7-.14.71-.22.69-.34.65.05.76-.5.6-.04.74-.21.69-.3.66-.15.71-.31.65-.34.64-.21.69-.24.68-.21.69-.49.57-.14.73-.5.55-.19.71-.33.64-.49.55-.28.66-.36.62-.36.62-.28.67-.46.56-.52.51-.27.69-.47.54-.42.58-.31.66-.49.53-.42.58-.51.51-.36.64-.65.39-.36.64-.46.55-.47.54-.62.4-.47.54-.41.6-.68.33-.33.7-.66.34-.56.45-.39.64-.69.3-.52.49-.43.61-.52.49-.61.38-.68.3-.52.49-.65.33-.4.66-.66.31-.59.4-.56.45-.66.31-.6.39-.53.5-.7.24-.47.61-.63.35-.58.43-.7.22-.62.37-.54.49-.66.29-.65.31-.59.42-.67.26-.67.28-.57.46-.72.18-.53.55-.72.19-.59.34-.68-.05-.65-.09-.68-.09-.57-.37-.54-.41-.43-.58-.4-.6-.6-.43-.28-.7-.54-.48-.36-.63-.43-.57-.48-.54-.37-.62-.35-.62-.54-.5-.08-.78-.16-.74.23-.77.71-.37.63-.36.64-.34.71-.2.65-.31.61-.39.66-.3.6-.4.67-.28.71-.2.57-.46.63-.36.63-.35.6-.41.67-.29.69-.25.6-.41.64-.33.56-.47.61-.38.61-.39.55-.47.67-.29.5-.54.68-.29.5-.53.62-.38.61-.39.5-.53.63-.37.39-.65.6-.4.54-.48.61-.4.37-.66.6-.41.6-.41.33-.68.5-.51.7-.34.3-.7.58-.45.38-.62.52-.51.44-.57.31-.67.46-.55.39-.6.34-.63.43-.57.45-.56.49-.54.16-.73.57-.5.12-.75.53-.53.04-.78.33-.63.5-.56.18-.7.22-.68.22-.68.32-.64.23-.68.16-.7.33-.65.1-.71.16-.7.35-.65.06-.72.17-.69.17-.7-.03-.74.37-.66.03-.73-.17-.72-.42-.6-.72-.17-.71-.14-.71.14-.71.1-.71-.13-.71.17-.71-.14-.71-.12-.71-.02-.71.16-.71.11-.71-.14-.71-.13-.71.19-.71-.07-.72.12-.72-.09-.72.02-.73-.2-.73.08-.73.18-.73-.02-.73-.09-.73.12-.73.02-.73-.06-.73-.09-.73.08-.73-.05h-.73s-.72.2-.72.2l-.73-.15-.73.1-.72.07-.73-.16-.72.2-.72-.04-.76-.11-.47-.6-.5-.53-.07-.73-.12-.73-.17-.73.18-.75-.31-.73.04-.74.05-.74-.02-.74.11-.74-.09-.75.28-.72.13-.72.27-.74.74-.28.71-.31.72.05.72-.04.71.22.72.1.73-.25.72.09h.72s.72-.04.72-.04l.72.24.72-.09.72.13.72-.09.72.05.72-.19.72.04.73.15.72.1.73-.3.73.29.7-.14.7-.08.71.15.71-.02.71.1.71-.14.71.07.71-.08.71.07.71.05.71-.27.71.18h.71s.71.1.71.1l.71-.18.71.18.71.03.71-.07.65-.23.52-.46-.05-.68.29-.75-.04-.75.02-.75-.21-.75-.03-.75.15-.75.03-.75-.14-.75.06-.75.11-.75-.13-.74.02-.74-.03-.74.12-.74-.05-.74.09-.75-.1-.74v-.74s-.01-.74-.01-.74l-.02-.74-.05-.74-.08-.73.23-.7.41-.58.57-.43.69-.27.69-.23.72.22.71-.08.71-.03.71.05.71-.21.71.07.71.04.71.07.72-.08.71.07.69.36.66.36.56.57-.11.8.03.72.02.73-.14.72.13.73-.15.72.23.73-.1.72.09.72-.15.72-.07.73.18.72-.18.73.17.73-.11.69-.15.69.07.7-.07.7.04.69.04.69.07.7.08.7.03.7-.25.7.28.7.59.4.66.13.72.04h.72s.72.09.72.09l.72.03.72-.17.72.02.72-.06.72.26.72-.25.72-.02.72.22.72-.22h.72s.72.21.72.21l.73-.14.73.03.73.12.72-.19.72.17.72-.22.73.2.72-.11h.73s.73.11.73.11l.72-.21h.72s.72.05.72.05l.73.05.71-.16.71-.14Z"/>
        </g>
      </g>
    </g>
  </g>
</svg>