<?xml version="1.0" encoding="UTF-8"?>
<svg xmlns="http://www.w3.org/2000/svg" version="1.1" xmlns:xlink="http://www.w3.org/1999/xlink" viewBox="0 0 193.26 132.81">
  <defs>
    <style>
      .cls-1 {
        fill: url(#_名称未設定グラデーション_50-2);
      }

      .cls-2, .cls-3 {
        fill: #fff;
      }

      .cls-4 {
        fill: url(#_名称未設定グラデーション_50);
      }

      .cls-3, .cls-5 {
        display: none;
      }

      .cls-6 {
        fill: url(#_名称未設定グラデーション_22);
      }

      .cls-7 {
        fill: #fff000;
      }

      .cls-8 {
        fill: none;
        stroke: #0080cb;
        stroke-linecap: round;
        stroke-linejoin: round;
        stroke-width: 1.5px;
      }
    </style>
    <linearGradient id="_名称未設定グラデーション_50" data-name="名称未設定グラデーション 50" x1="-134.04" y1="102.49" x2="-134.04" y2="143.18" gradientTransform="translate(213.37 -14.78)" gradientUnits="userSpaceOnUse">
      <stop offset="0" stop-color="#91d3f4"/>
      <stop offset="1" stop-color="#36bdef"/>
    </linearGradient>
    <linearGradient id="_名称未設定グラデーション_50-2" data-name="名称未設定グラデーション 50" x1="-43.48" y1="29.11" x2="-43.48" y2="62.25" xlink:href="#_名称未設定グラデーション_50"/>
    <linearGradient id="_名称未設定グラデーション_22" data-name="名称未設定グラデーション 22" x1="-94.03" y1="20.1" x2="-94.03" y2="138.85" gradientTransform="translate(213.37 -14.78)" gradientUnits="userSpaceOnUse">
      <stop offset="0" stop-color="#36bdef"/>
      <stop offset="1" stop-color="#00aaea"/>
    </linearGradient>
  </defs>
  <!-- Generator: Adobe Illustrator 28.6.0, SVG Export Plug-In . SVG Version: 1.2.0 Build 709)  -->
  <g>
    <g id="_レイヤー_1" data-name="レイヤー_1">
      <path class="cls-3" d="M-5.23,109.08c1.68-3.16,2.56-6.8,2.36-10.67-.52-10.07-8.55-18.41-18.6-19.28-.61-.05-1.22-.08-1.82-.08-1.69,0-3.34.21-4.92.59-.36.09-.72.13-1.08.13-1.44,0-2.84-.69-3.76-1.85-2.86-3.58-7.25-5.88-12.19-5.88-2.82,0-5.46.75-7.74,2.06-.77.44-1.63.66-2.49.66-.93,0-1.87-.25-2.71-.74-3.01-1.74-6.5-2.74-10.23-2.74-1.35,0-2.67.13-3.95.38-7.74,1.51-13.92,7.39-15.86,14.97-.48,1.88-1.73,3.44-3.45,4.34-2.75,1.45-5.14,3.5-6.97,5.99-2.5,3.39-3.98,7.58-3.98,12.12,0,5.22,1.96,9.99,5.18,13.6,2.34,2.62,5.35,4.64,8.76,5.78,2.21.74,3.94,2.43,4.78,4.6,2.96,7.64,10.38,13.05,19.07,13.05,3.86,0,7.46-1.07,10.54-2.93.93-.56,1.99-.84,3.05-.84,1.15,0,2.31.33,3.29,1,1.97,1.33,4.35,2.11,6.91,2.11,3.58,0,6.8-1.52,9.06-3.95,1.09-1.18,2.64-1.75,4.23-1.75.42,0,.85.04,1.27.12,1.14.22,2.32.34,3.52.34.89,0,1.8-.06,2.72-.2,8.21-1.18,14.72-7.9,15.68-16.14.05-.4.08-.8.1-1.2.14-2.66-.29-5.19-1.17-7.51-.75-1.99-.6-4.22.4-6.1Z"/>
      <path class="cls-2" d="M44.24,79.19c-.7-.3-1.15-.96-1.21-1.72-.34-4.59-3.67-6.5-7.47-6.5-1.04,0-2.03.21-2.93.6-.27.11-.54.17-.82.17-.5,0-.98-.18-1.37-.52-.44-.39-.91-.75-1.4-1.07-1.98-1.31-4.35-2.08-6.9-2.08-5.37,0-9.94,3.38-11.71,8.13-.34.92-1.1,1.63-2.03,1.95-4.89,1.7-8.39,6.34-8.39,11.81,0,4.82,2.73,9,6.72,11.09.83.43,1.36,1.26,1.45,2.19.43,4.39,4.52,7.98,8.97,7.98,1.85,0,3.57-.56,5-1.52.55-.37,1.19-.56,1.83-.56.57,0,1.14.15,1.65.46,1.58.95,3.44,1.5,5.42,1.5,4.47,0,8.29-2.79,9.82-6.72.32-.82,1.03-1.41,1.88-1.66.92-.26,1.79-.62,2.6-1.07,3.86-2.13,6.48-6.24,6.48-10.96,0-5.16-3.13-9.59-7.59-11.5Z"/>
      <path class="cls-2" d="M176.37,75.24c-.5-3.36-2.41-6.09-5.01-7.75-1.11-.71-1.84-1.9-1.89-3.21-.06-1.36-.32-2.75-.81-4.12-1.97-5.47-7.26-9.07-12.95-9.07-.7,0-1.41.05-2.12.17-3.15.5-5.85,2.01-7.86,4.13-.64.68-1.54,1.05-2.46,1.05-.24,0-.49-.03-.73-.08-.83-.18-1.69-.28-2.57-.28-1.25,0-2.54.2-3.81.61-5.44,1.77-8.97,7.25-8.31,12.93.26,2.21,1.07,4.18,2.26,5.82.63.86.62,2.02.09,2.95-.94,1.65-1.23,3.67-.62,5.66.14.46.32.89.54,1.3,1.22,2.25,3.63,3.74,6.25,3.79.05,0,.1,0,.15,0,.61,0,1.19-.08,1.74-.22.17-.04.34-.07.52-.07.8,0,1.56.46,1.98,1.18,2.33,3.94,6.61,6.42,11.23,6.42.96,0,1.94-.11,2.92-.33,3.82-.87,6.86-3.34,8.59-6.54.52-.96,1.46-1.63,2.54-1.68,1.3-.07,2.63-.38,3.94-.97.92-.42,1.76-.95,2.51-1.58,2.9-2.43,4.46-6.26,3.89-10.11Z"/>
      <path class="cls-3" d="M131.6-105.69c-.23-1.53-1.1-2.77-2.28-3.53-.51-.32-.84-.86-.86-1.46-.03-.62-.15-1.25-.37-1.88-.89-2.49-3.31-4.13-5.9-4.13-.32,0-.64.02-.97.08-1.44.23-2.67.92-3.58,1.88-.29.31-.7.48-1.12.48-.11,0-.22-.01-.33-.04-.38-.08-.77-.13-1.17-.13-.57,0-1.15.09-1.73.28-2.48.81-4.08,3.3-3.78,5.89.12,1,.49,1.9,1.03,2.65.29.39.28.92.04,1.34-.43.75-.56,1.67-.28,2.58.06.21.15.41.25.59.56,1.02,1.65,1.7,2.84,1.72.02,0,.04,0,.07,0,.28,0,.54-.04.79-.1.08-.02.16-.03.23-.03.37,0,.71.21.9.54,1.06,1.79,3.01,2.92,5.12,2.92.44,0,.88-.05,1.33-.15,1.74-.4,3.13-1.52,3.91-2.98.24-.44.66-.74,1.16-.77.59-.03,1.2-.17,1.8-.44.42-.19.8-.43,1.14-.72,1.32-1.11,2.03-2.85,1.77-4.6Z"/>
      <path class="cls-2" d="M155.65,11c-.23-1.53-1.1-2.77-2.28-3.53-.51-.32-.84-.86-.86-1.46-.03-.62-.15-1.25-.37-1.88-.89-2.49-3.31-4.13-5.9-4.13-.32,0-.64.02-.97.08-1.44.23-2.67.92-3.58,1.88-.29.31-.7.48-1.12.48-.11,0-.22-.01-.33-.04-.38-.08-.77-.13-1.17-.13-.57,0-1.15.09-1.73.28-2.48.81-4.08,3.3-3.78,5.89.12,1,.49,1.9,1.03,2.65.29.39.28.92.04,1.34-.43.75-.56,1.67-.28,2.58.06.21.15.41.25.59.56,1.02,1.65,1.7,2.84,1.72.02,0,.04,0,.07,0,.28,0,.54-.04.79-.1.08-.02.16-.03.23-.03.37,0,.71.21.9.54,1.06,1.79,3.01,2.92,5.12,2.92.44,0,.88-.05,1.33-.15,1.74-.4,3.13-1.52,3.91-2.98.24-.44.66-.74,1.16-.77.59-.03,1.2-.17,1.8-.44.42-.19.8-.43,1.14-.72,1.32-1.11,2.03-2.85,1.77-4.6Z"/>
      <path class="cls-3" d="M189.08-270.28c1.47-2.77,2.24-5.97,2.07-9.36-.46-8.83-7.5-16.14-16.31-16.91-.54-.05-1.07-.07-1.6-.07-1.49,0-2.93.18-4.31.52-.31.08-.63.11-.94.11-1.26,0-2.49-.6-3.3-1.62-2.5-3.14-6.36-5.16-10.69-5.16-2.47,0-4.78.66-6.78,1.81-.68.39-1.43.58-2.18.58-.82,0-1.64-.22-2.38-.65-2.64-1.53-5.7-2.41-8.97-2.41-1.18,0-2.34.11-3.46.33-6.79,1.33-12.2,6.48-13.91,13.13-.42,1.65-1.52,3.02-3.03,3.81-2.41,1.27-4.5,3.07-6.11,5.25-2.19,2.97-3.49,6.65-3.49,10.63,0,4.58,1.72,8.76,4.54,11.93,2.05,2.3,4.69,4.07,7.68,5.07,1.94.65,3.46,2.13,4.2,4.04,2.6,6.7,9.1,11.44,16.72,11.44,3.38,0,6.54-.94,9.24-2.57.82-.49,1.75-.74,2.67-.74,1.01,0,2.02.29,2.89.88,1.73,1.17,3.81,1.85,6.06,1.85,3.14,0,5.97-1.33,7.95-3.46.96-1.03,2.32-1.54,3.71-1.54.37,0,.74.04,1.11.11,1,.19,2.03.3,3.09.3.78,0,1.58-.06,2.38-.17,7.2-1.04,12.91-6.93,13.75-14.16.04-.35.07-.7.09-1.05.12-2.33-.25-4.55-1.03-6.59-.66-1.74-.53-3.7.35-5.35Z"/>
      <path class="cls-3" d="M130.57-324.79c-.5-3.36-2.41-6.09-5.01-7.75-1.11-.71-1.84-1.9-1.89-3.21-.06-1.36-.32-2.75-.81-4.12-1.97-5.47-7.26-9.07-12.95-9.07-.7,0-1.41.05-2.12.17-3.15.5-5.85,2.01-7.86,4.13-.64.68-1.54,1.05-2.46,1.05-.24,0-.49-.03-.73-.08-.83-.18-1.69-.28-2.57-.28-1.25,0-2.54.2-3.81.61-5.44,1.77-8.97,7.25-8.31,12.93.26,2.21,1.07,4.18,2.26,5.82.63.86.62,2.02.09,2.95-.94,1.65-1.23,3.67-.62,5.66.14.46.32.89.54,1.3,1.22,2.25,3.63,3.74,6.25,3.79.05,0,.1,0,.15,0,.61,0,1.19-.08,1.74-.22.17-.04.34-.07.52-.07.8,0,1.56.46,1.98,1.18,2.33,3.94,6.61,6.42,11.23,6.42.96,0,1.94-.11,2.92-.33,3.82-.87,6.86-3.34,8.59-6.54.52-.96,1.46-1.63,2.54-1.68,1.3-.07,2.63-.38,3.94-.97.92-.42,1.76-.95,2.51-1.58,2.9-2.43,4.46-6.26,3.89-10.11Z"/>
      <path class="cls-3" d="M185.93-41.6c1.25-2.34,1.9-5.05,1.75-7.92-.39-7.48-6.35-13.67-13.81-14.32-.46-.04-.91-.06-1.35-.06-1.26,0-2.48.15-3.65.44-.27.07-.53.1-.8.1-1.07,0-2.11-.51-2.79-1.37-2.12-2.66-5.38-4.37-9.05-4.37-2.09,0-4.05.56-5.74,1.53-.57.33-1.21.49-1.85.49-.69,0-1.39-.19-2.01-.55-2.23-1.3-4.83-2.04-7.6-2.04-1,0-1.98.1-2.93.28-5.75,1.12-10.33,5.49-11.78,11.12-.36,1.4-1.29,2.55-2.56,3.22-2.04,1.07-3.81,2.6-5.17,4.44-1.86,2.52-2.96,5.63-2.96,9,0,3.88,1.45,7.42,3.85,10.1,1.74,1.95,3.97,3.45,6.5,4.29,1.64.55,2.93,1.81,3.55,3.42,2.2,5.67,7.71,9.69,14.15,9.69,2.86,0,5.54-.79,7.83-2.17.69-.42,1.48-.63,2.26-.63.86,0,1.71.25,2.44.74,1.46.99,3.23,1.57,5.13,1.57,2.66,0,5.05-1.13,6.73-2.93.81-.87,1.96-1.3,3.14-1.3.31,0,.63.03.94.09.85.16,1.72.25,2.62.25.66,0,1.34-.05,2.02-.15,6.1-.88,10.93-5.87,11.64-11.99.03-.3.06-.59.08-.89.1-1.97-.21-3.86-.87-5.58-.56-1.48-.44-3.13.3-4.53Z"/>
      <path class="cls-4" d="M106.38,115.68c.03-.3.04-.61.05-.9s-.3-.6-.31-.89.44-.63.4-.93.07-.64.01-.93-.16-.61-.23-.9-.63-.45-.72-.73.1-.68-.02-.95-.76-.3-.89-.57.2-.78.05-1.04-.51-.38-.68-.63-.31-.51-.5-.74-.3-.53-.51-.75c-.2-.22-.2-.55-.35-.8s-.8-.25-.91-.52.34-.71.28-1-.36-.53-.35-.83.21-.55.27-.84c.07-.31.29-.61.33-.93s.02-.66.05-.98.22-.64.23-.96-.05-.66-.06-.98-.49-.61-.52-.93c-.03-.3.45-.68.4-.98s-.76-.48-.83-.78-.19-.56-.27-.85.17-.68.07-.97-.01-.65-.13-.93-.46-.47-.59-.74-.45-.44-.6-.71-.36-.48-.52-.73.11-.81-.07-1.05-.68-.25-.87-.49-.09-.73-.3-.95-.32-.56-.54-.77-.97.15-1.2-.04-.49-.33-.73-.51-.44-.38-.69-.56-.38-.49-.64-.65-.23-.83-.5-.98-.74.1-1.01-.03-.62-.07-.9-.18-.58-.13-.87-.22-.47-.55-.76-.63c-.26-.07-.55,0-.82-.05s-.55.09-.82.05-.53,0-.8-.02c-.31-.03-.59-.62-.89-.63s-.63.48-.94.48-.65-.43-.96-.41-.57.51-.88.55-.72-.47-1.02-.4-.56.39-.86.48-.65.04-.94.13-.44.62-.72.74-.51.35-.79.49-.82-.24-1.09-.09-.46.47-.72.63c-.3.19-.45.81-.78.9s-.8-.16-1.14-.15-.77.14-1.1.05c-.27-.07-.29-.78-.54-.9-.29-.15-.63-.26-.93-.38s-.81.29-1.12.19-.65-.02-.97-.1c-.28-.07-.47-.51-.76-.56s-.61.15-.9.12-.56-.07-.86-.09-.57.07-.86.07-.56,0-.86.02c-.3.02-.67-.68-.96-.64s-.56.39-.85.45-.65-.08-.94,0-.6.16-.88.25-.6.17-.88.28-.46.47-.73.6-.59.18-.85.33-.2.81-.45.97-.85-.17-1.09,0-.43.44-.65.64-.13.73-.34.94-.38.44-.58.66-.81.1-1,.33-.23.59-.4.83-.62.33-.77.59-.04.68-.17.94-.43.47-.55.75.09.68,0,.97-.59.45-.67.74.26.69.2.98-.46.53-.5.83c-.04.3.17.63.14.92s-.2.6-.2.89.34.59.35.89-.38.64-.35.93.29.57.34.86-.01.62.06.91.13.6.22.88.37.51.48.79c.11.28.6.53.62.82s-.09.69-.16.97-.22.63-.36.89-.57.35-.78.57c-.22.23-.18.66-.37.91s-.88.16-1.05.43-.17.65-.3.94-.24.6-.33.9.08.67.02.98-.57.57-.59.89.02.66.04.99c.01.27.38.51.42.78s.12.51.19.77c.07.28.17.54.27.81s-.08.67.04.93.43.44.58.68.42.41.6.63.14.66.34.87.78,0,1.01.18.3.53.54.7.65,0,.9.12.18.98.45,1.09.72-.29,1-.21c.05.01.15-.16.2-.14.33.08.56.54.89.58s.68-.33,1-.33c.2,0,.44.19.62.24.3.08.65.2.89.38s.68.32.86.57-.39.86-.3,1.16c.08.29.24.58.34.86s.16.61.28.88.71.34.84.61-.22.81-.07,1.07.44.46.61.71.42.46.6.7.57.32.76.55.27.57.48.79.27.61.49.81.64.2.87.39.52.31.77.49.6.18.85.34.37.56.63.7.71-.09.99.04.53.25.81.36.47.44.76.53.5.45.79.53c.27.07.52.29.8.34s.57.09.85.13.58-.05.86-.03.57-.05.85-.04c.3,0,.6-.49.9-.5s.6.11.89.09.63.21.93.16.49-.62.78-.69.57-.09.86-.17.68.18.96.08.43-.52.71-.64.53-.24.79-.38.89.38,1.15.23.45-.45.7-.61.19-.77.43-.95.72-.05.95-.25.09-.78.31-.99.54-.28.75-.5c.21-.22.43-.53.68-.7s.56-.43.84-.53.75.54,1.05.51.59-.41.89-.35c.3.06.58.22.89.26s.61.2.92.22.63.19.94.18.59-.48.9-.51.7.47,1,.41c.28-.05.54-.26.82-.33s.45-.49.72-.58.5-.26.76-.36.45-.34.7-.46c.28-.13.5-.31.77-.46s.58-.19.83-.36.47-.36.71-.55.57-.25.8-.46.74-.12.96-.34.11-.73.31-.96.6-.31.78-.56.46-.45.62-.71.33-.54.47-.82.17-.61.29-.9.26-.57.36-.86-.45-.76-.37-1.06.26-.54.31-.84.47-.54.5-.85Z"/>
      <path class="cls-1" d="M192.73,30.39c-.09-.23-.32-.42-.42-.64s-.24-.45-.36-.66-.52-.27-.65-.47.13-.7-.01-.9-.45-.29-.61-.48-.48-.23-.66-.4-.25-.46-.44-.62-.6-.03-.8-.18-.44-.2-.64-.33-.16-.69-.37-.81-.55-.01-.77-.11-.49-.07-.72-.15c-.23-.08-.37-.38-.58-.5s-.61-.02-.79-.18-.22-.51-.36-.7-.11-.5-.21-.71-.25-.4-.31-.64c-.07-.25-.05-.53-.13-.78s-.36-.42-.46-.67-.33-.41-.44-.65.21-.69.09-.92-.29-.45-.43-.67c-.13-.2-.5-.24-.64-.43s-.47-.23-.62-.41.12-.72-.03-.9-.3-.39-.47-.55-.72.07-.89-.09-.29-.38-.47-.52-.47-.14-.66-.28-.17-.58-.37-.7-.28-.47-.49-.59-.72.36-.93.26-.32-.41-.54-.5-.37-.36-.59-.44-.45-.14-.68-.21-.52.13-.75.08-.38-.5-.61-.54-.46-.2-.7-.23-.49-.02-.73-.04-.49.39-.73.39-.48-.27-.71-.26-.43.52-.67.54-.52-.41-.76-.37-.43.28-.66.33c-.21.05-.43.06-.65.11s-.45.03-.66.1-.48-.03-.69.05c-.22.08-.24.63-.45.72s-.63-.23-.84-.12-.3.43-.5.55-.48.11-.68.24-.48.15-.66.29-.34.34-.52.49-.47.2-.64.36-.32.37-.48.54-.03.61-.18.79-.65.08-.79.27.19.72.06.91-.21.41-.33.6c-.11.18-.5.19-.64.34s-.4.14-.58.27-.24.39-.43.48-.36.32-.57.37c-.22.05-.48.13-.71.13-.27,0-.55-.45-.82-.43s-.5.38-.76.42-.59-.25-.85-.19c-.23.05-.51,0-.75.06s-.26.78-.48.86-.41.21-.63.31-.43.15-.65.26-.49.06-.7.19c-.21.12-.7-.18-.9-.04s-.2.58-.39.73-.28.43-.46.59-.31.37-.48.55-.58.12-.74.31-.22.45-.37.65-.15.49-.28.69-.2.43-.33.65-.67.2-.78.42.18.62.08.84-.55.32-.63.55.22.58.16.82-.6.37-.65.61.13.53.1.78-.18.48-.2.73.35.5.35.75.12.47.13.72-.45.53-.42.78.23.47.27.71.52.37.59.61-.14.54-.06.77c.08.23.31.4.4.62s-.32.68-.22.9.26.44.38.65.67.17.8.37.39.3.54.49.04.58.2.77.48.21.65.38.33.34.51.5c.18.16.46.37.57.57s.24.52.29.76-.54.53-.55.77.21.48.14.71c-.07.22-.31.4-.36.62s-.1.47-.12.69-.07.48-.07.7.23.46.25.69-.03.47.01.7.59.3.66.52-.36.61-.27.82.26.39.37.59c.11.19.55.16.68.34s.27.31.41.47c.15.18-.03.68.14.84s.46.21.65.35.24.52.44.64.55.01.76.11.39.34.61.42.54-.14.77-.08.41.46.65.48.51-.31.74-.31.49.3.73.28.45-.26.69-.3c.04,0,.12.12.16.11.27-.06.46-.41.71-.5s.66.14.9.02c.15-.07.2-.28.36-.32.25-.05.45.06.7.1s.41.13.63.25.48.12.65.31c.17.18.6.09.78.26s.31.37.49.53.36.31.56.46.25.49.46.62.55.03.76.15.18.71.4.82.51.09.74.18.47.18.7.26.53-.06.77,0,.38.52.62.58.51.06.75.1.53-.22.77-.2.49,0,.73.02.49,0,.73-.01.51.26.76.24.48-.2.72-.24.47-.18.71-.24c.22-.05.51.16.73.1s.3-.58.51-.65.49.04.7-.04.29-.45.49-.55c.22-.1.75.4.97.28s.21-.63.42-.76.31-.4.51-.54.6-.01.79-.16.16-.57.34-.73.45-.23.62-.41.31-.38.46-.56.16-.48.3-.68.83-.01.97-.22.23-.46.35-.67.3-.42.41-.64-.18-.63-.08-.86.64-.28.73-.52.05-.52.12-.76c.07-.24.08-.45.2-.66s.09-.53.26-.71.45-.21.66-.34.46-.02.7-.08c.24-.07.43-.37.67-.46s.45-.24.68-.34.38-.35.6-.47.56-.03.78-.17.22-.56.42-.72c.19-.14.36-.26.53-.41s.48-.14.65-.3.5-.16.66-.34.42-.28.56-.46c.14-.18.29-.4.42-.59s.18-.46.29-.66.17-.45.27-.66-.19-.6-.11-.81.28-.38.35-.6.37-.38.43-.6-.34-.55-.29-.77.12-.43.14-.66.36-.42.38-.66-.27-.46-.28-.7-.02-.44-.04-.68.59-.54.55-.77-.21-.45-.26-.68-.55-.34-.61-.56.42-.64.34-.86Z"/>
      <path class="cls-6" d="M181.64,55.44c0-.27.4-.54.39-.81s-.15-.54-.16-.81-.39-.52-.41-.79.35-.56.33-.83-.29-.51-.31-.78.16-.56.13-.83-.25-.51-.29-.77.4-.61.35-.88,0-.56-.05-.82-.4-.48-.45-.74-.46-.45-.52-.71-.28-.48-.34-.74.59-.72.51-.98-.42-.44-.5-.7.08-.6,0-.85-.64-.35-.73-.61.13-.62.03-.87.02-.6-.08-.85-.39-.43-.5-.68-.52-.36-.63-.61.08-.63-.03-.88-.74-.24-.86-.48-.27-.46-.4-.7,0-.61-.12-.85-.07-.58-.2-.82-.54-.31-.68-.53-.4-.38-.55-.61.04-.67-.11-.89-.54-.28-.7-.5-.04-.64-.2-.86-.29-.46-.46-.67-.49-.3-.66-.51-.54-.25-.71-.46.09-.79-.08-1-.86.05-1.04-.15.08-.82-.1-1.01-.66-.11-.85-.3-.45-.3-.65-.49-.17-.61-.37-.79-.28-.51-.48-.68-.51-.24-.72-.41-.42-.34-.63-.51-.44-.31-.66-.47-.67,0-.88-.17,0-.91-.23-1.07-.86.29-1.08.14-.22-.64-.44-.79-.71.12-.94-.02-.15-.78-.39-.92-.66.07-.9-.06-.48-.24-.71-.37-.26-.68-.5-.8-.71.22-.95.11-.29-.66-.53-.77-.42-.41-.67-.51-.71.3-.96.2-.33-.64-.58-.74-.65.21-.91.12-.47-.29-.73-.38-.57.02-.83-.06-.35-.71-.61-.79-.66.38-.92.31-.51-.15-.78-.21-.46-.42-.72-.48-.58.16-.85.11-.57.15-.84.11-.46-.53-.73-.57-.5-.38-.76-.41-.59.34-.85.31-.54-.02-.81-.04-.52-.36-.79-.38-.54-.03-.81-.04-.55.31-.82.31-.54.34-.81.34-.55-.28-.83-.28-.57-.41-.84-.4-.56-.02-.84,0-.53.43-.8.45-.55,0-.83.04-.5.44-.77.48-.65-.68-.93-.63-.51.32-.78.37-.64.65-.91.71c-.18-.2-.43-.61-.61-.81s-.18-.57-.36-.76-.25-.51-.44-.7-.53-.23-.73-.42-.55-.19-.75-.38-.27-.5-.48-.68-.59-.13-.8-.3-.01-.84-.22-1.01-.39-.39-.61-.55-.46-.3-.68-.45-.51-.23-.73-.38-.32-.5-.55-.65-.49-.25-.72-.39-.69.08-.92-.05-.26-.64-.49-.78-.69.13-.93,0-.34-.53-.58-.65-.73.28-.98.16-.4-.4-.65-.51-.49-.22-.74-.33-.43-.37-.68-.47-.53-.12-.79-.21-.6.08-.85,0-.42-.43-.68-.51-.38-.61-.64-.69-.55-.07-.81-.14-.59.12-.85.05-.48-.37-.74-.42-.62.33-.88.28-.44-.64-.71-.68-.58.22-.85.18-.54-.07-.81-.1-.52-.24-.79-.26-.59.64-.86.62-.51-.37-.78-.39-.54.11-.81.1-.54-.46-.81-.46-.54.67-.81.68-.56-.54-.83-.52-.57-.24-.84-.22-.56.03-.83.05-.5.48-.77.51-.55,0-.82.04-.56,0-.82.04-.55.06-.82.11-.43.61-.7.67-.56-.02-.82.04-.61-.2-.88-.13-.61-.12-.87-.05-.46.39-.72.47-.53.16-.78.25-.42.46-.67.56-.43.39-.68.49-.56.04-.82.15-.51.18-.76.29-.37.49-.62.6-.56.07-.81.19-.46.29-.7.42-.54.15-.77.28-.73-.16-.96-.02-.28.6-.51.75-.34.47-.57.62-.33.46-.56.62-.55.15-.77.31-.5.23-.72.4-.7-.01-.92.16-.3.5-.51.67-.37.41-.57.59-.1.7-.3.89-.82-.07-1.01.12-.08.69-.27.88-.8,0-.98.19-.33.44-.51.65,0,.73-.17.94-.2.53-.38.74-1-.1-1.17.11-.22.53-.38.75-.15.57-.31.79.04.69-.11.91-.7.19-.84.42.12.71-.03.94-.68.23-.81.46-.52.34-.65.58-.09.58-.21.82-.42.41-.54.65.46.82.35,1.07-.32.45-.43.7-.42.41-.52.66.12.62.02.88-.86.27-.94.53-.18.52-.27.78.33.67.25.94.05.57-.02.84-.37.61-.44.88c-.27.04-.7-.01-.96.03s-.61-.25-.87-.19-.53.16-.79.23-.42.49-.68.57-.7-.39-.95-.3-.37.6-.62.69-.49.22-.74.32-.42.38-.66.5-.5.19-.74.31-.36.46-.59.59-.8-.32-1.03-.18-.44.33-.67.48-.19.68-.41.83-.66,0-.87.17-.46.29-.67.46-.43.34-.63.51-.37.41-.56.59-.02.74-.21.93-.77,0-.96.2-.22.53-.39.74-.18.55-.35.76-.31.43-.47.64-.85.05-1.01.28.09.72-.05.94-.26.47-.4.7-.32.43-.45.67-.66.27-.78.51.33.76.21,1-.26.47-.36.72-.55.36-.65.61.12.61.03.87-.11.52-.19.78-.68.38-.74.64.64.7.58.97-.4.46-.45.73-.11.52-.15.79-.03.54-.06.8-.27.52-.29.79-.03.54-.04.81.13.54.13.81.33.52.34.79-.47.56-.45.82-.03.55,0,.81.6.46.64.73-.12.55-.07.81-.08.56-.02.82,0,.55.07.81.29.48.36.73-.23.64-.15.89.52.39.61.64-.06.6.04.85.54.35.65.6-.2.69-.08.93.26.48.38.72.9.11,1.03.34.2.49.34.72.08.58.23.8.14.56.3.77.12.59.29.8.82.02.99.23-.09.79.09.99.75.03.93.23.07.53.26.72c-.09.26-.35.36-.43.62s.34.68.26.94-.09.54-.16.81-.63.42-.69.68.29.63.24.9-.28.51-.32.78-.07.55-.11.82-.22.53-.25.8.54.61.51.89-.26.52-.29.8-.34.53-.36.8-.09.55-.09.83-.19.55-.19.83.25.55.26.82-.07.55-.05.82-.02.55,0,.82.14.54.17.81.28.52.31.79.27.51.31.78-.42.62-.38.88-.09.58-.03.84.51.45.57.72.42.46.48.72.23.49.3.75.11.53.19.78-.14.61-.06.87.2.51.29.76.23.49.33.75.32.45.42.7.31.45.42.7.06.56.17.81.31.45.43.69.02.6.15.84.63.27.77.5-.25.77-.11,1,.6.27.74.5.38.39.53.62-.11.73.05.95.61.23.78.44.53.27.69.49-.2.85-.03,1.06.67.15.85.35.1.64.28.84.65.13.84.33.36.4.55.6.21.56.4.75.36.41.57.59.69.03.9.21.36.4.57.58.38.38.6.55.53.19.75.35.34.45.56.61.43.33.65.48.34.47.57.61.48.26.71.4.48.25.72.39.28.62.52.75.83-.41,1.07-.29.22.77.47.89.45.33.7.44.46.32.72.42.73-.37.99-.27.55.06.8.15.34.68.6.76.62-.16.88-.09.39.6.65.67.69-.5.95-.43.35.88.62.94.53.15.8.2.56-.02.83.03.53.19.8.23.6-.36.87-.33.54.02.81.05.56-.22.83-.2.53.15.8.16.54,0,.81,0,.54.5.81.5.55-.1.82-.11.55.12.83.11.53-.28.8-.3.58.3.85.28.48-.65.75-.68.62.5.89.46.47-.55.73-.59.63.37.89.32.49-.35.75-.41.53-.12.8-.19.55-.07.81-.14.42-.49.68-.57.57,0,.82-.09.46-.32.72-.41.6-.15.85-.25c.18.2.19.66.38.86s.25.52.45.71.72.03.92.21.08.73.29.91.59.15.8.31.6.1.82.26.1.79.32.94.63.04.86.19.43.33.66.47.69-.12.92.02.17.82.41.95.48.26.73.38.62-.05.87.06.61-.07.86.03.46.28.71.37.39.51.65.59.6-.12.86-.05.49.22.75.29.6-.22.86-.16.41.63.68.68.54.04.81.09.53.12.8.16.59-.45.86-.43.5.39.77.41.52.36.8.37.55-.22.82-.22.54,0,.81,0,.52-.43.78-.44.6.7.87.67.51-.34.78-.37.54-.04.81-.08.47-.41.74-.46.53-.07.79-.13.63.3.89.23.35-.73.61-.81.64.26.9.18.59.02.84-.07.44-.38.69-.49.52-.16.77-.27.35-.52.6-.63.53-.14.77-.26.69.12.92-.01.35-.48.58-.62.17-.74.39-.89.86.31,1.08.15.39-.4.6-.56.43-.33.64-.5.14-.67.35-.85.56-.17.76-.35.45-.31.64-.5.19-.57.37-.77.81.01.99-.19.32-.45.5-.65-.06-.75.11-.96.52-.28.68-.49.17-.77.33-1c.24.1.6.42.84.51s.58-.12.82-.04.4.44.65.51.44.35.69.41.55-.12.81-.07.44.47.7.51.51.14.77.17.57-.5.83-.48.48.59.74.6.53-.27.79-.27c.28,0,.54-.22.82-.23s.52-.25.8-.27.54-.02.81-.05.57.19.84.15.49-.33.76-.39.58.13.85.06.67.34.93.26.41-.55.67-.63.36-.58.62-.68.61.07.86-.04.72.23.97.11.3-.63.54-.76.31-.55.54-.69.76.19.99.04.21-.66.43-.82.82.18,1.04.01.38-.43.58-.61.48-.31.68-.5.26-.54.45-.73.48-.31.67-.51.1-.65.28-.86.5-.3.66-.52.42-.38.58-.6-.1-.73.05-.96.65-.24.79-.47.12-.57.25-.81.17-.52.29-.77.13-.54.24-.79.84-.25.94-.5-.32-.71-.23-.97.02-.56.1-.82.03-.54.1-.81.41-.45.47-.72.34-.49.39-.76.09-.55.12-.82-.5-.59-.47-.87.08-.53.09-.8.57-.53.57-.81-.16-.55-.17-.82-.08-.54-.1-.81-.37-.5-.41-.77.14-.56.1-.83-.01-.55-.07-.81.12-.59.05-.85-.22-.51-.3-.77-.4-.44-.48-.7.3-.7.2-.95-.67-.32-.78-.56-.41-.4-.53-.64.24-.73.11-.97-.34-.38-.48-.61c.19-.2.16-.53.35-.73s.25-.51.43-.71.48-.3.65-.51.29-.46.46-.67.81-.05.98-.27.34-.43.51-.65-.16-.8,0-1.02.38-.39.54-.62.35-.42.5-.65.41-.39.55-.62.6-.27.75-.51-.19-.75-.05-.98.15-.54.28-.78.78-.2.91-.45-.03-.63.09-.87.39-.42.51-.67-.05-.62.06-.87.68-.31.78-.56-.34-.72-.24-.98.55-.38.65-.63-.15-.63-.06-.89-.04-.58.04-.84.23-.49.31-.75.75-.36.82-.62-.24-.62-.17-.89.04-.55.1-.82.39-.48.44-.74-.02-.56.02-.83.33-.5.38-.77.08-.54.12-.82-.25-.58-.22-.85,0-.55.02-.82.11-.54.12-.81.5-.52.51-.8-.04-.56-.03-.83-.55-.55-.55-.83Z"/>
      <g>
        <path class="cls-2" d="M105.52,50.65c0,.17-.06.32-.19.45s-.29.19-.47.19h-2.85s-.02,0-.03.02c0,.01,0,.02,0,.04,1.41,1.21,3.08,2.18,5.02,2.92.14.05.22.15.26.3v.09c0,.11-.04.21-.11.3-.39.42-.78.88-1.15,1.39-.1.16-.24.27-.42.32-.18.06-.36.04-.53-.05-1.88-.91-3.58-2.18-5.13-3.79-.01-.01-.02-.02-.04,0-.01,0-.02.02-.02.03v3.54c0,.17-.06.32-.19.45s-.29.19-.47.19h-1.55c-.19,0-.34-.07-.47-.19-.13-.13-.19-.28-.19-.45v-3.41s0-.04-.02-.05c-.01,0-.02,0-.04,0-1.46,1.54-3.13,2.76-5.02,3.65-.17.09-.35.1-.53.05-.18-.06-.32-.16-.44-.31-.33-.47-.68-.91-1.05-1.31-.09-.09-.13-.18-.13-.28,0-.04,0-.07.02-.11.02-.15.11-.25.26-.3,1.89-.75,3.52-1.75,4.91-2.98.01-.01.02-.03,0-.04,0-.01-.02-.02-.03-.02h-2.68c-.19,0-.34-.07-.47-.19s-.19-.28-.19-.45v-6.16c0-.18.06-.34.19-.46.13-.12.29-.19.47-.19h4.67s.07-.03.07-.09v-.63s-.02-.07-.07-.07h-6.22c-.19,0-.34-.06-.47-.19-.13-.13-.2-.29-.2-.47v-1.24c0-.19.07-.34.2-.47s.29-.19.47-.19h6.22s.07-.02.07-.07v-.7c0-.18.07-.34.19-.47.13-.13.29-.19.47-.19h1.55c.18,0,.34.06.47.19.13.13.19.29.19.47v.7s.02.07.07.07h6.4c.19,0,.34.07.47.19.13.13.19.29.19.47v1.24c0,.18-.07.34-.19.47-.13.13-.29.19-.47.19h-6.4s-.07.03-.07.07v.63c0,.06.02.09.07.09h4.91c.19,0,.34.06.47.19.13.12.19.28.19.46v6.16ZM94.36,45.86s-.07.03-.07.09v.59s.02.07.07.07h2.55s.07-.02.07-.07v-.59c0-.06-.02-.09-.07-.09h-2.55ZM94.36,48.49s-.07.03-.07.09v.61s.02.07.07.07h2.55s.07-.02.07-.07v-.61c0-.06-.02-.09-.07-.09h-2.55ZM102.69,45.95c0-.06-.02-.09-.07-.09h-2.67s-.07.03-.07.09v.59s.02.07.07.07h2.67s.07-.02.07-.07v-.59ZM102.61,49.27s.07-.02.07-.07v-.61c0-.06-.02-.09-.07-.09h-2.67s-.07.03-.07.09v.61s.02.07.07.07h2.67Z"/>
        <path class="cls-2" d="M111.43,51.84c.11-.17.26-.29.44-.36.18-.07.35-.07.53,0l1.55.48c.16.05.27.15.32.31.06.16.03.31-.06.44-.86,1.28-1.79,2.37-2.78,3.26-.14.14-.3.2-.49.2s-.36-.06-.51-.19c-.37-.28-.77-.57-1.18-.85-.15-.09-.22-.22-.22-.39,0-.15.06-.27.17-.37.89-.74,1.63-1.58,2.24-2.54ZM125.59,40.66c.18,0,.34.06.47.18.13.12.19.28.19.46v1.31c0,.19-.06.34-.19.47-.13.13-.29.19-.47.19h-15.59c-.19,0-.34-.06-.47-.19-.13-.13-.19-.29-.19-.47v-1.31c0-.18.06-.34.19-.46.13-.12.29-.18.47-.18h6.2s.07-.03.07-.09v-.87c0-.18.07-.34.19-.47.13-.13.29-.19.47-.19h1.63c.18,0,.34.06.47.19s.19.29.19.47v.87c0,.06.02.09.07.09h6.28ZM124.34,50.08c0,.17-.07.32-.19.45-.13.13-.28.19-.45.19h-4.37s-.07.03-.07.09v3.44c0,.68-.09,1.2-.26,1.56s-.49.64-.94.82c-.64.26-1.6.39-2.89.39-.18,0-.35-.06-.49-.18-.14-.12-.24-.27-.29-.45-.11-.46-.27-.93-.46-1.41-.06-.14-.05-.27.04-.39.09-.12.2-.19.35-.19.51.02.91.04,1.2.04.19,0,.33,0,.43-.02.16,0,.27-.02.32-.06s.08-.11.08-.22v-3.35c0-.06-.02-.09-.07-.09h-4.2c-.17,0-.32-.06-.45-.19-.13-.13-.19-.28-.19-.45v-5.05c0-.18.07-.34.19-.47.13-.13.28-.19.45-.19h11.62c.17,0,.32.06.45.19.13.13.19.29.19.47v5.05ZM114.25,46.71c-.06,0-.09.03-.09.09v1.5s.03.07.09.07h7.07c.06,0,.09-.02.09-.07v-1.5c0-.06-.03-.09-.09-.09h-7.07ZM121.28,52.93c-.07-.1-.11-.2-.11-.32v-.11c.04-.16.13-.28.28-.35l1.35-.65c.12-.06.25-.09.39-.09.05,0,.11,0,.17.02.2.04.36.13.48.28,1.13,1.21,1.98,2.2,2.54,2.98.07.1.11.2.11.32,0,.05,0,.1-.02.15-.05.16-.15.28-.3.37l-1.57.78c-.1.05-.2.07-.31.07-.06,0-.13-.01-.2-.04-.17-.05-.31-.15-.41-.31-.54-.86-1.34-1.89-2.39-3.09Z"/>
        <path class="cls-2" d="M143.95,40.07c.07-.01.14-.02.2-.02.16,0,.32.04.46.13l1.13.7c.17.1.29.24.35.43.04.09.06.18.06.28,0,.09-.02.17-.06.26-.64,1.92-1.23,3.56-1.78,4.91-.02.05-.02.1.02.15,1.04,1.27,1.55,2.7,1.55,4.28s-.37,2.54-1.11,3.05c-.37.27-.83.44-1.39.52-.27.04-.58.06-.92.06-.17.01-.33-.05-.46-.18s-.22-.3-.26-.48c-.11-.69-.29-1.3-.54-1.81,0-.01,0-.01-.02,0-.01,0-.02.02-.02.03v4.04c0,.17-.07.32-.19.45-.13.13-.28.19-.45.19h-1.41c-.19,0-.34-.07-.46-.19-.12-.13-.19-.28-.19-.45v-14.73s0-.02-.02-.02c-.01,0-.02,0-.02.02-.43,1.04-.88,1.94-1.33,2.72-.03.05-.01.07.04.07h.18c.17,0,.32.06.45.19s.19.29.19.47v1.05c0,.19-.07.34-.19.46-.13.12-.28.19-.45.19h-1.76s-.09.02-.13.07c-.25.32-.53.66-.85,1.02-.01.01-.02.03,0,.05,0,.02.01.03.03.03h2.18c.18,0,.34.06.46.19.12.13.19.28.19.45v7.48c0,.18-.06.34-.19.47-.12.13-.28.19-.46.19h-1.37c-.16,0-.3-.06-.41-.17-.11-.11-.17-.25-.17-.41,0-.05-.02-.07-.07-.07h-2.24c-.06,0-.09.03-.09.09v.17c0,.17-.06.32-.19.45s-.28.19-.45.19h-1.18c-.17,0-.32-.07-.45-.19-.13-.13-.19-.28-.19-.45v-4.59s-.02-.06-.07-.04c-.15.09-.31.1-.47.05-.17-.05-.3-.15-.4-.3-.25-.42-.52-.83-.81-1.24-.07-.1-.11-.2-.11-.31,0-.05,0-.09.02-.13.04-.16.13-.28.28-.35,1.32-.68,2.54-1.55,3.65-2.61.01,0,.02,0,0-.03,0-.02-.02-.03-.03-.03h-3.04c-.17,0-.32-.06-.45-.19-.13-.12-.19-.28-.19-.46v-1.05c0-.19.07-.34.19-.47s.28-.19.45-.19h2.31c.06,0,.09-.03.09-.07v-1s-.03-.07-.09-.07h-1.52c-.17,0-.32-.06-.45-.19s-.19-.29-.19-.47v-1.04c0-.17.07-.32.19-.45.13-.13.28-.19.45-.19h1.52c.06,0,.09-.03.09-.09v-1c0-.19.06-.34.18-.46.12-.12.28-.18.46-.18h1.22c.19,0,.34.06.47.18.13.12.19.28.19.46v1c0,.06.02.09.07.09h.98c.17,0,.32.07.45.19s.19.28.19.45v.13s0,.02.02.03c.01,0,.02,0,.02,0,.17-.39.33-.77.46-1.13.06-.17.18-.3.34-.39.17-.09.34-.1.51-.06l1.44.41s.05-.02.05-.06c0-.11.04-.21.12-.3.08-.09.18-.13.3-.13h4.96s.07,0,.09-.02ZM134.77,50.97s.07-.03.07-.09v-.67s-.02-.07-.07-.07h-2.24c-.06,0-.09.02-.09.07v.67c0,.06.03.09.09.09h2.24ZM132.43,53.86s.03.07.09.07h2.24s.07-.02.07-.07v-.76c0-.06-.02-.09-.07-.09h-2.24c-.06,0-.09.03-.09.09v.76ZM133.91,44.36s.02.07.07.07h.06s.09-.03.13-.07c.27-.42.49-.75.65-1,.03-.05.01-.07-.04-.07h-.8s-.07.03-.07.07v1ZM141.26,42.66c-.06,0-.09.03-.09.09v9.31s.03.07.09.07c.22.02.5.04.83.04s.56-.05.72-.15c.3-.16.44-.56.44-1.18,0-1.1-.4-2.15-1.2-3.17-.19-.25-.28-.5-.28-.76,0-.12.02-.25.06-.37.33-1.02.7-2.29,1.09-3.79.01-.06,0-.09-.05-.09h-1.61Z"/>
        <path class="cls-2" d="M85.7,66.42c0,.09.03.13.1.13h7.8c.23,0,.43.09.61.27.17.18.26.4.26.67v12.43c0,.25-.09.47-.26.66-.17.19-.38.28-.61.28h-2.13c-.25,0-.46-.09-.63-.28-.17-.19-.26-.41-.26-.66v-.24c0-.07-.03-.11-.1-.11h-4.68c-.07,0-.1.04-.1.11v7.37c0,.25-.09.47-.26.66-.17.19-.38.28-.63.28h-2.13c-.25,0-.46-.09-.63-.28-.17-.19-.26-.41-.26-.66v-7.37c0-.07-.03-.11-.1-.11h-4.65c-.08,0-.12.04-.12.11v.38c0,.25-.08.47-.25.66s-.37.28-.62.28h-1.96c-.23,0-.43-.09-.61-.28s-.26-.41-.26-.66v-12.57c0-.27.09-.49.26-.67.17-.18.38-.27.61-.27h7.6c.07,0,.1-.04.1-.13v-3.63c0-.27.09-.5.26-.69.17-.19.38-.28.63-.28h2.13c.25,0,.46.09.63.28.17.19.26.42.26.69v3.63ZM76.91,75.51c0,.09.04.13.12.13h4.65c.07,0,.1-.04.1-.13v-4.9c0-.09-.03-.13-.1-.13h-4.65c-.08,0-.12.04-.12.13v4.9ZM85.7,75.51c0,.09.03.13.1.13h4.68c.07,0,.1-.04.1-.13v-4.9c0-.09-.03-.13-.1-.13h-4.68c-.07,0-.1.04-.1.13v4.9Z"/>
        <path class="cls-2" d="M105.96,80.6c-.08,0-.12.04-.12.11v1.86c0,.09.04.12.12.11.45-.04,1.09-.1,1.94-.19s1.32-.13,1.4-.13c.25-.04.46.03.63.2.17.17.26.39.26.66l.05,1.59c0,.27-.08.51-.25.71s-.37.33-.62.36c-.74.11-4.24.57-10.5,1.37-.23.02-.44-.05-.63-.21-.19-.16-.3-.38-.33-.65l-.2-1.99c-.03-.27.03-.5.19-.7.16-.2.35-.3.58-.32,1.37-.12,2.6-.24,3.69-.35.08,0,.12-.04.12-.13v-2.18c0-.07-.03-.11-.1-.11h-2.87c-.25,0-.46-.09-.63-.28-.17-.19-.26-.42-.26-.69v-1.67c0-.27.09-.49.26-.67.17-.18.38-.27.63-.27h2.87c.07,0,.1-.04.1-.13v-1.51c0-.09-.03-.13-.1-.13h-2.95c-.25,0-.46-.09-.63-.28-.17-.19-.26-.41-.26-.66v-10.28c0-.27.09-.49.26-.67.17-.18.38-.27.63-.27h9.73c.23,0,.43.09.61.27s.26.4.26.67v10.28c0,.25-.09.47-.26.66-.17.19-.38.28-.61.28h-3.02c-.08,0-.12.04-.12.13v1.51c0,.09.04.13.12.13h3.04c.23,0,.43.09.61.27.17.18.26.4.26.67v1.67c0,.27-.09.5-.26.69-.17.19-.38.28-.61.28h-3.04ZM101.45,66.2c-.08,0-.12.05-.12.13v1.24c0,.09.04.13.12.13h.99c.07,0,.1-.04.1-.13v-1.24c0-.09-.03-.13-.1-.13h-.99ZM101.45,70.59c-.08,0-.12.04-.12.13v1.26c0,.07.04.11.12.11h.99c.07,0,.1-.04.1-.11v-1.26c0-.09-.03-.13-.1-.13h-.99ZM106.65,67.71c.07,0,.1-.04.1-.13v-1.24c0-.09-.03-.13-.1-.13h-.94c-.08,0-.12.05-.12.13v1.24c0,.09.04.13.12.13h.94ZM106.65,72.1c.07,0,.1-.04.1-.11v-1.26c0-.09-.03-.13-.1-.13h-.94c-.08,0-.12.04-.12.13v1.26c0,.07.04.11.12.11h.94ZM118.98,72.18c.17-.04.33-.05.48-.05s.31.02.46.05l1.16.24c.23.05.42.19.57.4.1.16.15.34.15.54v.19c-.33,2.01-.7,3.83-1.11,5.46-.07.27-.21.47-.42.61-.21.13-.45.17-.69.12l-1.24-.24c-.23-.05-.41-.19-.54-.42-.13-.22-.17-.46-.12-.71.12-.74.23-1.5.35-2.29.02-.07-.02-.11-.1-.11h-.79c-.07,0-.1.04-.1.11v7.78c0,.95-.1,1.7-.3,2.25-.2.55-.56.96-1.09,1.25-.74.39-1.89.61-3.44.65h-.02c-.23,0-.44-.09-.62-.27-.2-.18-.32-.4-.37-.67-.13-.68-.32-1.37-.57-2.07-.07-.22-.04-.41.07-.59.12-.18.27-.26.47-.24.4.02.74.03,1.04.03.28,0,.5,0,.67-.03.18,0,.31-.03.38-.08s.11-.16.11-.32v-7.67c0-.07-.04-.11-.12-.11h-1.96c-.23,0-.43-.09-.61-.28-.17-.19-.26-.42-.26-.69v-1.86c0-.27.09-.49.26-.67.17-.18.38-.27.61-.27h3.49s.03,0,.04-.03c0-.02,0-.04-.01-.05-1.04-.72-2.13-1.37-3.27-1.96-.18-.09-.29-.25-.33-.48-.04-.23.01-.43.16-.59l1.01-1.13c.2-.2.42-.32.68-.38s.51-.03.75.08c.35.18.67.35.97.51.07.04.12.03.17-.03.33-.43.66-.91.99-1.45.05-.05.04-.08-.02-.08h-4.36c-.23,0-.43-.09-.61-.28-.17-.19-.26-.42-.26-.69v-1.64c0-.27.09-.49.26-.67.17-.18.38-.27.61-.27h6.73s.11,0,.17-.03c.13-.04.26-.05.37-.05.33,0,.64.11.92.32l1.02.78c.2.16.32.37.37.63.05.26,0,.51-.12.74-1.04,1.7-2.13,3.15-3.27,4.33-.05.05-.04.11.02.16.38.23.76.49,1.14.78.2.12.31.32.33.58.02.26-.04.48-.19.66l-.17.22s0,.03.02.03.03,0,.05-.03h.02Z"/>
        <path class="cls-2" d="M146.98,83.02c.23,0,.43.09.61.28.17.19.26.41.26.66v1.94c0,.25-.09.47-.26.66-.17.19-.38.28-.61.28h-18c-.08,0-.12.04-.12.13v.08c0,.25-.09.47-.26.66-.17.19-.38.28-.61.28h-1.93c-.23,0-.43-.09-.61-.28-.17-.19-.26-.41-.26-.66v-22.93c0-.27.09-.49.26-.67.17-.18.38-.27.61-.27h20.25c.25,0,.46.09.63.27.17.18.26.4.26.67v1.91c0,.27-.09.5-.26.69-.17.19-.38.28-.63.28h-17.33c-.08,0-.12.04-.12.11v15.77c0,.09.04.13.12.13h18ZM144.38,78.39c.15.2.22.41.22.65,0,.31-.1.56-.3.75l-1.66,1.72c-.17.16-.36.23-.59.22-.23-.02-.42-.13-.57-.32-.83-1.09-1.96-2.34-3.39-3.74-.05-.05-.1-.05-.15,0-1.6,1.81-3.24,3.35-4.93,4.6-.17.12-.35.19-.54.19-.03,0-.08,0-.15-.03-.23-.04-.44-.15-.62-.35-.53-.65-1.07-1.25-1.63-1.8-.13-.14-.2-.31-.2-.51,0-.27.11-.47.32-.59,1.72-1.08,3.34-2.45,4.88-4.12.05-.05.05-.11,0-.16-1.34-1.17-2.68-2.24-4.04-3.23-.18-.12-.28-.31-.3-.55-.02-.24.06-.44.22-.61l1.26-1.29c.18-.18.4-.28.67-.31.26-.03.5.03.72.17,1.27.9,2.55,1.85,3.84,2.85.05.04.1.03.15-.03.89-1.31,1.66-2.64,2.3-3.98.1-.25.26-.43.5-.54.13-.05.26-.08.4-.08.1,0,.21.02.32.05l1.98.73c.21.07.37.22.46.46.09.23.08.47-.04.7-.86,1.79-1.86,3.5-3,5.11-.05.05-.04.11.03.16,1.58,1.4,2.86,2.69,3.84,3.88Z"/>
        <path class="cls-2" d="M163.92,70.9c0,.16-.05.29-.15.4-.1.11-.22.17-.35.17h-7.88s-.08.02-.1.05c-.7,1.17-1.25,2.08-1.65,2.72,0,.01,0,.02,0,.03,0,.01.01.01.02,0l.52-.24c.13-.05.27-.05.41,0,.14.05.24.15.3.3.36.84.63,1.66.81,2.47,0,.01,0,.02,0,.02s0,0,0-.02c.02-.37.03-.89.03-1.57v-2.69c0-.16.05-.29.15-.4.1-.11.22-.17.37-.17h6.63c.14,0,.27.06.36.17.1.11.14.24.14.4v3.19c0,.16-.05.29-.14.4-.1.11-.22.17-.36.17h-5.23s-.07.02-.07.06v.35c-.01.05,0,.08.06.08h5.54c.15,0,.27.05.37.16.1.11.15.24.15.39v4.67c0,.41-.03.73-.09.98-.06.24-.19.44-.37.6-.21.17-.47.27-.77.32-.13.02-.26-.02-.38-.12-.12-.1-.19-.23-.23-.4-.05-.22-.11-.44-.19-.66,0-.01,0-.02,0-.02,0,0,0,0,0,.02v.57c0,.15-.05.28-.15.39-.1.11-.22.17-.37.17h-.26c-.14,0-.27-.05-.36-.17s-.14-.24-.14-.39v-2.03c0-.05-.02-.08-.07-.08h-.19s-.07.03-.07.08v2.03c0,.15-.05.28-.15.39-.1.11-.22.17-.35.17h-.25c-.13,0-.25-.05-.35-.17s-.15-.24-.15-.39v-2.03c0-.05-.02-.08-.07-.08h-.17s-.07.03-.07.08v2.12c0,.15-.05.28-.14.39-.1.11-.22.17-.36.17h-.42c-.14,0-.27-.06-.37-.17-.1-.11-.15-.24-.15-.39v-2.28h-.01c-.22.91-.5,1.7-.84,2.38-.06.12-.16.2-.29.22s-.25-.02-.35-.11c-.24-.21-.49-.4-.74-.58-.12-.08-.19-.2-.23-.35-.04-.15-.03-.28.03-.41.13-.26.26-.54.36-.85,0-.02,0-.04,0-.05,0-.01-.02-.01-.03,0l-.28.09c-.12.04-.24.02-.35-.05-.11-.08-.18-.19-.2-.32-.09-.6-.24-1.25-.45-1.95,0,0-.01,0-.01.02v4.25c0,.15-.05.28-.15.39-.1.11-.22.17-.37.17h-.77c-.14,0-.25-.06-.36-.17-.1-.11-.15-.24-.15-.39v-3.85h-.01c-.13,1.04-.3,1.93-.54,2.69-.04.14-.12.23-.25.28-.13.05-.25.04-.37-.03-.18-.09-.37-.19-.56-.28-.12-.06-.22-.16-.28-.3-.03-.08-.04-.17-.04-.25,0-.06,0-.13.03-.19.19-.67.34-1.55.43-2.64.02-.15.08-.27.19-.36s.23-.13.36-.09l.97.17s.07,0,.07-.05v-.9s-.02-.06-.07-.06c-.26.02-.67.06-1.23.11-.14.01-.27-.03-.38-.13-.11-.1-.17-.22-.18-.37l-.1-.9c-.02-.15.02-.28.11-.39.09-.12.21-.18.34-.19.26,0,.47-.02.62-.03.04,0,.07-.02.1-.06.06-.09.19-.3.41-.63.02-.03.02-.07,0-.11-.3-.54-.73-1.15-1.29-1.84-.11-.12-.16-.25-.17-.42,0-.16.03-.31.12-.43l.52-.8c.06-.07.13-.12.22-.13.09-.01.17.02.22.08.03.02.05.02.06,0,.29-.69.55-1.39.77-2.09.05-.15.13-.25.26-.31.07-.04.14-.06.22-.06.06,0,.12.01.17.03l.83.31c.13.05.23.14.28.28.05.13.04.27-.01.4-.61,1.25-1.07,2.16-1.39,2.74-.03.03-.03.07,0,.11.1.14.17.24.22.31,0,.02.02.03.04.02.01,0,.03-.01.04-.02.33-.63.63-1.25.91-1.87.06-.15.15-.25.29-.3.14-.05.27-.05.39.02l1.01.5s.06,0,.06-.05v-1.24c0-.15.05-.28.15-.39s.22-.17.37-.17h7.53c.13,0,.25.05.35.17s.15.24.15.39v.87ZM153.03,75.41s-.01.02,0,.03.02.02.04.02l.68-.05s.06-.03.04-.08c-.1-.26-.17-.47-.23-.61,0-.02-.02-.03-.04-.03s-.02,0-.02.02l-.46.71ZM153.8,78.53s.02.06.06.05l.71-.24c.14-.04.27-.03.41.04.14.07.23.18.28.32.08.24.17.58.29,1.01,0,.01,0,.02.01.02s.01,0,.01-.02c.11-.56.2-1.27.28-2.14,0-.01,0-.02-.02-.03-.01-.01-.03-.02-.04-.02l-.82.39c-.12.05-.23.04-.34-.02s-.18-.17-.21-.31c-.02-.08-.03-.16-.04-.24,0-.05-.04-.07-.09-.06l-.42.05s-.06.03-.06.08v1.12ZM161.5,73.87c0-.05-.02-.08-.06-.08h-3.6s-.07.03-.07.08v.53s.02.06.07.06h3.6s.06-.02.06-.06v-.53ZM158.95,78.56c0-.05-.02-.08-.07-.08h-.17s-.07.03-.07.08v.91c0,.05.02.08.07.08h.17s.07-.03.07-.08v-.91ZM160.21,79.47c0,.05.02.08.07.08h.19s.07-.03.07-.08v-.91c0-.05-.02-.08-.07-.08h-.19s-.07.03-.07.08v.91ZM162.08,79.55s.06-.03.06-.08v-.91c0-.05-.02-.08-.06-.08h-.19s-.06.03-.06.08v.91c0,.05.02.08.06.08h.19ZM161.83,82.05c0,.05.02.08.06.08h.15c.07,0,.1-.06.1-.17v-.71c0-.05-.02-.08-.06-.08h-.19s-.06.03-.06.08v.8Z"/>
      </g>
      <path class="cls-3" d="M137.29-150.09c-.5-3.38-2.42-6.13-5.04-7.8-1.12-.71-1.85-1.91-1.91-3.23-.06-1.37-.32-2.77-.82-4.15-1.98-5.51-7.3-9.12-13.03-9.12-.71,0-1.42.06-2.13.17-3.17.5-5.89,2.02-7.91,4.16-.65.68-1.55,1.06-2.48,1.06-.24,0-.49-.03-.73-.08-.84-.18-1.7-.28-2.58-.28-1.26,0-2.55.2-3.83.61-5.48,1.78-9.02,7.29-8.36,13.01.26,2.22,1.07,4.2,2.28,5.85.64.87.62,2.03.09,2.97-.94,1.66-1.24,3.69-.63,5.69.14.46.32.9.55,1.31,1.23,2.26,3.65,3.76,6.28,3.81.05,0,.1,0,.15,0,.62,0,1.2-.08,1.75-.22.17-.04.35-.07.52-.07.81,0,1.57.47,1.99,1.19,2.34,3.96,6.65,6.45,11.3,6.45.97,0,1.95-.11,2.93-.33,3.84-.88,6.9-3.36,8.64-6.58.52-.96,1.47-1.64,2.56-1.69,1.31-.07,2.65-.38,3.97-.98.92-.42,1.77-.96,2.52-1.59,2.92-2.44,4.48-6.3,3.91-10.17Z"/>
      <g class="cls-5">
        <g>
          <g>
            <path class="cls-7" d="M167.34-44.72c-8.57-5.68-15-15.22-16.18-24.54-1.82-13.29,4.18-26.36,12-37.07.64-.86,1.29-1.39,2.14-1.39l6.21.11c1.18,0,2.04-.86,2.14-1.93.21-1.93.21-5.36,0-7.39-.11-1.07-.86-1.93-2.14-1.93-2.14.11-8.57.21-12.86.21h-19.93c-2.36,0-8.25-.11-11.46-.21-1.18-.11-1.93.86-2.04,1.93-.21,2.04-.11,5.57.11,7.5.11,1.07.86,1.93,1.93,1.93,3.21-.11,9.11-.21,11.46-.21h10.5c.96,0,1.61.86,1.18,1.5-6.97,10.5-12.43,24-10.82,38.04,1.39,12.75,8.14,24.54,18.22,31.5,1.07.75,2.46.54,3.64-.11,1.71-1.07,4.72-3.75,6.11-5.25.86-.86.75-2.14-.21-2.68Z"/>
            <path class="cls-7" d="M167.55-86.18c-.54-.86-1.61-1.07-2.46-.75-1.29.43-2.57,1.07-3.86,1.82-.96.54-1.29,1.61-.75,2.57,1.61,2.36,4.07,6.64,5.79,10.29.43.96,1.71,1.39,2.57,1.07,1.18-.43,2.36-1.07,3.64-1.71.86-.43,1.29-1.5.86-2.46-1.18-2.89-3.54-7.5-5.79-10.82Z"/>
            <path class="cls-7" d="M179.02-91.97c-.64-.96-1.5-1.07-2.46-.75-1.18.43-2.46.96-3.75,1.71-.96.54-1.29,1.5-.75,2.36,1.61,2.46,4.18,6.96,6,10.71.32.64,1.18,1.18,2.36.86,1.39-.43,2.89-1.07,3.86-1.71.86-.54,1.07-1.29.75-2.14-1.39-3.54-3.96-8.14-6-11.04Z"/>
          </g>
          <path class="cls-7" d="M113.34-304.04h.01c.4,0,.79-.15,1.09-.4v3.86c0,.96.78,1.73,1.73,1.73h6.36c.56,0,1.01.45,1.01,1.01v5.96c0,.56-.45,1.01-1.01,1.01h-11.03c-.96,0-1.73.78-1.73,1.73v6.15c0,.96.78,1.73,1.73,1.73h11.03c.56,0,1.01.45,1.01,1.01v14.06l-4.75-12.14c-.18-.46-.54-.82-1-.99-.46-.17-.97-.14-1.41.08l-5.18,2.69c-.79.41-1.14,1.35-.81,2.18l5.43,13.65c.18.46.55.82,1.01.99.19.07.4.11.6.11.28,0,.56-.07.81-.2l5.09-2.69c.08-.04.15-.09.21-.14v2.02c0,.29-.2.54-.48.6l-12.27,2.76c-.9.2-1.48,1.08-1.33,1.99l1.09,6.25c.08.47.35.88.75,1.14.4.26.88.35,1.34.25l31.71-7.17c-.14.4-.14.86.05,1.28l2.59,5.87c.2.45.58.8,1.05.95.17.06.35.08.53.08.31,0,.61-.08.88-.24,5.55-3.28,10.82-7.03,15.66-11.14.33-.28.68-.27.86-.24.19.03.54.14.78.54,2.62,4.4,5.82,7.72,9.5,9.88.43.26.96.31,1.44.15l3.92-1.35c.43-.15.79-.47.99-.88l5.26-10.77c.39-.81.11-1.78-.66-2.24l-5.09-3.08c-.42-.25-.92-.32-1.39-.18-.47.14-.85.47-1.07.91l-2.61,5.39c-1.1-1.29-2.14-2.88-3.12-4.75-.36-.69-.25-1.54.28-2.12,3.73-4.11,6.47-7.92,8.14-11.33.38-.78.13-1.72-.6-2.21l-4.82-3.2,8.29-.84c.94-.1,1.63-.92,1.55-1.86l-.5-6.15c-.04-.46-.26-.89-.62-1.19-.36-.3-.82-.44-1.28-.39l-16.83,1.66c-.6.06-1.1-.35-1.17-.93-.16-1.28-.3-2.6-.44-3.95-.03-.29.05-.57.24-.8.18-.22.44-.36.73-.39l13.96-1.28c.94-.09,1.63-.9,1.57-1.84l-.42-6.15c-.03-.46-.25-.9-.6-1.2-.35-.3-.82-.46-1.28-.41l-14.04,1.2c-.29.03-.57-.07-.79-.25-.22-.19-.35-.45-.37-.75-.08-1.1-.14-2.21-.21-3.31-.03-.58.41-1.09.99-1.13l17.2-1.24c.94-.07,1.66-.88,1.6-1.82l-.33-6.15c-.03-.46-.24-.9-.58-1.21-.35-.31-.81-.46-1.27-.43l-4.84.35,1.98-2.95c.48-.72.36-1.68-.28-2.26l-8.26-7.4c-.37-.33-.86-.49-1.36-.43-.5.06-.94.33-1.22.74l-3.42,5c-.49.71-.38,1.68.27,2.26l6.05,5.49-5.8.42c-.28.02-.57-.07-.79-.27-.22-.2-.35-.46-.36-.76l-.19-4.43c-.13-3.01-.23-5.46-.28-7.36-.01-.47-.21-.92-.56-1.23-.35-.32-.82-.47-1.28-.45l-5.93.38c-.94.06-1.66.86-1.62,1.81l.55,12.09c.03.58-.41,1.07-.99,1.12l-9.9.75c-.75.06-1.35.58-1.54,1.27l-10.66-15.99c-.34-.5-.91-.79-1.51-.77l-4.59.19c-.6.02-1.14.35-1.43.87-5.32,9.34-10.72,17.21-16.51,24.06-.55.65-.54,1.6,0,2.24l4.17,4.9c.33.39.81.61,1.32.61ZM137.13-263.14l-3.53.8c-.25.06-.44-.05-.52-.12-.09-.07-.23-.22-.23-.48v-2.17c.19.3.47.54.83.67l3.45,1.31ZM144.43-264.23c-.29-.19-.62-.29-.96-.29-.13,0-.25.01-.38.04l-1.94.44,3.49-12.51c.24-.87-.23-1.79-1.08-2.09l-5.09-1.83c-.45-.16-.95-.13-1.38.09s-.74.61-.87,1.07l-3.36,11.98v-12.9c0-.56.45-1.01,1.01-1.01h9.45c.88,0,1.61-.66,1.72-1.5l.06.78c.04.47.26.9.62,1.19.36.3.83.44,1.29.39l10.78-1.16c.55-.07,1.06.32,1.16.86.85,4.37,1.76,8.08,2.78,11.35.22.71,0,1.5-.55,2-4.41,3.97-9.42,7.64-14.89,10.93.02-.17.02-.34-.01-.51l-1.08-6.15c-.08-.47-.35-.88-.75-1.14ZM174.3-282.87c-.81,1.68-2.15,3.67-3.99,5.93-.18.22-.41.21-.53.18-.15-.03-.33-.12-.39-.38-.34-1.36-.66-2.81-.96-4.29-.08-.41.08-.72.19-.86.1-.14.34-.39.75-.43l5.17-.53c-.1.11-.18.24-.25.38ZM143.41-312.26c.35.31.8.47,1.28.42l9.68-.74c.29-.02.57.07.79.26.22.19.35.45.36.74.07,1.14.14,2.3.22,3.48.04.58-.39,1.09-.97,1.14l-8.62.8c-.94.09-1.63.9-1.57,1.84l.42,6.15c.03.47.25.9.61,1.2.35.3.82.45,1.28.41l8.66-.8c.57-.05,1.1.38,1.16.96.15,1.44.3,2.82.46,4.16.03.28-.05.56-.22.78-.18.23-.44.37-.73.4l-10.08,1.05c-.45.05-.84.26-1.12.57-.14-.82-.85-1.45-1.71-1.45h-9.45c-.56,0-1.01-.45-1.01-1.01v-5.96c0-.56.45-1.01,1.01-1.01h5.52c.96,0,1.73-.78,1.73-1.73v-6.35c0-.96-.78-1.73-1.73-1.73h-21.52c3.6-4.66,7.18-9.82,10.71-15.43l8.36,12.73c.28.43.74.71,1.24.77.51.06,1.02-.11,1.39-.46l3.23-3.03.03.61c.03.46.24.9.59,1.21Z"/>
          <g>
            <path class="cls-7" d="M186.38-193.76h-58.85c-.96,0-1.73.78-1.73,1.73v6.44c0,.96.78,1.73,1.73,1.73h4.48c1.29,0,1.79.98,1.91,1.29.12.31.45,1.38-.5,2.28-2.35,2.24-4.95,4.44-7.76,6.56l1.38-5.47c.22-.88-.27-1.78-1.13-2.06l-5.76-1.92c-.46-.15-.96-.11-1.38.12-.42.23-.73.63-.85,1.1l-8.85,35.19c-.22.88.27,1.78,1.13,2.06l5.76,1.92c.18.06.36.09.55.09.29,0,.57-.07.83-.21.42-.23.73-.63.85-1.1l6.24-24.81,2.17,3.89c.24.43.66.74,1.15.85.49.1,1,0,1.39-.3l.3-.22c2.42-1.79,5.17-3.81,7.68-5.94,1.13-.96,2.54-1.48,3.96-1.48h2.21c.27,0,.39.17.45.31.05.14.08.34-.12.52-4.54,4.18-9.24,7.74-13.97,10.57-.75.45-1.05,1.39-.7,2.19l2.5,5.67c.2.45.58.8,1.05.95.47.15.98.09,1.41-.15,8.69-5.1,16.39-11.54,22.9-19.16.48-.57,1.21-.89,1.98-.89h2.34c.24,0,.37.14.43.26.06.12.1.31-.05.51-5.81,7.64-13.16,14.09-21.83,19.17-.76.45-1.07,1.4-.71,2.2l2.59,5.77c.2.45.58.79,1.05.94.47.15.98.1,1.4-.15,12.3-7.14,22.8-17.17,28.81-27.54.42-.72,1.19-1.17,2.02-1.17.21,0,.35.12.41.19.06.07.16.21.14.42-.55,5.04-1.33,9.31-2.31,12.69-.81,2.81-3.41,4.77-6.33,4.77h-3.07c-.96,0-1.73.78-1.73,1.73v6.73c0,.46.18.9.51,1.23.33.33.77.48,1.23.5l4.39-.04c6.09-.05,11.46-3.91,13.38-9.59,2.88-8.55,3.9-19.36,3.9-26.62,0-.96-.78-1.73-1.73-1.73h-34.47c-.47,0-.68-.33-.75-.47-.07-.14-.2-.51.14-.94.39-.51.98-.8,1.62-.8h36.22c.96,0,1.73-.78,1.73-1.73v-6.35c0-.96-.78-1.73-1.73-1.73Z"/>
            <path class="cls-7" d="M136.79-195.48h41.07c.96,0,1.73-.78,1.73-1.73v-31.54c0-.96-.78-1.73-1.73-1.73h-41.07c-.96,0-1.73.78-1.73,1.73v31.54c0,.96.78,1.73,1.73,1.73ZM146.15-220.77h22.51c.85,0,1.54.69,1.54,1.54v.1c0,.85-.69,1.54-1.54,1.54h-22.51c-.85,0-1.54-.69-1.54-1.63,0-.85.69-1.54,1.54-1.54ZM146.15-208.18h22.51c.85,0,1.54.69,1.54,1.54s-.69,1.54-1.54,1.54h-22.51c-.85,0-1.54-.69-1.54-1.54s.69-1.54,1.54-1.54Z"/>
            <path class="cls-7" d="M124.19-212.36c.32.38.79.61,1.3.62.01,0,.02,0,.03,0,.49,0,.96-.21,1.29-.57l4.26-4.71c.58-.64.6-1.6.05-2.27l-10.77-12.98c-.32-.38-.79-.61-1.29-.62-.49.02-.98.19-1.32.56l-4.34,4.71c-.59.64-.61,1.62-.06,2.29l10.85,12.98Z"/>
            <path class="cls-7" d="M119.99-189.91s.02,0,.03,0c.5,0,.97-.21,1.3-.58l4.26-4.81c.57-.64.58-1.61.03-2.26l-9.85-11.73c-.32-.38-.79-.61-1.29-.62-.5-.04-.98.2-1.32.57l-4.26,4.71c-.58.64-.6,1.61-.05,2.27l9.85,11.83c.32.39.8.62,1.3.62Z"/>
          </g>
        </g>
        <g>
          <g>
            <path class="cls-8" d="M165.31-46.63c-.2-.13-.43-.23-.63-.36s-.23-.51-.43-.65-.42-.23-.61-.38-.38-.29-.57-.44-.4-.27-.58-.42-.47-.18-.66-.34-.2-.5-.38-.66-.4-.27-.58-.43-.45-.22-.63-.38-.35-.33-.52-.5-.4-.28-.57-.45-.35-.33-.52-.51-.29-.39-.45-.57-.21-.46-.37-.64-.46-.24-.61-.42-.14-.51-.3-.69-.35-.33-.5-.52-.23-.43-.37-.62-.47-.25-.62-.44-.23-.43-.37-.62-.33-.36-.46-.56-.05-.54-.18-.75-.43-.3-.56-.5-.32-.37-.44-.58-.18-.45-.3-.66-.07-.51-.18-.72-.34-.36-.45-.57-.25-.41-.35-.63-.24-.42-.34-.64-.13-.47-.23-.69-.06-.5-.15-.72-.24-.42-.33-.64-.29-.4-.37-.63-.14-.46-.22-.69-.22-.43-.29-.66-.07-.48-.13-.71-.04-.49-.1-.72-.2-.44-.25-.68-.03-.48-.08-.72-.19-.45-.24-.69,0-.49-.03-.72-.12-.47-.15-.7c-.03-.24-.13-.47-.16-.71s.09-.5.06-.74-.02-.48-.04-.72-.11-.48-.12-.72-.22-.48-.23-.72.28-.49.27-.73-.14-.48-.14-.72-.12-.49-.11-.73.29-.47.3-.72-.2-.49-.19-.74.23-.47.25-.71.02-.48.04-.72.08-.48.11-.72-.22-.52-.19-.76.23-.46.26-.7-.09-.51-.05-.75.13-.47.17-.71.26-.44.31-.68.12-.47.17-.7.18-.45.23-.69-.11-.53-.05-.76.13-.47.2-.7.17-.45.24-.69.3-.41.37-.65-.01-.51.06-.74.13-.47.2-.7.28-.42.36-.64.09-.48.17-.71.27-.41.36-.64.04-.5.13-.73.23-.43.32-.65.08-.49.17-.71.22-.43.32-.65.14-.47.24-.69.46-.32.56-.54.19-.45.29-.66.23-.42.34-.64.13-.48.24-.69.06-.51.18-.73.27-.41.39-.62.2-.44.31-.66.36-.36.48-.57.25-.41.38-.62.28-.4.4-.61.11-.5.23-.71.24-.42.37-.63.39-.33.52-.53.14-.48.27-.69.39-.32.53-.52.27-.4.41-.6.12-.51.25-.71.25-.42.39-.62.27-.4.41-.6.28-.4.42-.59.27-.41.41-.6c.14-.19.35-.32.49-.48.16-.17.44-.19.61-.31.18-.14.3-.38.5-.45s.44,0,.67,0c.34,0,.35-.07.69-.06s.35-.07.69-.07.34.09.69.09.34.05.69.05.34.02.69.03.35-.07.69-.06.34.17.69.17.35-.18.7-.17.35.11.69.12c.28,0,.58.01.81-.07.25-.09.36-.42.56-.6s.52-.26.63-.5.26-.51.29-.78c.03-.23-.25-.5-.23-.76.02-.23.29-.47.3-.72.01-.24-.04-.49-.03-.74s-.01-.49-.01-.74.14-.49.14-.74-.06-.5-.06-.74-.12-.5-.12-.74-.06-.5-.07-.74c-.01-.26-.1-.5-.11-.73-.02-.26.16-.52.14-.75-.03-.27-.25-.49-.36-.72s-.25-.43-.45-.61-.36-.39-.62-.48c-.23-.08-.5-.03-.79-.03-.2.01-.44.09-.71.1-.22,0-.47-.26-.72-.25-.22,0-.46.13-.71.14-.23,0-.47-.03-.71-.02-.23,0-.46.21-.71.22s-.48-.21-.72-.2-.47.22-.71.22-.47-.03-.71-.03-.48-.05-.72-.05-.48-.12-.71-.11-.48-.01-.72-.01-.48.19-.72.19-.48.05-.72.05-.48.02-.72.03-.48-.23-.72-.23-.48.15-.72.15-.48-.13-.71-.13-.48.1-.71.1c-.35,0-.35-.1-.71-.1s-.35.23-.71.23-.35-.25-.71-.25-.35.16-.71.16-.36.09-.71.09-.36,0-.71,0-.36-.21-.71-.21-.36.01-.71.01-.36.2-.71.2-.35-.03-.71-.03-.35-.27-.71-.27-.35.06-.71.06-.36.25-.71.25-.36-.29-.71-.29-.36.14-.71.14-.35.12-.71.12-.36-.21-.71-.21-.36.18-.71.18-.36.03-.71.03-.36.04-.71.04-.36-.05-.71-.05-.36-.09-.71-.09-.36-.16-.71-.16-.36.14-.71.14-.36-.11-.72-.11-.36.23-.72.23-.36-.09-.72-.09-.36-.15-.72-.15c-.21,0-.45.14-.72.13-.22,0-.46.02-.71.02-.23,0-.46-.06-.71-.07-.23,0-.47-.1-.71-.11s-.48.22-.72.22-.47-.18-.71-.19-.48.08-.72.07-.48.1-.72.1-.48-.17-.72-.18-.48-.1-.72-.11-.48-.04-.72-.05-.49.28-.73.27-.48-.25-.71-.25-.49.01-.72,0c-.25,0-.48-.06-.71-.07-.25,0-.5.21-.72.2-.28-.03-.48.05-.71.14-.25.09-.58.04-.76.23s-.11.53-.21.78-.34.43-.36.69c-.02.23.13.49.12.76-.01.24-.31.48-.32.74,0,.24.18.5.18.76s-.2.5-.2.75.27.5.27.75-.1.51-.09.76-.08.51-.07.76-.03.51-.02.76c.02.26,0,.52.02.75.02.27.26.5.28.73.03.26.09.48.19.71.1.24.2.45.37.63s.37.31.61.41.45.29.72.29c.23,0,.46-.18.71-.18.23,0,.47.04.72.03.23,0,.47.06.72.05s.47-.14.71-.14.47-.05.71-.05.47-.07.71-.08.48.28.72.28.47-.27.71-.27.48-.05.72-.06.48.07.72.06.48.1.72.09.49.04.72.04c.25,0,.48-.23.72-.24.25,0,.49.02.72.02.25,0,.49.1.72.1.26,0,.5.03.71.03.35,0,.35-.03.7-.03s.35.03.7.03.35.07.7.07.35-.22.7-.22.35.17.7.17.35-.18.7-.18.35.25.7.25.35-.11.7-.11.35,0,.7,0,.35.13.7.13.35-.02.7-.02.35-.18.7-.18.35.11.7.11.35-.07.7-.07.35.04.7.04c.28,0,.55.03.76.15.24.14.41.37.5.59.09.24.04.48-.12.72-.13.2-.3.38-.43.58s-.08.52-.21.72-.36.34-.49.54-.25.41-.38.61-.3.38-.43.58-.22.43-.34.63-.21.43-.33.64-.17.46-.28.66-.19.44-.31.65-.37.34-.49.55-.31.38-.42.59-.02.53-.13.74-.21.43-.32.65-.4.34-.5.56-.16.46-.27.67-.02.52-.13.74-.24.42-.34.64-.33.38-.43.6-.18.45-.27.67-.15.46-.24.68-.23.42-.32.65-.23.43-.31.65-.22.43-.3.66-.17.45-.25.68-.05.49-.13.72-.19.44-.27.67-.13.46-.2.69-.15.46-.22.69.05.52-.02.75-.29.42-.36.65-.03.49-.09.72-.35.41-.41.64.09.52.04.75-.16.45-.22.69-.27.43-.32.67-.07.48-.11.72-.03.48-.08.72-.12.47-.16.71.16.51.12.75-.34.44-.38.67.21.51.18.75-.14.47-.16.71-.1.47-.12.71.02.48,0,.72-.12.47-.14.71-.15.47-.16.71.19.49.18.73-.1.48-.1.72.16.48.16.72-.15.48-.14.72.13.48.14.72-.25.49-.24.73.06.48.07.72.24.47.26.71-.06.49-.04.73-.11.5-.08.74c.03.24.36.44.39.68s-.09.5-.05.73-.06.5-.02.73.11.47.15.71.3.43.34.67,0,.49.04.73.02.49.07.72.12.47.17.7.03.49.09.72.1.47.16.71.22.44.28.67.2.44.27.67.05.49.12.72.11.47.18.7.41.37.49.59.1.47.18.7.12.47.21.69.07.49.16.71.44.33.54.56.17.45.27.67-.03.54.07.76.17.45.27.67.22.43.33.64.49.29.6.5-.02.55.1.77.47.29.59.5.09.5.21.71.28.39.4.6.37.33.5.53.12.49.25.69.18.46.31.66.31.37.45.57.24.43.38.62.49.23.64.43.16.48.31.67.23.43.39.62.41.28.57.47.34.34.5.52.36.32.52.5.17.49.34.67.47.21.64.39.16.51.33.68.44.24.61.41.44.24.61.4.28.4.46.57.35.33.53.49.36.32.55.47.32.37.5.52.39.28.58.43.3.4.49.54.46.18.66.32.37.31.57.45c.22.15.45.33.69.4s.54-.1.8-.09.5.08.76.03.48-.15.72-.24.41-.28.64-.4c.19-.12.4-.22.61-.37.19-.13.54-.07.74-.23.19-.14.24-.47.44-.63s.35-.33.54-.49.44-.23.63-.39.38-.31.56-.47.33-.37.51-.54.39-.31.56-.47c.18-.17.32-.38.49-.55.18-.18.4-.31.56-.47.19-.19.46-.26.61-.43.2-.2.32-.47.42-.7.11-.25-.04-.53-.05-.78s.08-.55-.05-.77-.4-.3-.65-.44Z"/>
            <path class="cls-8" d="M165.55-88.16c-.13-.21-.26-.41-.44-.54s-.41-.23-.64-.3-.46-.05-.69-.04-.47.03-.68.11c-.22.07-.44.17-.66.25s-.43.2-.65.29-.45.16-.66.26-.42.21-.63.32-.41.24-.62.35-.41.24-.62.36c-.23.13-.41.29-.57.47-.17.2-.33.39-.4.63s-.08.5-.04.75c.03.24.11.48.24.71.13.19.27.39.41.61.13.2.29.39.42.6.13.2.22.44.35.65s.26.41.39.62.27.4.4.62.25.42.37.64.26.42.38.63.25.43.37.64.23.43.35.65.21.45.33.66.27.42.38.64.2.46.31.68.24.44.35.66.21.45.32.67.26.43.37.65.2.45.3.66c.1.23.27.42.45.59s.38.34.62.44.5.12.75.13c.26.02.51-.03.74-.12.21-.08.42-.14.63-.23s.42-.14.63-.24.39-.21.6-.31.39-.2.6-.3.39-.21.59-.31.41-.19.62-.29c.22-.11.43-.24.59-.42s.27-.41.35-.63.09-.47.08-.71c-.01-.23-.06-.47-.16-.7-.09-.21-.19-.43-.29-.66-.09-.21-.17-.44-.28-.67-.1-.21-.18-.44-.28-.66-.1-.21-.21-.42-.32-.64s-.19-.44-.3-.65-.23-.42-.34-.64-.2-.44-.31-.65-.23-.42-.34-.64-.24-.42-.35-.63-.21-.44-.32-.65-.23-.43-.35-.64-.25-.41-.37-.62-.28-.4-.4-.61-.2-.45-.33-.65-.28-.4-.41-.61-.28-.4-.41-.6-.26-.41-.4-.6Z"/>
            <path class="cls-8" d="M177.01-93.94c-.14-.22-.28-.4-.44-.54-.19-.16-.4-.28-.61-.34s-.46-.05-.7-.03c-.22.02-.46.05-.69.13-.21.08-.43.15-.64.23s-.41.21-.62.3-.44.13-.65.23-.4.23-.61.33-.41.2-.62.31-.4.23-.6.35c-.22.12-.43.23-.58.39-.17.18-.29.39-.36.6s-.07.46-.03.69c.03.22.08.45.21.66.12.19.26.39.4.6.12.19.27.39.4.6.12.2.22.42.34.63s.25.4.38.62.26.4.38.61.24.41.37.62.25.41.37.62.19.44.31.66.24.41.36.62.23.42.35.63.24.42.35.63.26.41.37.63.19.45.3.67.24.43.35.64.25.42.36.63.22.44.33.65.23.42.33.63c.1.19.23.36.42.51.17.14.35.26.58.33.2.07.42.13.66.13.21,0,.43-.07.67-.13.22-.07.46-.1.68-.18s.44-.17.66-.26.45-.16.66-.25.42-.23.62-.33c.22-.11.43-.2.63-.31.22-.12.41-.25.59-.37.27-.17.5-.32.65-.52.17-.24.22-.51.24-.79.02-.26-.05-.52-.15-.8-.09-.22-.17-.46-.27-.69s-.16-.46-.26-.69-.22-.44-.33-.66-.21-.44-.32-.66-.22-.44-.33-.66-.21-.45-.32-.67-.2-.45-.31-.67-.24-.43-.36-.65-.26-.43-.38-.64-.24-.44-.36-.65-.26-.43-.38-.64-.24-.44-.36-.65-.24-.44-.37-.64-.27-.41-.4-.62-.25-.43-.39-.63-.29-.41-.42-.6c-.14-.21-.3-.4-.44-.59Z"/>
          </g>
          <path class="cls-8" d="M111.35-306.1s0,.14.01.14c.2,0,.35-.22.54-.28s.49-.07.64-.2c.09.37-.26.4-.26.79s.06.39.06.77.07.39.07.77.19.39.19.77-.17.39-.17.77c0,.23.03.48.12.68s.35.29.51.45.29.31.5.4.4.37.64.37c.35,0,.35-.12.7-.12s.35-.02.71-.02.35-.18.7-.18.35.28.7.28.35-.16.7-.16.35-.07.71-.07.35.03.71.03.35-.04.71-.04.35.23.71.23c.28,0,.55-.03.73.15s.3.46.3.73c0,.37.05.37.05.74s-.13.37-.13.74-.07.37-.07.74.19.37.19.74-.07.37-.07.74.11.37.11.75.02.37.02.75.04.37.04.75c0,.28-.32.48-.51.66s-.39.26-.66.26c-.37,0-.37.08-.73.08s-.37-.15-.73-.15-.37.12-.73.12-.37.07-.73.07-.37.03-.74.03-.37-.08-.73-.08-.37-.02-.73-.02-.37-.07-.74-.07-.37.25-.74.25-.37-.29-.73-.29-.37.1-.73.1-.37-.01-.74-.01-.37.21-.74.21-.37-.32-.74-.32-.37.17-.74.17c-.23,0-.44.11-.64.19s-.52.07-.68.23-.19.44-.28.66-.12.43-.12.66c0,.34-.1.34-.1.68s-.05.34-.05.68.01.34.01.68.05.34.05.68-.08.34-.08.68.23.34.23.68-.1.34-.1.69-.1.34-.1.69.24.34.24.69c0,.23.09.39.17.6s.06.47.22.63.39.19.6.27.39.27.62.27c.37,0,.37-.18.73-.18s.37.24.73.24.37-.15.73-.15.37.22.73.22.37-.22.74-.22.37.21.73.21.37-.17.73-.17.37-.04.74-.04.37.17.74.17.37-.12.73-.12.37.02.73.02.37.07.74.07.37-.05.74-.05.37-.22.74-.22.37.05.74.05c.28,0,.55.21.74.4s.26.46.26.74c0,.35-.09.35-.09.7s.09.35.09.7.17.35.17.7-.16.35-.16.7-.1.35-.1.7.2.35.2.7.05.35.05.7-.31.35-.31.7.07.35.07.7.03.35.03.7.16.35.16.7.07.35.07.7-.2.35-.2.71-.05.35-.05.7.22.35.22.7-.02.35-.02.7-.15.35-.15.71.14.35.14.71-.13.35-.13.71.38.66.03.72-.21-.31-.34-.65.03-.4-.1-.73-.26-.29-.39-.62-.04-.37-.17-.71-.11-.35-.24-.68-.16-.32-.29-.66-.03-.38-.16-.71-.37-.24-.51-.58.07-.41-.07-.75-.2-.31-.33-.65-.18-.32-.32-.66-.19-.31-.33-.65-.13-.34-.26-.68.1-.43-.03-.77-.27-.28-.4-.62-.15-.33-.28-.67-.21-.31-.34-.65.04-.41-.1-.75c-.09-.23-.29-.43-.46-.59s-.43-.21-.66-.29c-.23-.09-.44-.09-.68-.08s-.56-.17-.78-.06c-.32.17-.26.3-.58.47s-.26.28-.59.45-.37.08-.69.25-.4.02-.72.18-.18.45-.5.62-.38.06-.71.23-.36.1-.69.26-.24.34-.56.51c-.19.1-.41.13-.54.29s-.15.37-.23.57-.21.37-.21.58.04.41.12.62c.13.34.14.34.27.68s.27.28.4.62,0,.39.13.73.06.37.2.71.28.28.41.62-.01.4.12.74.09.36.23.7.36.25.49.59-.13.44,0,.79.35.26.49.6.11.35.24.69.2.32.33.66-.12.44.02.79.2.32.33.66.34.26.47.6-.03.41.1.75.2.32.34.66.27.29.4.63-.06.42.07.77.17.33.31.67c.09.23.3.37.47.54s.36.26.59.35c.19.07.37.05.57.05.28,0,.63.22.89.09.32-.17.29-.23.6-.4s.32-.17.63-.34.3-.2.62-.37.24-.32.55-.49.45.08.77-.09.29-.23.61-.4.25-.31.57-.48.32-.17.64-.34c.08-.04.32-.05.39-.1.04.33.02.35.02.69s-.06.34-.06.67-.16.34-.16.67c0,.29-.11.68-.39.74-.36.08-.41-.15-.77-.07s-.35.15-.7.23-.38,0-.74.07-.3.33-.66.41-.37.01-.73.09-.34.15-.7.23-.42-.2-.79-.12-.31.3-.67.38-.34.17-.7.25-.38,0-.74.08-.41-.13-.77-.04-.33.22-.69.3-.35.11-.71.2-.35.12-.72.2-.38,0-.74.08-.4-.08-.76,0-.35.15-.71.23c-.22.05-.39.27-.56.39s-.35.26-.47.45-.13.4-.18.62-.14.42-.1.64c.06.35-.04.36.02.71s.15.33.21.68-.03.36.03.71.17.33.23.67-.04.36.02.71.11.34.17.69.13.34.19.68-.09.38-.03.72.04.35.1.7c.04.23.22.47.35.66s.44.2.63.33c.2.13.3.51.53.55s.5-.11.73-.16c.35-.08.32-.21.67-.29s.42.21.77.14.3-.32.65-.4.4.14.75.06.35-.11.7-.19.36-.05.71-.13.28-.38.63-.46.39.09.74.01.31-.26.66-.34.36-.03.71-.11.39.11.74.03.36-.06.71-.14.37,0,.72-.08.3-.33.65-.41.35-.07.71-.15.36-.03.72-.11.39.1.75.02.31-.26.66-.34.35-.11.7-.19.38.06.73-.02.33-.17.68-.25.38.04.73-.04.32-.23.67-.31.36-.03.72-.11.32-.21.68-.28.36-.04.71-.12.33-.15.68-.22.42.22.77.14.35-.11.7-.18.36-.06.71-.14.33-.19.68-.27.31-.27.66-.35.36-.03.72-.11.34-.12.7-.2.39.07.74-.01.36-.06.71-.14.36-.04.72-.12.31-.26.67-.34.35-.09.7-.17.39.09.75.01.32-.23.67-.31.39.09.75,0,.36-.07.71-.15.31-.28.67-.36.38-.22.75-.2c-.07.2.03.56.04.78s.04.37.13.58c.14.32.16.32.31.64s.07.36.21.68-.04.41.1.73.3.25.45.58.03.37.17.7.22.29.36.62.22.29.37.62.06.36.21.69.1.35.25.67c.1.23.24.44.42.61s.43.22.67.29c.17.06.34.26.52.26.31,0,.57-.28.84-.43.2-.12.47-.14.67-.27s.45-.18.65-.3.27-.46.48-.59.53-.05.73-.18.44-.19.64-.32.23-.53.43-.66.55-.02.75-.15.36-.31.56-.44.38-.29.58-.42.48-.14.67-.28.36-.32.55-.45.32-.37.52-.5.36-.31.56-.45.34-.34.54-.48.52-.1.71-.24.28-.43.47-.57.38-.28.57-.43.45-.2.64-.34.32-.37.51-.51.33-.35.52-.49.56-.05.75-.2.3-.39.48-.54.4-.26.58-.41.23-.47.41-.62.52-.12.7-.27.22-.48.4-.63.39-.27.57-.43c.33-.28.75-.22.93-.19.19.03.44.23.68.62.13.21.23.43.36.64s.43.3.57.51.31.38.45.58.29.39.43.58.08.55.22.74.42.3.57.49.19.47.35.66.39.31.55.49.25.44.41.62.52.18.68.36.15.54.32.71.47.21.65.37.42.25.61.41.37.31.56.46.23.49.42.64.39.29.59.43.52.1.72.24.38.3.58.42.26.51.46.64c.22.13.53.16.78.19s.45-.27.69-.35c.33-.11.43.19.75.08s.27-.26.6-.37.29-.23.61-.34.4.11.73,0,.26-.3.59-.42.32-.14.65-.26c.22-.07.34-.19.51-.34s.32-.25.42-.46c.15-.31.24-.27.39-.59s.32-.24.47-.55.01-.39.17-.7.27-.26.42-.58-.07-.43.08-.74.25-.27.4-.59.3-.25.46-.56.02-.38.17-.7.13-.33.28-.65.21-.29.37-.61.25-.27.41-.59-.07-.43.08-.74.33-.23.48-.55.07-.36.23-.68.05-.37.2-.69.32-.24.47-.56.25-.27.4-.59c.1-.2.2-.45.22-.66s-.31-.4-.37-.61.07-.51-.06-.68-.33-.31-.52-.43c-.32-.19-.29-.24-.61-.43s-.44.02-.76-.17-.35-.14-.66-.33-.18-.41-.5-.6-.46.04-.78-.15-.21-.37-.53-.56-.42-.03-.74-.22-.16-.46-.48-.65c-.21-.13-.52-.01-.76-.04s-.51-.22-.74-.15c-.23.07-.31.43-.49.59s-.4.24-.51.46c-.16.34-.26.29-.43.62s-.22.31-.38.64-.19.32-.36.66.05.44-.11.77-.15.34-.32.68-.2.32-.36.66-.15.34-.32.68-.19.3-.45.57c-.15-.18-.25-.24-.4-.43s-.24-.41-.39-.6-.21-.42-.35-.62-.38-.31-.51-.51-.29-.38-.41-.58-.3-.37-.42-.58.05-.57-.07-.78-.48-.28-.59-.5c-.12-.23-.25-.52-.26-.77s.1-.55.19-.79.31-.41.49-.6c.17-.18.37-.33.54-.51s.14-.53.3-.72.35-.35.51-.53.41-.3.56-.49.35-.35.5-.54.29-.4.45-.59.34-.37.49-.56.37-.34.52-.54.11-.54.25-.74.44-.29.58-.48.13-.51.27-.71.51-.25.65-.45.18-.48.31-.68.28-.41.41-.62.38-.35.51-.55.24-.43.36-.64.07-.53.19-.74.34-.37.46-.58.15-.47.26-.69c.13-.26.22-.52.21-.79s-.13-.53-.26-.78-.29-.46-.53-.62c-.3-.2-.27-.24-.57-.44s-.27-.24-.57-.44-.43,0-.73-.21-.22-.31-.52-.51-.3-.2-.6-.4-.26-.26-.57-.46-.32-.17-.62-.38-.69,0-.62-.37.33-.12.67-.16.34-.08.69-.12.36.14.71.11.36.07.7.03.32-.28.67-.32.34-.05.69-.08.37.19.71.15.34-.09.68-.13.32-.25.67-.29.35,0,.7-.03.36.13.71.09.35-.05.69-.09c.23-.02.43-.13.63-.24s.41-.21.56-.38.32-.36.38-.58.15-.47.13-.7c-.03-.34-.03-.34-.05-.68s-.15-.33-.18-.67.01-.34-.02-.69-.05-.34-.08-.68-.03-.34-.05-.68-.25-.32-.27-.67.15-.36.12-.7-.14-.33-.17-.68.23-.36.2-.71c-.02-.23-.31-.4-.41-.6s-.19-.4-.37-.55c-.18-.15-.32-.43-.54-.5s-.51-.06-.74-.04c-.37.04-.36.1-.72.14s-.37,0-.73.04-.34.3-.7.33-.39-.27-.76-.23-.33.33-.7.37-.37-.05-.73-.02-.37-.02-.73.01-.36.1-.72.14-.38-.06-.74-.02-.38-.1-.74-.06-.34.27-.71.3-.37-.06-.74-.02-.35.22-.72.25-.38-.13-.75-.09-.35.17-.72.21-.4-.26-.76-.22-.36.07-.73.11-.34.26-.71.3-.38-.08-.74-.04-.38-.14-.75-.1-.33.38-.7.41-.39-.13-.75-.09-.38-.11-.75-.07c-.3.03-.5,0-.7-.17s-.56-.32-.59-.61c-.03-.22.06-.45.03-.67s.04-.45.01-.67-.06-.44-.09-.66.05-.45.02-.67-.02-.44-.05-.66-.15-.43-.17-.66c-.03-.29-.02-.57.17-.79.18-.22.46-.25.74-.28.36-.03.37.02.73-.01s.34-.32.7-.35.37.04.74,0,.37.03.74,0,.38.1.75.06.34-.34.7-.38.37-.01.73-.04.39.24.76.21.37.01.74-.02.37-.05.73-.08.34-.37.7-.4.4.27.76.23.34-.33.71-.37.39.16.75.12.36-.07.73-.11.35-.19.72-.23.39.15.76.11.38.08.75.05.37-.09.74-.12c.23-.02.5-.04.69-.14s.2-.46.35-.63.4-.26.47-.47.19-.45.18-.68c-.02-.34-.18-.33-.2-.67s-.07-.34-.09-.68-.09-.34-.11-.68.2-.36.18-.7-.24-.33-.26-.67.24-.36.22-.7-.17-.33-.2-.68-.17-.33-.19-.68.1-.35.07-.7c-.02-.23-.06-.44-.16-.65s-.23-.38-.41-.53c-.18-.15-.34-.35-.56-.42s-.47-.07-.7-.05c-.35.03-.36-.12-.71-.09s-.34.17-.68.2-.35-.01-.7.02-.35-.03-.7,0-.33.28-.68.31-.36-.07-.71-.04-.35.07-.7.1-.34.14-.69.17-.35,0-.7.03-.38-.25-.73-.22-.33.27-.68.3-.35.07-.7.1-.36-.08-.71-.05-.35.02-.7.05-.35.1-.7.13-.35,0-.7.02-.35.09-.7.12-.36-.04-.71,0-.37-.13-.72-.1-.35.08-.7.11c-.29.03-.66.11-.88-.07-.22-.19-.2-.57-.23-.86-.02-.22-.03-.44-.04-.66s-.24-.43-.26-.65.13-.45.12-.67-.1-.44-.12-.66-.07-.44-.08-.66c-.02-.29.3-.49.48-.7s.34-.53.63-.55c.36-.03.36.03.72,0s.36-.04.72-.06.37.19.73.17.35-.18.7-.21.36-.02.72-.05.35-.15.7-.17.36.08.72.06.35-.06.71-.09.36-.02.72-.05.37.1.73.07.35-.1.71-.13.37.09.72.06.35-.16.71-.18.36-.03.72-.06.35-.13.71-.15.37.07.72.04.37.15.73.12.35-.14.71-.16.36,0,.72-.02.37.07.72.04.35-.23.71-.25.37.14.73.11.36,0,.72-.03.35-.12.72-.15c.23-.02.43-.16.63-.26s.4-.21.54-.38.28-.36.36-.57.14-.44.13-.67c-.02-.34.04-.34.02-.68s-.1-.34-.11-.68.07-.35.05-.69-.22-.33-.24-.67.05-.34.03-.68-.03-.34-.04-.68.16-.35.15-.7-.14-.34-.16-.68-.04-.34-.06-.69c-.01-.23-.05-.47-.15-.68s-.23-.43-.4-.58c-.17-.15-.45-.14-.67-.21s-.42-.12-.65-.1c-.34.02-.34.13-.68.16s-.34.04-.69.06-.36-.17-.7-.15-.33.21-.68.24-.36-.1-.7-.07-.35.01-.7.04-.43.27-.6-.03.13-.22.33-.51.02-.42.21-.71.35-.19.55-.48.24-.27.44-.56.04-.4.24-.7c.16-.24.21-.44.24-.71s.08-.51-.02-.77-.15-.55-.36-.74c-.28-.25-.31-.21-.58-.46s-.16-.37-.44-.62-.46-.04-.73-.29-.21-.31-.49-.56-.37-.14-.65-.39-.25-.28-.52-.53-.25-.27-.53-.52-.26-.26-.54-.51-.31-.2-.58-.45-.15-.39-.42-.64-.26-.27-.53-.51-.24-.29-.52-.54-.49,0-.77-.26-.22-.31-.5-.56-.12-.42-.4-.67c-.19-.17-.5-.18-.73-.26s-.5-.23-.75-.2c-.25.03-.52.16-.73.29s-.47.29-.62.5c-.21.31.04.48-.18.8s-.45.15-.67.46-.07.41-.28.72-.2.32-.41.63-.32.24-.54.55,0,.46-.21.78-.36.21-.58.53-.18.34-.39.65c-.16.24-.16.49-.19.76s-.18.56-.09.82.21.56.43.75c.27.25.41.1.69.35s.21.32.48.57.17.36.45.61.44.07.71.32.27.25.54.5.26.27.53.52.23.3.5.55.2.33.48.58.43.08.71.33.1.45.38.7.63-.03.52.33-.21.11-.57.13-.36.08-.72.1-.36,0-.72.02-.37-.11-.73-.09-.36.11-.72.14-.37-.01-.73.01-.36.07-.72.1-.37,0-.73.03c-.28.02-.69.09-.91-.11-.22-.2-.22-.6-.23-.89-.02-.37.03-.37.01-.74s.07-.37.05-.74-.3-.36-.32-.73.23-.38.22-.75-.2-.36-.21-.73.08-.37.06-.75c-.01-.25.04-.5.03-.74s-.11-.49-.12-.74-.05-.49-.06-.74-.02-.49-.03-.73,0-.5,0-.74-.02-.5-.03-.74.07-.5.07-.74c0-.25.01-.5,0-.74,0-.25-.17-.49-.18-.73,0-.25.16-.5.16-.74,0-.24-.3-.42-.4-.63s-.17-.4-.35-.56c-.17-.16-.31-.39-.53-.46s-.47.11-.7.12c-.37.02-.38-.18-.75-.16s-.36.22-.73.24-.38-.1-.75-.08-.36.19-.73.21-.37-.03-.74,0-.39-.24-.76-.22-.37.07-.74.1-.37.08-.74.11c-.23.02-.45.11-.64.2s-.49.14-.64.31-.12.47-.19.69-.18.42-.17.65c.02.35.01.35.03.71s.19.35.21.7-.28.37-.26.72.16.35.18.7.12.35.13.7-.09.36-.07.71-.08.36-.06.72.03.35.05.71-.06.36-.04.71.21.35.22.7-.02.36,0,.71-.08.36-.07.72.15.35.17.7.14.35.15.71-.21.37-.2.73.03.36.05.72.23.35.25.71c.01.29-.33.49-.51.69s-.36.3-.65.32c-.35.03-.34.19-.69.22s-.36-.08-.71-.06-.34.23-.69.26-.36-.06-.71-.03-.35.05-.7.07-.37-.22-.72-.19-.33.31-.69.33-.36-.1-.72-.07-.36-.08-.71-.05-.35.08-.7.11-.35.13-.7.16-.35.1-.7.13-.37-.18-.73-.15-.36,0-.71.03c-.24.02-.44.25-.64.36s-.46.19-.61.37-.16.35-.22.58c-.28-.22-.3-.19-.5-.48s-.19-.3-.39-.59-.15-.32-.35-.62-.11-.35-.31-.65-.28-.24-.48-.53-.33-.21-.53-.5-.08-.37-.27-.67-.27-.25-.46-.54-.1-.36-.29-.65-.17-.31-.37-.6-.32-.21-.52-.5-.25-.26-.45-.56-.08-.38-.28-.67-.06-.38-.26-.68-.36-.19-.56-.48-.08-.38-.27-.67-.4-.16-.6-.46-.17-.32-.36-.61-.23-.28-.43-.57-.21-.29-.4-.59-.01-.42-.21-.71-.17-.32-.36-.62-.3-.23-.5-.52-.2-.3-.4-.6-.05-.39-.25-.69-.35-.2-.55-.5-.26-.26-.46-.56c-.17-.25-.35-.43-.61-.57s-.52-.24-.82-.23c-.38.02-.39-.09-.77-.08s-.38-.07-.76-.05-.38.03-.76.05-.37.29-.75.3-.39-.06-.77-.04-.38.04-.77.06c-.3.01-.5.16-.75.31s-.47.27-.61.53c-.12.21-.26.4-.38.61s-.16.46-.28.67-.28.39-.4.6-.23.42-.35.62-.36.34-.49.54-.29.38-.41.59-.12.48-.24.69-.22.42-.35.62-.18.45-.31.65-.47.27-.59.47-.12.48-.25.69-.44.29-.56.49-.18.45-.31.65-.17.46-.29.66-.17.46-.29.66-.41.3-.54.5-.17.46-.3.66-.23.42-.36.62-.47.26-.61.45-.02.56-.15.76-.38.32-.51.52-.43.28-.57.48-.06.54-.19.73-.48.24-.62.44-.25.4-.39.6-.25.41-.39.6-.2.44-.34.63-.15.48-.29.68-.5.23-.64.42-.07.54-.21.73-.44.27-.58.45-.3.37-.45.55-.26.4-.4.59-.15.48-.3.67-.32.35-.47.54-.5.21-.65.39-.22.43-.37.61-.21.44-.36.62-.28.38-.43.56-.38.29-.54.47-.16.48-.31.66c-.18.21-.36.37-.42.63s-.04.5.03.77-.04.64.14.86c.23.27.26.25.49.52s.32.19.55.46.15.34.38.61.36.17.59.44.09.39.32.66.31.21.54.48.18.32.42.59.24.27.48.54.22.29.45.56c.16.19.47.25.69.36s.47.09.72.09ZM135.22-265.12c0,.36-.44.02-.79.1s-.31.26-.66.34-.36.04-.71.12-.41-.18-.77-.1-.34.13-.7.21c-.25.06-.38.03-.46-.04-.09-.07-.4-.18-.4-.44,0-.36.17-.36.17-.72s.02-.36.02-.72-.24-.39-.18-.75c.1.15.4.25.54.37s.19.42.36.49c.34.13.39.02.73.15s.35.11.7.24.41-.04.75.09.26.49.63.53c.45.05.79-.24.79.13ZM142.4-266.15c-.29-.19-.58-.42-.92-.42-.13,0-.23.2-.35.23-.32.07-.33.04-.65.11s-.38-.19-.7-.11-.3.49-.51.24c-.23-.27.05-.25.15-.6s-.09-.4,0-.74.26-.3.36-.65.11-.34.21-.69-.08-.39.02-.74.15-.33.25-.68.33-.28.43-.63-.02-.38.08-.73.08-.35.17-.7-.08-.4.02-.74.37-.27.46-.62-.06-.39.04-.74.03-.37.13-.71.13-.34.22-.69.06-.36.15-.71.32-.29.42-.64-.05-.39.05-.74.1-.35.2-.7c.06-.21.02-.42,0-.63s.04-.46-.06-.65-.2-.43-.37-.57-.45-.1-.66-.17c-.32-.11-.29-.18-.61-.3s-.35-.01-.67-.13-.33-.09-.64-.21-.33-.08-.65-.19-.24-.33-.56-.44-.31-.13-.63-.24-.35-.04-.67-.15-.27-.25-.59-.37c-.23-.08-.52,0-.75.02s-.45.15-.66.25-.37.27-.52.45-.33.35-.39.58c-.1.35-.12.34-.22.69s-.17.33-.27.68.15.42.05.77-.38.27-.48.62,0,.38-.1.73-.11.35-.21.7.1.41,0,.76-.41.26-.51.62.06.4-.03.75-.04.37-.14.72-.28.3-.38.65.03.39-.07.74-.08.36-.18.71-.19.33-.29.68-.15.34-.25.69-.09.36-.19.71.28.68-.09.68.15-.29.15-.65-.23-.36-.23-.71.1-.36.1-.71.1-.36.1-.72-.24-.36-.24-.71-.05-.36-.05-.71.17-.36.17-.71-.11-.36-.11-.72.14-.36.14-.72-.18-.36-.18-.72.24-.36.24-.72-.15-.36-.15-.72.22-.36.22-.72-.22-.36-.22-.72.21-.36.21-.72-.17-.36-.17-.72-.04-.36-.04-.72.17-.36.17-.72c0-.28,0-.52.18-.7s.43-.27.7-.27c.36,0,.36.07.72.07s.36-.05.72-.05.36-.22.73-.22.36.05.72.05.36.09.72.09.36.05.73.05.36.09.73.09.36-.09.73-.09.36-.17.72-.17.36.16.73.16.36.1.73.1.37-.2.73-.2.37-.05.73-.05c.29,0,.64.22.88.09s.46-.41.62-.63.11-.53.15-.81c.08.38.19.37.22.76.02.23.14.39.25.59s.08.49.26.64c.18.15.39.31.61.38s.47-.13.7-.15c.36-.04.36-.02.72-.06s.37.11.73.07.34-.18.7-.22.37.1.73.06.36-.08.71-.11.35-.11.71-.15.38.13.74.09.34-.18.7-.22.37.06.73.02.36-.01.72-.05.36-.07.71-.11.37.07.73.03.33-.3.69-.34.38.17.75.13.35-.11.72-.15c.28-.03.55,0,.76.15s.43.39.49.66c.05.24.09.48.14.72s-.15.53-.1.77.24.45.29.69.12.48.17.71.18.46.24.7-.07.52-.02.75.17.46.22.7.22.45.28.68.14.47.2.71-.14.54-.08.78.27.44.33.67.25.44.31.67.03.5.1.73-.03.52.04.75.44.38.51.61.02.49.09.72c.07.24.02.48,0,.72s.09.54-.01.76-.36.37-.54.54c-.18.16-.29.39-.46.55s-.43.23-.6.39-.36.31-.54.46-.36.31-.54.46-.27.42-.45.57-.46.19-.64.34-.42.24-.6.39-.27.42-.46.56-.47.17-.66.31-.4.25-.59.4-.23.48-.42.62-.55.06-.74.2-.24.47-.43.61-.4.25-.59.39-.35.33-.54.47-.54.05-.74.19-.35.32-.55.46-.27.45-.46.58-.5.11-.69.25-.36.32-.55.45-.32.38-.52.51-.52.08-.72.21-.38.29-.58.41-.35.33-.56.46-.39.27-.6.39-.49.31-.69.44c.02-.17.21-.51.18-.69-.06-.34-.13-.33-.19-.67s-.06-.34-.12-.68-.1-.33-.16-.68-.23-.31-.29-.65.22-.39.16-.73-.13-.33-.19-.67-.21-.32-.28-.66-.06-.34-.12-.69-.14-.33-.21-.67c-.04-.23-.13-.39-.25-.58s-.2-.39-.39-.52ZM172.38-284.82c-.1.21-.33.36-.45.57-.11.2-.06.5-.19.72-.12.2-.27.39-.4.6s-.48.25-.61.46-.21.42-.35.62-.21.43-.35.62-.12.5-.27.69-.42.28-.56.47-.31.37-.46.56-.16.49-.31.68c-.18.22-.53.2-.65.17-.15-.03-.15-.24-.21-.49-.06-.23-.23-.44-.29-.68s-.13-.47-.19-.71-.28-.43-.34-.67.17-.54.12-.78-.26-.44-.31-.68-.16-.47-.21-.71c-.08-.41.13-.77.23-.92.1-.14.38-.45.79-.5.37-.04.39.2.76.16s.35-.19.72-.23.37-.03.74-.07.36-.09.73-.13.38.09.75.06.38.03.75,0,.36-.28.73-.26c-.1.11-.11.34-.18.48ZM141.48-314.3c.18.15.31.39.52.46s.46-.08.69-.1c.37-.03.37,0,.74-.02s.39.24.76.21.37-.08.74-.11.37-.1.74-.13.36-.22.73-.25.39.14.76.11.37-.01.75-.04.36-.21.73-.24.38.03.75,0,.39.21.76.19.36-.15.74-.18.37-.05.75-.08.36-.21.74-.24c.29-.02.49.32.71.51.22.19.46.35.48.64.01.23.09.46.11.69s0,.46.01.7.07.46.09.69-.2.48-.19.71.19.46.2.69c.02.29-.09.58-.26.78s-.44.41-.72.44c-.36.03-.37-.1-.73-.06s-.37-.03-.72,0-.34.22-.7.25-.36-.04-.72,0-.35.14-.71.17-.36.06-.72.09-.36.07-.71.1-.38-.2-.74-.16-.36.02-.72.05-.35.11-.71.15-.37-.11-.74-.08-.35.16-.71.19c-.23.02-.42.15-.62.25s-.35.25-.49.42-.32.32-.39.53-.12.44-.11.67c.02.34-.05.35-.03.69s.28.32.3.67-.27.36-.25.7.12.33.15.68.01.34.03.68.23.33.25.67-.3.36-.27.71.19.33.22.68.09.34.11.68c.02.23-.1.52,0,.72s.37.33.54.48c.18.15.38.25.6.32s.45.19.68.17c.36-.03.36.02.72-.02s.36-.04.72-.08.36-.08.71-.12.37.05.73.02.34-.26.7-.3.37.07.73.04.37.06.73.03.34-.27.7-.31.36-.08.72-.12.38.14.74.11.35-.14.72-.18.38.11.74.08c.29-.02.65-.07.86.11s.17.55.2.84c.02.23.2.45.22.68s-.17.49-.15.72.27.44.29.67-.16.49-.13.71.22.44.25.67.09.45.12.68c.03.28-.19.49-.37.71-.18.23-.34.43-.63.46-.36.04-.36.02-.72.06s-.37-.03-.72,0-.35.09-.71.13-.34.26-.7.29-.36-.01-.72.03-.37-.05-.73-.01-.37,0-.73.03-.37-.05-.73-.01-.35.13-.71.16-.34.21-.7.24-.38-.12-.74-.08-.37-.07-.73-.03-.34.24-.7.27-.36.09-.72.12c-.22.02-.52-.2-.7-.11s-.24.3-.38.45c-.05-.27-.15-.48-.31-.7s-.47-.28-.71-.4-.46-.1-.74-.1c-.36,0-.36-.2-.72-.2s-.36-.05-.72-.05-.36.22-.73.22-.36-.02-.72-.02-.36-.15-.72-.15-.36.14-.73.14-.36-.13-.73-.13-.36.04-.73.04-.36.07-.72.07-.36-.17-.73-.17-.36.14-.73.14-.37-.1-.73-.1-.37-.03-.73-.03c-.28,0-.5-.07-.68-.25s-.18-.4-.18-.68c0-.37-.26-.37-.26-.74s.21-.37.21-.74-.08-.37-.08-.74-.06-.37-.06-.74-.07-.37-.07-.74,0-.37,0-.75.25-.37.25-.75-.15-.37-.15-.75c0-.28.1-.53.28-.71s.44-.38.71-.38c.34,0,.34.18.69.18s.34-.06.69-.06.34-.11.69-.11.34-.03.69-.03.35.27.69.27.35-.15.69-.15.35-.13.69-.13.35.1.69.1c.23,0,.52.11.73.03s.23-.48.39-.64.37-.25.46-.47.21-.42.21-.65c0-.35-.19-.35-.19-.7s.11-.35.11-.7-.1-.35-.1-.7.11-.35.11-.7,0-.35,0-.7,0-.35,0-.71-.14-.35-.14-.71.14-.35.14-.71.08-.35.08-.71c0-.23-.19-.42-.28-.63s-.08-.49-.24-.65-.36-.35-.57-.43-.47.1-.71.1c-.36,0-.36-.28-.72-.28s-.36.23-.72.23-.36-.03-.72-.03-.36.07-.71.07-.36-.27-.72-.27-.36.07-.72.07-.36.22-.72.22-.36-.18-.72-.18-.36.07-.72.07-.36.14-.72.14-.36-.21-.72-.21-.36.04-.71.04-.36.09-.71.09-.36.02-.71.02-.36.06-.72.06-.36-.31-.72-.31-.36.07-.72.07-.36,0-.72,0-.36.04-.72.04-.36.17-.72.17-.36-.28-.72-.28-.36.07-.72.07-.36.16-.72.16-.36,0-.72,0-.36.09-.72.09-.36.02-.72.02-.36-.06-.72-.06-.36-.16-.72-.16-.36.2-.72.2-.35-.12-.69-.23c.15-.19.29-.27.43-.46s.36-.32.51-.52.09-.54.23-.73.34-.34.49-.53.23-.43.37-.62.52-.21.66-.41.11-.52.25-.71.21-.44.35-.64.35-.34.49-.54.45-.27.59-.47.16-.48.3-.67.25-.41.38-.61.24-.42.38-.61.34-.35.48-.54.41-.3.54-.5.21-.44.35-.64.16-.47.29-.67.29-.39.42-.59.2-.45.34-.65.34-.35.47-.55.35-.35.48-.55.19-.45.32-.66.34-.36.47-.56.17-.47.3-.67.34-.36.47-.56.15-.43.28-.63c.29.22.25.25.44.55s.07.39.27.69.18.31.38.61.27.25.47.56.38.18.58.48-.07.48.13.78.33.22.53.52.31.23.51.53-.05.47.14.77.41.17.6.47.02.43.21.73.22.29.42.59.17.32.37.63.46.13.66.44.05.4.25.7.36.2.56.5.16.33.36.63.04.41.24.71.18.32.38.62.13.35.34.66.42.17.62.47c.14.21.29.38.51.51s.42.25.67.28c.25.03.56.18.79.1s.39-.38.58-.55c.27-.25.25-.27.52-.52s.36-.15.63-.4.21-.32.48-.57.35-.16.62-.42.17-.37.44-.62.19-.53.55-.46c.3.05.12.27.14.58.01.23.03.44.13.64s.24.36.41.51Z"/>
          <g>
            <path class="cls-8" d="M184.39-195.82c-.36,0-.36.18-.72.18s-.36-.03-.72-.03-.36.04-.72.04-.36,0-.72,0-.36-.04-.72-.04-.36-.03-.72-.03-.36.11-.72.11-.36-.13-.72-.13-.36.03-.72.03-.36-.11-.72-.11-.36.07-.72.07-.36-.05-.72-.05-.36.05-.72.05-.36-.08-.72-.08-.36.03-.72.03-.36-.05-.72-.05-.36-.03-.72-.03-.36.08-.71.08-.36.06-.71.06-.36-.07-.71-.07-.36.1-.71.1-.36.02-.71.02-.36.03-.72.03-.36-.19-.72-.19-.36.15-.72.15-.36.08-.72.08-.36-.1-.72-.1-.36,0-.72,0-.36-.05-.72-.05-.36-.06-.71-.06-.36.07-.71.07-.36.07-.71.07-.36.06-.71.06-.36,0-.71,0-.36-.23-.71-.23-.36-.05-.71-.05-.36.02-.71.02-.36-.03-.72-.03-.36.21-.72.21-.36.09-.72.09-.36-.01-.72-.01-.36-.23-.72-.23-.36.03-.72.03-.36.01-.72.01-.36,0-.72,0-.36.13-.72.13-.36-.22-.72-.22-.36-.01-.72-.01-.36.2-.72.2-.36.06-.72.06-.36,0-.72,0-.36-.05-.72-.05-.36-.02-.72-.02-.36-.15-.72-.15-.36.18-.72.18-.36-.17-.72-.17-.36.14-.72.14-.36,0-.72,0-.36,0-.72,0-.36.11-.72.11-.36-.19-.72-.19-.36.21-.72.21-.36-.08-.72-.08-.36.06-.71.06-.36-.14-.71-.14-.36-.07-.72-.07-.36.21-.72.21-.36-.19-.72-.19-.36.21-.72.21-.36-.2-.72-.2-.36-.03-.72-.03-.36.1-.72.1-.36-.15-.72-.15-.36.12-.72.12-.36.14-.72.14-.36.03-.72.03-.36-.12-.72-.12-.36-.1-.72-.1-.36.08-.72.08-.36,0-.73,0-.36-.06-.73-.06-.36.06-.73.06c-.23,0-.47.03-.68.11s-.29.35-.45.5-.43.23-.52.45-.22.45-.22.68c0,.36.29.36.29.71s-.29.36-.29.72.05.36.05.71.23.36.23.71-.17.36-.17.71.16.36.16.72-.22.36-.22.72.08.36.08.72.12.36.12.72c0,.23-.22.52-.14.72s.32.38.48.54.35.35.56.44.47.09.71.09c.37,0,.37-.04.74-.04s.37-.09.74-.09.37-.08.75-.08.37.19.75.19.38-.08.75-.08.38-.04.75-.04c.31,0,.6.07.82.16.28.11.44.38.61.56.25.26.52.47.58.6.06.14.13.48.13.84,0,.25-.26.46-.39.74-.1.22-.19.44-.42.66-.17.17-.31.37-.49.54s-.24.45-.42.62-.45.22-.63.38-.37.31-.55.47-.26.44-.44.6-.4.28-.58.44-.5.15-.69.31-.3.39-.49.55-.36.32-.55.47-.28.43-.47.58-.53.11-.72.26-.29.41-.48.56-.35.34-.54.49-.49.23-.69.38c-.02-.35.05-.37.14-.71s.28-.29.37-.63-.05-.37.04-.72.09-.34.17-.68.04-.35.13-.7.2-.31.28-.66.14-.33.23-.67-.07-.38.02-.73c.05-.22.13-.42.1-.63s-.18-.38-.28-.57-.23-.32-.4-.46-.33-.19-.54-.26c-.36-.12-.3-.31-.66-.43s-.35-.13-.71-.25-.38-.05-.74-.17-.32-.24-.68-.36-.39-.02-.75-.14-.38-.06-.74-.18-.37-.1-.73-.22-.34-.19-.7-.31c-.23-.08-.47-.12-.71-.1s-.51.04-.72.15c-.21.12-.25.43-.39.62s-.47.29-.53.53c-.09.35,0,.37-.09.72s-.1.35-.19.7.09.39,0,.74-.36.28-.45.63.06.39-.03.74-.03.36-.12.71-.25.31-.33.66.03.38-.06.73-.08.35-.16.71-.17.33-.26.68-.13.34-.22.69-.08.35-.17.71-.04.36-.13.71-.16.33-.25.68.11.4.02.75-.18.33-.26.68-.17.33-.26.68.12.4.03.75-.04.36-.13.71-.23.32-.32.67,0,.38-.09.73-.21.32-.3.67.06.39-.03.74-.29.3-.38.65.04.38-.05.74-.28.3-.36.66.1.4,0,.75-.27.31-.35.66.05.39-.04.74-.05.36-.14.71-.23.32-.32.67,0,.37-.08.72-.1.35-.19.7-.15.34-.24.69-.04.36-.13.72.1.4,0,.75-.13.34-.22.69-.16.33-.25.68-.13.34-.22.69-.16.33-.25.69-.01.37-.1.73.05.39-.03.74-.22.32-.31.68-.18.33-.27.69.08.4,0,.75-.05.36-.14.72-.35.29-.44.64-.03.37-.12.72-.07.36-.16.72.04.39-.05.75c-.05.22,0,.4.03.61s-.08.46.03.65.22.4.39.54.44.08.65.15c.36.12.36.13.71.25s.32.24.68.36.4,0,.76.12.32.23.68.35.37.09.73.21.38.06.74.18.32.26.68.38.4,0,.76.13c.18.06.35.18.53.18.29,0,.61-.06.87-.2.21-.12.39-.31.54-.49s.35-.4.41-.63c.09-.34-.13-.4-.05-.74s.27-.3.35-.64.02-.36.11-.7.04-.36.13-.7.03-.36.12-.7.09-.34.17-.69.3-.29.39-.64-.04-.38.05-.72.07-.35.16-.69.02-.36.1-.7.24-.31.33-.65.04-.36.12-.7,0-.37.08-.71.06-.35.15-.7.31-.29.4-.63-.04-.38.05-.72-.02-.37.07-.71.17-.32.26-.66.23-.31.32-.65-.18-.41-.09-.75.19-.32.28-.66.16-.33.24-.67-.08-.39.01-.73.18-.32.27-.66,0-.37.09-.71.18-.32.26-.67.09-.34.18-.69.08-.35.17-.69-.03-.38.05-.72.21-.32.3-.66.15-.33.24-.67-.04-.38.04-.72.22-.31.31-.66.13-.34.21-.69-.11-.4-.03-.75-.07-.5.29-.53.22.16.4.48.16.34.34.66.23.3.41.62-.02.44.16.76.23.3.41.62.35.23.53.56c.12.22.16.5.36.64s.45.2.7.25c.24.05.46-.07.7-.12s.53.02.73-.13c.15-.11.13-.14.28-.25.2-.15.35-.36.55-.51s.39-.31.59-.46.36-.33.56-.48.56-.08.76-.23.36-.34.56-.49.4-.3.59-.45.38-.33.57-.48.3-.42.5-.58.54-.12.74-.27.36-.36.55-.51.31-.42.5-.58.39-.32.58-.48.34-.38.52-.54c.18-.16.38-.32.58-.46s.45-.22.66-.33.49-.08.72-.16.41-.33.64-.38.51.1.75.07.47-.1.71-.1c.37,0,.37.08.73.08s.37-.22.74-.22.37.06.74.06c.27,0,.5.18.56.32.05.14-.12.28-.32.46-.18.17-.23.47-.41.64s-.31.39-.49.55-.42.27-.6.43-.49.18-.67.34-.29.42-.47.57-.35.34-.54.5-.35.34-.54.5-.43.25-.61.41-.47.2-.66.35-.34.35-.53.5-.31.39-.5.54-.4.28-.59.43-.35.35-.54.49-.44.23-.63.37-.45.22-.64.36-.35.35-.55.49-.44.22-.64.35-.35.35-.55.49-.45.2-.65.34-.38.31-.58.44-.37.32-.58.45-.48.15-.69.28-.42.24-.63.37-.37.31-.58.44c-.25.15-.3.47-.44.7s-.49.43-.51.71.16.57.28.83c.14.31.25.27.39.58s-.1.42.04.74.34.23.47.54-.04.39.1.71.16.3.3.62.11.33.25.64.39.21.53.52,0,.38.14.7.29.25.43.57c.1.23.18.41.36.57s.3.42.54.5c.23.08.51.12.75.1s.54-.05.75-.18c.21-.12.3-.43.5-.56s.41-.24.62-.36.43-.21.63-.34.49-.11.69-.24.32-.39.52-.52.39-.28.59-.41.47-.16.66-.29.35-.33.55-.46.45-.18.65-.31.32-.38.51-.52.42-.23.61-.37.32-.37.52-.51.4-.25.6-.39.35-.33.54-.47.54-.07.73-.21.37-.31.55-.45.39-.28.58-.42.31-.37.5-.52.26-.43.45-.58.4-.26.58-.41.34-.33.53-.48.45-.2.63-.36.37-.3.55-.45.38-.28.56-.44.25-.43.43-.59.35-.33.52-.49.45-.21.63-.37.26-.42.43-.58.45-.22.62-.38.35-.32.52-.49.22-.46.39-.62.32-.36.49-.52.33-.34.5-.51.33-.34.5-.51.32-.35.48-.53.38-.3.54-.47.45-.23.62-.4.21-.45.37-.63.4-.28.56-.46.26-.4.42-.58.26-.41.41-.59.37-.31.52-.49c.16-.19.38-.33.59-.46s.44-.22.68-.29.48-.17.73-.17c.39,0,.39.15.78.15s.39-.18.78-.18.39.1.78.1c.24,0,.28.15.34.28.06.12.28.34.13.54-.14.19-.45.26-.59.44s-.34.34-.49.52-.08.55-.23.73-.49.21-.64.4-.26.4-.41.58-.29.38-.44.56-.41.28-.56.45-.27.39-.43.57-.24.42-.4.6-.29.38-.45.55-.28.39-.44.57-.47.21-.63.38-.22.45-.39.62-.33.34-.5.51-.41.26-.58.43-.28.39-.45.56-.3.37-.48.54-.53.13-.7.29-.28.4-.45.56-.38.29-.56.45-.23.46-.41.61-.5.15-.68.31-.24.46-.42.61-.39.28-.57.43-.41.25-.59.4-.45.2-.63.35-.39.28-.57.42-.27.43-.46.57-.35.32-.55.46-.37.3-.56.44-.52.1-.71.23-.31.39-.5.52-.46.17-.66.3-.34.34-.54.48-.44.19-.64.32-.28.45-.48.58-.53.06-.73.19-.32.39-.52.51-.36.33-.56.45-.41.25-.61.38-.52.07-.72.19c-.19.11-.36.27-.48.43s-.06.43-.12.63-.12.36-.1.57-.19.48-.1.68c.14.32.2.3.34.62s.36.22.51.54-.11.43.03.75.27.26.41.58.24.27.39.59-.04.4.1.72.3.25.45.57.17.31.31.63.18.31.32.63c.1.22.17.41.35.57s.33.34.56.41c.23.07.48.25.72.23s.45-.24.67-.36c.21-.12.47-.15.68-.27s.3-.43.51-.56.46-.17.66-.3.48-.13.69-.26.34-.37.54-.49.39-.28.59-.41.43-.21.63-.35.45-.19.65-.32.28-.45.48-.58.49-.13.69-.27.35-.34.54-.48.33-.36.52-.5.48-.15.68-.29.44-.21.63-.36.41-.26.6-.41.22-.51.41-.65.52-.11.71-.26.36-.32.55-.46.41-.26.59-.41.24-.47.42-.62.34-.34.52-.5.51-.14.69-.29.21-.49.39-.65.48-.18.66-.34.25-.44.43-.6.54-.12.72-.28.23-.46.41-.62.48-.19.65-.36.18-.51.35-.68.42-.25.59-.42.41-.27.58-.43.38-.3.55-.47.36-.32.53-.49.19-.49.36-.66.33-.35.49-.53.35-.33.52-.5.32-.36.48-.54.43-.26.59-.44.2-.46.36-.64.35-.33.51-.51.36-.32.52-.51.22-.45.37-.63.28-.39.43-.58.25-.41.4-.6.52-.2.66-.39.1-.53.24-.72.25-.41.4-.6.34-.34.48-.54.36-.33.5-.53.32-.37.45-.56.09-.52.22-.71.29-.38.42-.58.34-.35.47-.55.28-.39.41-.59.23-.42.35-.63.27-.39.39-.6c.14-.24.36-.39.56-.56s.35-.5.6-.59.56,0,.84,0c.21,0,.45-.01.51.06.06.07-.04.29-.07.5-.03.24.05.49.02.73s-.06.48-.09.71-.18.46-.21.7-.05.48-.08.72.11.5.07.74-.18.46-.21.7,0,.49-.04.72-.11.47-.15.7-.04.48-.08.72-.11.47-.15.7-.13.46-.18.69-.13.47-.18.7.1.51.05.74-.22.44-.27.67-.11.47-.16.69-.17.45-.23.68-.09.47-.15.69-.1.47-.16.69c-.07.23-.07.48-.16.7s-.16.46-.27.67-.37.33-.51.53-.35.32-.5.5-.16.5-.33.66-.36.33-.54.47-.49.11-.7.23-.38.27-.6.37-.37.37-.59.44-.47.11-.7.16-.49-.05-.73-.02-.47.05-.7.05c-.38,0-.38.04-.77.04s-.38-.05-.77-.05-.38-.05-.77-.05-.38-.04-.77-.04c-.23,0-.51.06-.71.14s-.37.32-.53.48-.32.34-.41.56-.11.45-.11.68c0,.37,0,.37,0,.75s.19.37.19.75-.16.37-.16.75.1.37.1.75-.23.37-.23.74.21.37.21.75-.05.37-.05.75-.16.38-.16.75.03.38.03.75c0,.23.11.47.19.68s.2.44.37.6c.16.16.47.09.68.17s.38.38.61.39c.36,0,.36-.26.73-.27s.36.07.73.07.37.05.73.04.37-.06.73-.06.37.08.74.08.37.11.74.11c.25,0,.48-.21.73-.23s.49.05.73.02.46-.21.7-.25.5.06.74,0,.45-.22.68-.29.54.12.77.04.46-.19.68-.27.38-.36.6-.46.48-.11.7-.22.51-.09.72-.22.27-.5.47-.63.48-.15.68-.29.47-.19.66-.34.36-.33.55-.5.22-.48.39-.65.41-.28.58-.46.39-.31.54-.5.3-.39.45-.58.36-.35.49-.55.29-.4.41-.61.17-.47.28-.69.16-.46.26-.69.29-.41.38-.64.22-.45.3-.68c.07-.22-.09-.52-.02-.75s.2-.43.27-.65.19-.43.26-.66.24-.42.3-.65-.13-.53-.07-.75.14-.45.2-.68.35-.4.41-.63.15-.45.2-.68.1-.46.15-.7-.18-.52-.13-.76.36-.41.4-.64-.16-.52-.12-.75.25-.43.3-.67.05-.47.09-.71-.05-.49-.01-.72.23-.44.27-.68.18-.45.21-.69.02-.48.06-.71.12-.46.15-.7-.18-.5-.15-.74.22-.45.25-.69.14-.46.16-.7-.08-.49-.05-.72.01-.48.03-.71-.01-.48.01-.71.24-.46.26-.69-.15-.49-.13-.73.27-.46.29-.69-.1-.48-.08-.72-.09-.49-.08-.72.13-.47.14-.71.04-.48.05-.71.02-.47.03-.71.1-.47.11-.7,0-.47,0-.71.14-.47.14-.71-.12-.47-.11-.71.04-.47.04-.7,0-.51-.09-.71-.4-.28-.56-.44-.28-.35-.5-.43-.42-.1-.66-.1c-.36,0-.36.1-.71.1s-.36-.03-.71-.03-.36-.25-.71-.25-.36.21-.71.21-.36.04-.71.04-.36-.1-.72-.1-.36-.01-.72-.01-.36.06-.72.06-.36-.03-.72-.03-.36.05-.72.05-.36-.06-.72-.06-.36-.14-.72-.14-.36.05-.72.05-.36.19-.72.19-.36-.17-.72-.17-.36,0-.72,0-.36.19-.72.19-.36-.14-.72-.14-.36.07-.72.07-.36.04-.72.04-.36-.21-.72-.21-.36.19-.72.19-.36-.05-.72-.05-.36,0-.72,0-.36-.19-.72-.19-.36.14-.72.14-.36,0-.72,0-.36.1-.72.1-.36-.09-.72-.09-.36.03-.71.03-.36,0-.71,0-.36-.11-.72-.11-.36.07-.72.07-.36-.1-.72-.1-.36.11-.72.11-.36,0-.72,0-.36.09-.72.09-.36-.08-.72-.08-.36-.15-.72-.15-.36.1-.72.1-.36-.03-.72-.03-.36-.08-.72-.08-.36.17-.72.17-.36-.14-.72-.14-.36-.02-.72-.02-.36.08-.72.08-.36.08-.73.08-.36-.03-.73-.03c-.47,0-.67-.34-.74-.48-.07-.14-.18-.47.16-.91.13-.17.3-.26.47-.38s.31-.26.51-.32.39-.02.61-.02c.36,0,.36-.18.72-.18s.36.06.72.06.36,0,.72,0,.36.16.72.16.36-.1.72-.1.36-.02.72-.02.36.02.72.02.36.03.72.03.36-.13.72-.13.36.02.72.02.36-.09.72-.09.36-.01.72-.01.36.17.72.17.36-.16.72-.16.36.11.72.11.36.01.72.01.36.12.72.12.36-.06.72-.06.36-.19.72-.19.36.16.72.16.36.05.73.05.36-.17.72-.17.36-.02.72-.02.36.07.72.07.36.11.72.11.36-.04.72-.04.36.15.73.15.36-.24.73-.24.36.08.72.08.36-.13.72-.13.36.04.72.04.36.03.72.03.36.02.72.02.36-.05.72-.05.36.17.72.17.36.02.73.02.36.05.72.05.36-.28.72-.28.36.07.73.07.36.2.73.2.36-.12.73-.12.36.12.73.12.36-.03.73-.03.36.06.73.06.36-.27.73-.27.36.25.73.25.36-.16.73-.16.37-.01.73-.01.37.12.73.12.37-.23.73-.23c.23,0,.46.11.66.03s.37-.25.53-.41.2-.37.29-.58.29-.38.29-.62c0-.35.06-.35.06-.7s-.18-.35-.18-.7.09-.35.09-.7.13-.35.13-.7-.21-.35-.21-.7,0-.35,0-.71.02-.35.02-.71.06-.35.06-.71.09-.35.09-.71c0-.23-.24-.43-.32-.63s-.04-.54-.2-.7-.4-.31-.62-.4-.48-.08-.72-.08Z"/>
            <path class="cls-8" d="M134.81-197.54c.36,0,.36.11.72.11s.36.01.72.01.36-.04.72-.04.36-.06.72-.06.36-.02.72-.02.36.13.72.13.36-.03.72-.03.36.03.72.03.36-.07.72-.07.36-.07.72-.07.36.07.72.07.36-.02.72-.02.36.12.72.12.36-.02.72-.02.36-.02.72-.02.36-.09.72-.09.36.13.72.13.36-.06.72-.06.36-.02.72-.02.36-.03.72-.03.36-.04.72-.04.36.05.72.05.36.1.72.1.36-.04.72-.04.36-.1.72-.1.36.02.72.02.36-.02.72-.02.36,0,.72,0,.36.02.72.02.36.02.72.02.36-.06.72-.06.36.07.72.07.36-.01.72-.01.36.06.72.06.36-.04.72-.04.36.03.72.03.36-.03.72-.03.36.05.72.05.36-.02.72-.02.36.03.72.03.36.01.72.01.36-.05.72-.05.36-.04.72-.04.36.04.72.04.36-.05.72-.05.36-.01.72-.01.36-.02.72-.02.36.11.72.11.36-.08.72-.08.36-.05.73-.05.36.05.72.05.36,0,.72,0,.36.03.72.03.36.03.73.03.36-.04.73-.04.36-.04.73-.04.36-.04.73-.04c.23,0,.43-.04.63-.13s.47-.11.63-.27.33-.36.41-.57.13-.46.13-.69c0-.36.02-.36.02-.71s-.12-.36-.12-.71-.05-.36-.05-.71,0-.36,0-.72.13-.36.13-.72-.02-.36-.02-.72,0-.36,0-.71,0-.36,0-.71-.08-.36-.08-.71.12-.36.12-.71,0-.36,0-.71-.11-.36-.11-.71-.04-.36-.04-.72,0-.36,0-.72.03-.36.03-.72.01-.36.01-.72.09-.36.09-.72-.1-.36-.1-.72.1-.36.1-.72-.08-.36-.08-.72,0-.36,0-.72,0-.36,0-.72-.06-.36-.06-.72.11-.36.11-.72-.12-.36-.12-.72.05-.36.05-.71-.03-.36-.03-.71.08-.36.08-.71.04-.36.04-.72-.12-.36-.12-.72.1-.36.1-.72-.12-.36-.12-.72.11-.36.11-.72.02-.36.02-.72-.05-.36-.05-.72.09-.36.09-.72-.07-.36-.07-.72-.08-.36-.08-.72-.02-.36-.02-.72.07-.36.07-.72.06-.36.06-.72-.04-.36-.04-.72,0-.36,0-.72.03-.36.03-.72c0-.23-.08-.46-.17-.67s-.21-.41-.37-.57-.39-.2-.61-.29-.4-.23-.63-.23c-.36,0-.36-.05-.72-.05s-.36.16-.72.16-.36-.16-.72-.16-.36.03-.72.03-.36.13-.72.13-.36-.1-.72-.1-.36.09-.72.09-.36-.12-.72-.12-.36.05-.72.05-.36.07-.72.07-.36-.16-.72-.16-.36.05-.72.05-.36-.03-.72-.03-.36.03-.72.03-.36.02-.72.02-.36.05-.72.05-.36.04-.72.04-.36-.11-.72-.11-.36.04-.72.04-.36.03-.72.03-.36,0-.72,0-.36-.07-.72-.07-.36.09-.72.09-.36-.02-.72-.02-.36-.13-.72-.13-.36.03-.72.03-.36.03-.72.03-.36.09-.72.09-.36-.08-.72-.08-.36,0-.72,0-.36.09-.72.09-.36-.03-.72-.03-.36-.12-.72-.12-.36.06-.72.06-.36.01-.72.01-.36.09-.72.09-.36-.14-.72-.14-.36.08-.72.08-.36.03-.72.03-.36-.02-.72-.02-.36.02-.72.02-.36-.11-.72-.11-.36.08-.72.08-.36,0-.72,0-.36.03-.72.03-.36-.06-.72-.06-.36-.03-.72-.03-.36.09-.72.09-.36-.04-.72-.04-.36.05-.73.05-.36.01-.72.01-.36.02-.72.02-.36-.11-.72-.11-.36,0-.73,0-.36.04-.73.04-.36-.07-.73-.07-.36.06-.73.06c-.23,0-.45.08-.66.16s-.39.22-.55.38-.32.32-.41.54-.14.43-.14.67c0,.36-.04.36-.04.71s.12.36.12.71-.14.36-.14.71.05.36.05.72,0,.36,0,.72.1.36.1.72-.16.36-.16.71.08.36.08.71.03.36.03.71-.09.36-.09.71.07.36.07.71,0,.36,0,.71-.05.36-.05.72-.02.36-.02.72,0,.36,0,.72.03.36.03.72-.04.36-.04.72.11.36.11.72-.05.36-.05.72-.05.36-.05.72.12.36.12.72.03.36.03.72-.08.36-.08.72.05.36.05.72-.07.36-.07.72.09.36.09.71-.12.36-.12.71.07.36.07.71-.11.36-.11.72.11.36.11.72-.1.36-.1.72.08.36.08.72.02.36.02.72-.08.36-.08.72.06.36.06.72,0,.36,0,.72-.03.36-.03.72.03.36.03.72.11.36.11.72-.02.36-.02.72-.04.36-.04.72-.02.36-.02.72-.04.36-.04.72.04.36.04.72c0,.23.12.43.21.63s.15.43.31.59.33.34.54.42.45.01.68.01ZM144.17-222.83c.36,0,.36.11.72.11s.36.01.73.01.36-.04.72-.04.36-.06.72-.06.36-.02.72-.02.36.13.72.13.36-.03.72-.03.36.03.73.03.36-.07.73-.07.36-.07.73-.07.36.07.72.07.36-.02.73-.02.36.12.72.12.36-.02.72-.02.36-.02.72-.02.36-.09.73-.09.36.13.73.13.36-.06.72-.06.36-.02.72-.02.36-.03.73-.03.36-.04.73-.04.36.05.73.05.36.1.73.1.36-.04.73-.04.36-.1.73-.1.36.02.73.02.36-.02.73-.02.37,0,.73,0,.37.02.73.02.37.02.73.02.37-.06.73-.06c.28,0,.55.15.77.28s.44.32.58.56.15.5.15.78c0,.05.04.05.04.1,0,.28-.1.53-.23.75s-.31.44-.54.57-.49.16-.77.16c-.36,0-.36.02-.72.02s-.36-.03-.73-.03-.36-.01-.72-.01-.36.05-.72.05-.36.04-.72.04-.36-.04-.72-.04-.36.05-.72.05-.36.01-.73.01-.36.02-.73.02-.36-.11-.73-.11-.36.08-.72.08-.36.05-.73.05-.36-.05-.72-.05-.36,0-.72,0-.36-.03-.72-.03-.36-.03-.73-.03-.36.04-.73.04-.36.04-.72.04-.36.04-.72.04-.36,0-.73,0-.36-.13-.73-.13-.36-.03-.73-.03-.36.01-.73.01-.36-.02-.73-.02-.36.12-.73.12-.36.05-.73.05-.36,0-.73,0-.37-.13-.73-.13-.37.02-.73.02-.37,0-.73,0-.37,0-.73,0c-.29,0-.58-.01-.82-.15s-.33-.43-.46-.68c-.12-.23-.17-.47-.17-.77,0-.28-.04-.56.1-.78s.32-.47.56-.6.52-.22.8-.22ZM144.17-210.23c.36,0,.36.11.72.11s.36.01.73.01.36-.04.72-.04.36-.06.72-.06.36-.02.72-.02.36.13.72.13.36-.03.72-.03.36.03.73.03.36-.07.73-.07.36-.07.73-.07.36.07.72.07.36-.02.73-.02.36.12.72.12.36-.02.72-.02.36-.02.72-.02.36-.09.73-.09.36.13.73.13.36-.06.72-.06.36-.02.72-.02.36-.03.73-.03.36-.04.73-.04.36.05.73.05.36.1.73.1.36-.04.73-.04.36-.1.73-.1.36.02.73.02.36-.02.73-.02.37,0,.73,0,.37.02.73.02.37.02.73.02.37-.06.73-.06c.28,0,.55.15.77.28s.44.32.58.56.15.5.15.78-.04.54-.17.77-.34.4-.58.54-.47.23-.75.23c-.36,0-.36-.05-.72-.05s-.36.02-.73.02-.36-.03-.72-.03-.36-.01-.72-.01-.36.05-.72.05-.36.04-.72.04-.36-.04-.72-.04-.36.05-.73.05-.36.01-.73.01-.36.02-.73.02-.36-.11-.72-.11-.36.08-.73.08-.36.05-.72.05-.36-.05-.72-.05-.36,0-.72,0-.36-.03-.73-.03-.36-.03-.73-.03-.36.04-.72.04-.36.04-.72.04-.36.04-.73.04-.36,0-.73,0-.36-.13-.73-.13-.36-.03-.73-.03-.36.01-.73.01-.36-.02-.73-.02-.36.12-.73.12-.36.05-.73.05-.37,0-.73,0-.37-.13-.73-.13-.37.02-.73.02-.37,0-.73,0c-.28,0-.53-.07-.75-.2s-.48-.28-.62-.51-.09-.51-.09-.79.07-.5.2-.73.24-.5.47-.63.5-.25.78-.25Z"/>
            <path class="cls-8" d="M122.2-214.33c.16.19.36.36.58.46s.47.17.72.17c.01,0,.02-.05.03-.05.24,0,.47-.05.69-.15s.44-.21.6-.39c.24-.26.25-.25.48-.51s.22-.27.45-.53.23-.26.47-.53.25-.25.49-.51.22-.28.45-.54.25-.25.49-.51.2-.29.44-.56.24-.26.48-.53.28-.23.52-.49c.19-.21.33-.46.4-.72s.06-.55,0-.82-.2-.5-.38-.72c-.23-.28-.24-.28-.47-.56s-.18-.32-.42-.6-.24-.27-.48-.55-.22-.29-.45-.57-.26-.26-.49-.54-.26-.26-.49-.54-.21-.3-.44-.58-.24-.28-.48-.56-.19-.32-.43-.6-.24-.27-.48-.56-.24-.28-.47-.56-.27-.25-.5-.54-.19-.32-.42-.6-.26-.26-.49-.55-.24-.28-.48-.56-.25-.27-.48-.56-.25-.27-.48-.55-.21-.3-.45-.58-.2-.31-.43-.59-.25-.27-.49-.56-.27-.25-.51-.54-.23-.29-.47-.58-.24-.28-.48-.56c-.16-.19-.35-.34-.57-.45s-.45-.18-.7-.18c-.25.01-.49.05-.71.14s-.41.24-.58.43c-.24.26-.27.24-.51.5s-.23.26-.47.52-.26.24-.5.5-.23.27-.47.54-.25.25-.49.51-.23.27-.47.53-.26.25-.5.51-.24.27-.48.53-.25.25-.5.52c-.19.21-.34.47-.41.73s-.06.56,0,.84.2.51.38.74c.24.28.22.29.46.58s.25.26.49.55.24.28.47.56.24.28.47.55.19.31.43.59.26.26.5.54.25.27.49.55.22.3.45.58.24.28.47.56.23.29.46.57.22.29.46.57.25.27.48.55.25.27.49.55.25.27.49.55.24.28.47.56.19.32.43.61.23.29.46.57.24.28.48.56.23.29.47.57.28.25.52.53.26.27.49.55.24.29.47.57.2.31.44.6Z"/>
            <path class="cls-8" d="M118-191.93s.02.08.03.08c.25,0,.49-.09.71-.19s.44-.23.6-.42c.24-.27.23-.27.46-.54s.23-.27.46-.53.24-.26.47-.53.26-.25.49-.52.18-.31.42-.58.23-.27.47-.54.26-.25.49-.52.25-.26.48-.53.22-.28.46-.55c.19-.21.34-.44.41-.7s.08-.55.02-.82-.18-.52-.36-.74c-.23-.28-.27-.25-.5-.53s-.23-.28-.47-.55-.21-.3-.44-.58-.22-.29-.45-.56-.25-.27-.48-.55-.24-.27-.47-.55-.22-.29-.46-.57-.25-.26-.49-.54-.22-.29-.46-.57-.27-.25-.5-.53-.23-.28-.47-.56-.2-.31-.43-.59-.23-.28-.46-.56-.25-.27-.49-.55-.26-.26-.49-.54-.24-.27-.48-.55-.19-.32-.42-.6-.25-.27-.48-.55-.23-.29-.46-.57-.26-.26-.5-.54-.26-.26-.5-.54c-.16-.19-.33-.36-.55-.47s-.46-.15-.71-.16c-.25-.02-.51-.02-.74.08s-.43.27-.6.46c-.24.26-.23.27-.47.53s-.2.29-.44.54-.28.22-.51.48-.22.28-.45.54-.23.27-.47.53-.23.27-.46.53-.22.28-.46.54-.26.25-.49.51-.27.23-.51.5c-.19.21-.31.48-.38.74s-.03.55.03.82.17.51.35.73c.23.28.24.27.47.55s.23.28.46.56.22.29.46.57.23.28.46.56.25.26.49.54.21.3.44.58.24.28.47.56.21.3.45.58.25.27.48.55.22.29.46.57.24.27.48.56.22.29.45.58.24.28.48.56.23.29.46.57.23.29.46.57.25.27.49.55.25.27.48.55.22.29.46.58.26.27.49.55.24.28.48.57.24.28.48.56c.16.19.33.39.56.49s.48.11.73.11Z"/>
          </g>
        </g>
      </g>
    </g>
  </g>
</svg>