<?xml version="1.0" encoding="UTF-8"?>
<svg id="a" data-name="レイヤー 1" xmlns="http://www.w3.org/2000/svg" width="270.01" height="10.24" viewBox="0 0 270.01 10.24">
  <defs>
    <style>
      path {
        fill: #ffffff;
      }
    </style>
  </defs>
  <path d="m0,6.36c-.09-.57.79-3.93.43-4.38-.38-.75.14-.61.63-.16C2.19,3.16.03,5.31.75,6.92c.03-.02,1.48-3.98,1.3-2.34-.25.88-.71,1.8-.76,2.72-.01.82.39,1.67-.05,1.97C-.04,9.24.13,7.27,0,6.36Zm8.39,2.11c-.4,1.52-1.32-.57-1.94-.96-.17.67-.74,1.45-1.48,1.4-3.21-.21-2.05-3.34.72-2.6-.54-1.15.41-2.76-.7-2.59-.33.08-1.34-.79-1.33-1.08.47-.25,1.32.67,1.93.16,0-.49.16-1.64-.29-1.82-.63-.7.64-.71.95-.21.37.27-.09.94.43,1.08.23-.06.26-.12.5.13.8.55.2,1-.52,1.28-.91.11-.45,1.26-.5,1.69-.41,1.62,2.07,2.11,2.21,3.53Zm-4.1-1.64c-1.29.13-1.06,1.46.22,1.34,1.56-.08,1.6-1.64-.22-1.34Zm2.2-4.5c0-.21-.19-.57-.29-.74-.02.25-.15,1.31.29.74Z"/>
  <path d="m13.37.55c.2-.04.93.33.94.54-.04-.08-.47,4.85-.46,4.84-.23,4.12,3.69,2.75,5.23.74.44-.74.87-.17.25.48-2.86,3.74-7.35,2.95-6.1-2.92,0-1.36.47-2.26-.07-3.1-.38-.32-.26-.56.2-.58Zm4.36,2.69c.08.55-.71.65-.86.26-.08-.25-.2-.45-.36-.6-.16-.18-.62-.3-.62-.58.33-.5,1.9.32,1.85.91Zm1.13-.74c.08.57-.69.68-.86.28-.08-.25-.2-.45-.36-.6-.16-.18-.62-.3-.62-.58.34-.47,1.9.3,1.85.9Z"/>
  <path d="m28.27.46c.68.13.9.82.68,1.45-.03.17-.05.31-.07.43,1.01,0,2.19.77,2.8,1.61,1.82,2.54-1.29,5.34-3.76,5.47-.34.01-.42-.31-.02-.34,3.1-.64,5.01-5.43.91-6.06-.52,1.1-.03,2.82-1.18,3.47-1.25,2.75-3.62,2.27-3.71-.44.03-1.53,2.38-2.33.58-4.37.05-.58.48-.17.79.25.52.9.54,1.35,1.57.71.7-.16,1.74-.17,1.45-1.3-.15-.26-.93-.87-.04-.88Zm-2.8,3.91c-.85.74-1.21,2.35-.1,2.95,2.14-.55,1.02-1.71.1-2.95Zm2.68-1.37c-2.07,0-2.62,1.16-.85,2.4.39-.56.68-1.36.85-2.4Z"/>
  <path d="m41.9,9.19c-3.95.25-3.01-4.79-1.84-6.98-2.14.67-1.8.92-3.22,1.12-.56-.04-1.67-1.56-.29-1.05,1.47.3,6.66-2.39,7.35-.89-.31.99-2.31.28-3.02.67-1.13,1.38-1.51,3.58-.73,5.66.58.72,1.51.08,2.22.53.69.37.13,1.02-.47.95Z"/>
  <path d="m48.27,3.41c4.96.71.52-1.42,2.16-1.5.78.14,1.27.57,1.06,1.49.53-.12,1.62.22,1.34-.74,0-.38-.12-.77-.38-.96-.17-.11-.51-.31-.33-.53.29-.21,1.77.56,1.79.91-.05.35-.13.84-.11,1.1.84.02,1.35-.5,2.04-.04.48.28.43.86-.19.84-2.74-.62-1.67.85-2.72,2.54-.45.65-2.11,2.79-2.84,2.27,1.16-.9,4.52-5.41,1.42-4.79-.02.47.27,1.52-.32,1.72-.52.11-.44-1.29-.46-1.66-1.12.09-1.32.17-1.75.36-.32.03-1.61-.9-.7-1.02Z"/>
  <path d="m63.57,1.16c.6-.06,1.76.51,1.02,1.07,0,0,0,.74,0,.74.72-.03,1.29-.32,1.78-.47.35.03,1.29,1.12.9,1.46-.28.19-.45.07-.65.61-.93,2.2-3.16,4.06-5.4,4.39-1.11-.21,1.52-.99,1.74-1.36.98-.59,3.94-3.7,2.16-4.12-.89.24-3.34-.36-2.29,1.27.3.43-.41,1.46-.81.73-.38-.6.03-1.29-.52-1.85-.5-.05-.74-.17-.74-.37.54-1.27,3.69,1.27,2.81-1.3-.1-.32-.31-.2-.38-.38,0-.2.19-.42.4-.41Z"/>
  <path d="m78.86,3.14c.51.25,1.63,1.11.5,1.36-.81-.1-2.38-.9-2.81.05-.26,1.31-.66,2.58-1.61,3.54-.18.19-1.31,1.26-1.54.84.05-.36.89-.76,1.03-1.13.19-.24.4-.5.53-.78.18-.38,1.32-2.86.35-2.63-.72-.09-2.27.58-2.81-.06-.34-.35-.28-.86.34-.58.87.14,1.87.03,2.74-.1.32-.1.22-.49.25-.73-.05-.3.09-.82-.1-1.07-.1-.1-.36-.04-.45-.19-.23-.24,0-.35.2-.52.43-.3,1.03.15,1.37.41.32.56-.27,1.02-.16,1.7-.05.53.52.28.89.24.57-.04.69-.56,1.27-.34Z"/>
  <path d="m86.89,0c1.26.44,1.28.78.65,2.41.47.11,1.22.45.82.97-1.03.62-2.68,2.1-.45,2.2.28.02.49.21.49.47,0,.68-1,.58-1.58.37.11,4.15,4.48,1.34,1.87-1.31-2.1-2.1.74-.54,1.34.54,2.06,2.27-1.68,5.16-3.38,2.85-.31-.66-.39-1.45-.41-2.33-.5-.28-.74-.62-.74-1.03,0-.35,2.42-2.16.68-2.43-.38-.18-.97-1-.42-1.17.88.79,1.42,1.18,1.36-.4.05-.38-1.24-1.11-.23-1.14Zm-.6,5.21c.02-.12.06-.33.12-.62-.31.24-.52.45-.12.62Zm1.06-2.21c-.06.21-.11.37-.14.48.48-.34.62-.49.14-.48Z"/>
  <path d="m95.29,7.42c3.56.32,2.18,4.65.84,1.39-.1-.38-1.5-1.15-.84-1.39Z"/>
  <path d="m107.91,3.12c.61.16,1.41.2,2.03.01-.06-1.36-.13-1.54-.77-2.04-.35-.69.72-.77,1.06-.14.45.38.1,1.31.9,1.39.87.04,1.43.48.36.86-.2.07-.61.21-.81.29,0,0,0,1.84,0,1.84,1.43-.81,2.89-1.05,4.21-.35,2.72,1.58-2.61,5.92-3,2.6-.21-.53,1.05-2.52.77-1.05-.67,3.55,4.5-1.32.52-1.49-1.15.11-2.91.54-2.46,2.24,0,.88.24,1.35-.53,1.57-.51-.07-.86-1.23-1.3-1.38-.26.27-1.28.94-1.33.12.23-.96,1.67-1.1,2.36-1.87,0,0,0-1.96,0-1.96-1.16.37-1.08.61-1.86.13-.35-.21-.56-.7-.17-.78Zm2.04,3.35c-.79.68-.89.45.01,1.08,0,0-.01-1.08-.01-1.08Zm.71-3.9c-.06.5.16.36.44.19,0,0-.44-.19-.44-.19Zm4.8-.19c.79-.16,2.05,1.43.83,1.61-.35.06-.65-.75-.98-.71-.27-.02-.85.08-1.04.11-.65-.38.78-1.09,1.2-1.01Z"/>
  <path d="m120.78,2.01c-.61.55-1.57,1.73-2.34,1.66.81-.83,1.55-2.01,2.09-3.27,1.92.63,1.39.44.66,1.11,0,0,4.31,0,4.31,0,.22-.3.42-.52.68-.81,1.06.94,1.35.93.95,1.31,0,0-6.35,0-6.35,0Zm-1.91,7.38c2.05-1.2,3.79-2.68.53-3.62.71-.27,1.91.44,2.72.68.36-.47.7-.99,1-1.54,1.18.42,1.25.48,1.25.63-2.56,1.79.05,1.39.41,3.04-.41,1.56-1.82-.59-2.45-1-.98.73-2.43,1.92-3.46,1.81Zm1.04-4.69l-.99.05s0-.6,0-.6c0,0,.99.05.99.05h5.09c.34-.64.44-.5,1-.13.33.25.41.35.41.45-.79.81-.02,2.58.34,3.28.35.55.58-.65.72-.86,0,0,.14.05.14.05-.11.68-.14,1.02-.14,1.28.07.5.5,1.29-.34,1.31-1.71-.57-1.97-2.66-2.12-4.88,0,0-5.1,0-5.1,0Zm.4-1.91c.65.07,3.79.05,4.51.05.19-.24.43-.49.66-.74,1.02.93,1.26.89.89,1.24-.72,0-5.46-.03-6.06.05,0,0,0-.6,0-.6Z"/>
  <path d="m130.22,3.18v-.76c-.43-.01-1.34.02-1.77.05,0,0,0-.6,0-.6,0,0,1,.05,1,.05h.77c0-.75-.03-1.11-.05-1.41,1.52.14,1.71.23.97.62,0,0,0,.79,0,.79h.33c.2-.26.36-.44.58-.68.83.77.89.87.89.97.13.43-1.66.13-1.8.21,0,0,0,.76,0,.76h.6c.25-.78,1.03-.03,1.19.34,0,.12-.07.2-.31.31v.38c-.17,1.67.59,2.23-.62,2.38-.17,0-.27-.06-.28-.21-.86-.18-.49.52-.55,1.1.53.13.69-.38,1.02-.7,2.16,1.76-.07,1.06-1.01,1.2-.1,1.33.47,1.54-.71,1.7-.22,0-.32-.09-.32-.26.04-1.72.37-1.49-1.72-1.39,0,0,0-.6,0-.6l1,.05c1.06.15.72-.3.77-1.1,0,0-.55,0-.55,0,0,.27-.32.4-.64.4-.66-.19-.12-.77-.26-2.81-.2-1.84.41-.59,1.47-.79Zm-.52.5c-.09,0-.04.75-.05.79,0,0,.57,0,.57,0-.03-.53.21-.92-.52-.79Zm-.05,1.29v.91h.56c-.05-.58.25-1.05-.56-.91Zm1.49-1.29v.79h.58v-.79h-.58Zm.01,1.29c.05.59-.25,1.05.57.91,0,0,0-.91,0-.91h-.57Zm2.69,2.07l-1,.05v-.6c.36.02,1.21.06,1.56.05,0,0,0-.08,0-.08,0-.56-.02-1.06-.05-1.48,1.27.12,1.5.2,1.5.34s-.11.21-.41.33v.89c.57.14.7-.41,1.07-.76,2.43,1.85-.07,1.11-1.07,1.26,0,0,0,1.83,0,1.83h.55c.21-.29.42-.55.67-.83,1.01.88,1.07.99,1.07,1.1.25.5-4.55.11-4.65.23,0,0-1,.05-1,.05v-.6c.56.05,1.75.06,2.32.05,0,0,0-1.83,0-1.83h-.56Zm2.04-5.8c.46-.55.37-.4.98,0,.37.3.45.36.45.5-.5.4-1.03,1.25-1.55,1.8.47.43,1.71.42,2.09.89-.34.12-.58.33-.76.61-.13.26-.2.26-.42.16-1.6-1.24-2.16-.65-3.85.12,0,0-.07-.16-.07-.16,2.03-.99,1.7-1.62.86-3.41,0,0-.85.05-.85.05v-.6c.59.06,2.5.06,3.12.05Zm-1.96.5c.68,1.3,1.43,1.58,1.87,0,0,0-1.87,0-1.87,0Z"/>
  <path d="m140.27,3.41c4.96.71.52-1.42,2.16-1.5.78.14,1.27.57,1.06,1.49.53-.12,1.62.22,1.34-.74,0-.38-.12-.77-.38-.96-.17-.11-.51-.31-.33-.53.29-.21,1.77.56,1.79.91-.05.35-.13.84-.11,1.1.84.02,1.35-.5,2.04-.04.48.28.43.86-.19.84-2.74-.62-1.67.85-2.72,2.54-.45.65-2.11,2.79-2.84,2.27,1.16-.9,4.52-5.41,1.42-4.79-.02.47.27,1.52-.32,1.72-.52.11-.44-1.29-.46-1.66-1.12.09-1.32.17-1.75.36-.32.03-1.61-.9-.7-1.02Z"/>
  <path d="m155.57,1.16c.6-.06,1.76.51,1.02,1.07,0,0,0,.74,0,.74.72-.03,1.29-.32,1.78-.47.35.03,1.29,1.12.9,1.46-.28.19-.45.07-.65.61-.93,2.2-3.16,4.06-5.4,4.39-1.11-.21,1.52-.99,1.74-1.36.98-.59,3.94-3.7,2.16-4.12-.89.24-3.34-.36-2.29,1.27.3.43-.41,1.46-.81.73-.38-.6.03-1.29-.52-1.85-.5-.05-.74-.17-.74-.37.54-1.27,3.69,1.27,2.81-1.3-.1-.32-.31-.2-.38-.38,0-.2.19-.42.4-.41Z"/>
  <path d="m170.86,3.14c.31.2.73.43.94.73.18.46-.32.76-.73.56-1.19-.32-2.63-.85-2.69.87-.23,1.11-.69,1.97-1.43,2.78-.18.19-1.31,1.26-1.54.84.05-.36.89-.76,1.03-1.13.19-.25.42-.53.54-.82.37-.76.78-1.72.68-2.57-.3-.06-.57,0-1.22.05-.92.03-1.35.42-1.94-.13-.17-.19-.39-.65.01-.66.86.19,2.49.28,3.26-.18.04-.43.13-1.29-.05-1.65-.7-.15-.68-.55-.05-.82.4.02.75.2,1.06.42.57.5-.18,1.1-.04,1.8-.05.53.52.28.89.24.57-.04.69-.56,1.27-.34Z"/>
  <path d="m178.89,0c1.26.44,1.28.78.65,2.41.47.11,1.22.45.82.97-1.03.62-2.68,2.1-.45,2.2.28.02.49.21.49.47,0,.68-1,.58-1.58.37.11,4.15,4.48,1.34,1.87-1.31-2.1-2.1.74-.54,1.34.54,2.06,2.27-1.68,5.16-3.38,2.85-.31-.66-.39-1.45-.41-2.33-.5-.28-.74-.62-.74-1.03,0-.35,2.42-2.16.68-2.43-.38-.18-.97-1-.42-1.17.88.79,1.42,1.18,1.36-.4.05-.38-1.24-1.11-.23-1.14Zm-.6,5.21c.02-.12.06-.33.12-.62-.31.24-.52.45-.12.62Zm1.06-2.21c-.06.21-.11.37-.14.48.48-.34.62-.49.14-.48Z"/>
  <path d="m187.29,7.42c3.56.32,2.18,4.65.84,1.39-.1-.38-1.5-1.15-.84-1.39Z"/>
  <path d="m201.33,8.43v.31c.15.26-1.17.83-1.25.18,0-.27.09-1.35.09-6.02-.08-1.36-.16-2.01,1.16-1.34,0,0,3.46,0,3.46,0,.18-.38.3-.44.41-.44.34.02,1.76.93.74,1.25-.02,3.59.08,5.56.09,6.14,0,.34-.41.51-.95.51-.34.04-.31-.35-.3-.59,0,0-3.45,0-3.45,0Zm.02-6.37c-.06,0,0,2.61-.02,2.63,0,0,3.45,0,3.45,0v-2.63h-3.43Zm3.43,5.87v-2.74h-3.45v2.74h3.45Z"/>
  <path d="m216.23,2.12c.31-.91,1.32.07,1.43.49,0,.11-.12.24-.58.3-.31.15-.8.75-1.15.58.1-.29.19-.58.26-.87h-6.29c.08,1.15-1.21,1.61-1.41.66.05-.68,1.1-.76.97-1.61.25-.09.28.28.36.45,0,0,1.19,0,1.19,0-.28-.4-.42-1-.92-1.31.69-.45,1.97.56,1.8.84,0,.22-.09.38-.21.47h.83c0-.49,0-1.36-.05-1.69,1.3.12,1.51.2,1.51.34s-.11.21-.4.33v1.02c.89.21.94-.91,1.26-1.56,2.34.73.62.78-.19,1.56,0,0,1.59,0,1.59,0Zm-3.73,3.84v-.59h-.99c-.04.19-.27.36-.75.36-.63-.1-.05-1.94-.27-2.71.98.44,2.99.33,3.97.33.22-.87,1.18.03,1.34.34,0,.12-.09.22-.33.35-.07.92.38,1.54-.73,1.56-.16,0-.26-.06-.27-.23h-.82c-.23.15-.1.61-.13.85,0,0,1.84,0,1.84,0,.32-.63.37-.47.97-.12.5.37.56.52.07.78,0,0,0,.27,0,.27.05,1.35.29,2.02-1.2,2.13-.18,0-.2-.02-.25-.21-.1-.37-.31-.62-.79-.75v-.15c1.56.29,1.19-.29,1.22-1.45,0,0-1.86,0-1.86,0-.21,2.16.75,2.83-.77,3.04-.21,0-.32-.1-.32-.26,0-.3.06-.95.07-2.78-.03.03-1.78-.06-1.79.03,0,0,0,2.1,0,2.1.14.24-1.02.74-1.07.16.33-.53-.77-3.92,1.07-2.79,0,0,1.79,0,1.79,0v-.26Zm-.95-2.11c-.08,0,0,.99-.03,1.02,0,0,2.95,0,2.95,0v-1.02h-2.92Z"/>
  <path d="m220.27,3.41c4.96.71.52-1.42,2.16-1.5.78.14,1.27.57,1.06,1.49.53-.12,1.62.22,1.34-.74,0-.38-.12-.77-.38-.96-.17-.11-.51-.31-.33-.53.29-.21,1.77.56,1.79.91-.05.35-.13.84-.11,1.1.84.02,1.35-.5,2.04-.04.48.29.43.86-.19.84-2.74-.62-1.67.85-2.72,2.54-.45.65-2.11,2.79-2.84,2.27,1.16-.9,4.52-5.41,1.42-4.79-.02.47.27,1.52-.32,1.72-.52.11-.44-1.29-.46-1.66-1.12.09-1.32.17-1.75.36-.32.03-1.61-.9-.7-1.02Z"/>
  <path d="m235.57,1.16c.59-.06,1.76.51,1.02,1.07,0,0,0,.74,0,.74.72-.03,1.29-.32,1.78-.47.35.03,1.29,1.12.9,1.46-.28.19-.45.07-.65.61-.93,2.2-3.15,4.06-5.4,4.39-.49-.02-.39-.29.06-.44,2.05-.88,4.18-2.62,4.44-4.88-.66-.29-.88-.12-1.79-.05-1.28.06-1.65.06-1.04,1.28.13.44-.49,1.3-.86.62-.38-.6.03-1.29-.52-1.85-1.09-.03-.78-.72-.08-.8.61.17,1.62.46,2.23.23.1-.26.08-1.28-.36-1.38-.3-.08.07-.55.29-.5Z"/>
  <path d="m250.86,3.14c.51.25,1.63,1.11.5,1.36-.81-.1-2.38-.9-2.81.05-.26,1.31-.66,2.58-1.61,3.54-.18.19-1.31,1.26-1.54.84.05-.36.89-.76,1.03-1.13.19-.24.4-.5.53-.78.18-.38,1.32-2.86.35-2.63-.72-.09-2.27.58-2.81-.06-.34-.35-.28-.86.34-.58.87.14,1.87.03,2.74-.1.32-.1.22-.49.25-.73-.05-.29.09-.83-.1-1.07-.12-.1-.42-.05-.49-.25-.18-.23.08-.31.23-.47.39-.31,1.22.19,1.45.54.1.73-.95,2.33.66,1.81.57-.04.68-.56,1.27-.34Z"/>
  <path d="m258.89,0c1.26.44,1.28.78.65,2.41.47.11,1.22.45.82.97-1.03.62-2.68,2.1-.45,2.2.28.02.49.21.49.47,0,.68-1,.58-1.58.37.11,4.15,4.48,1.34,1.87-1.31-2.1-2.1.74-.54,1.34.54,2.06,2.27-1.68,5.16-3.38,2.85-.31-.66-.39-1.45-.41-2.33-.5-.28-.74-.62-.74-1.03,0-.35,2.42-2.16.68-2.43-.38-.18-.97-1-.42-1.17.88.79,1.42,1.18,1.36-.4.05-.38-1.24-1.11-.23-1.14Zm-.6,5.21c.02-.12.06-.33.12-.62-.31.24-.52.45-.12.62Zm1.06-2.21c-.06.21-.11.37-.14.48.48-.34.62-.49.14-.48Z"/>
  <path d="m267.36,9.77c-1.45-1.39.8-3.64,2.18-2.18,1.45,1.39-.8,3.64-2.18,2.18Zm.34-1.84c-.98.96.54,2.49,1.5,1.5.99-.96-.54-2.49-1.5-1.5Z"/>
</svg>