<?xml version="1.0" encoding="UTF-8"?>
<svg id="a" data-name="レイヤー 1" xmlns="http://www.w3.org/2000/svg" width="230.61" height="200.5" viewBox="0 0 230.61 200.5">
  <defs>
    <style>
      .b {
        fill: #ffffff;
      }
    </style>
  </defs>
  <g>
    <path class="b" d="m2.7,86.99c-.9.31-.26-5.86-.44-6.14-.06-.78,1.74-.32,2.12-.44,2.82-.13,2.84,4.44,0,4.3,0,0-1.25,0-1.25,0-.12.38.35,2.35-.44,2.28Zm.44-3.09c.99.05,2.62.11,2.56-1.31.07-1.44-1.53-1.45-2.56-1.37,0,0,0,2.68,0,2.68Z"/>
    <path class="b" d="m9.87,87.04c-1.22.03-2.08-.93-2.03-2.16.05-.23-.12-2.25.12-2.38.25-.26.76-.08.74.31.05.56-.14,2.39.18,2.85.53.98,2.42.72,2.43-.48,1.5-.11-.47,2.17-1.43,1.85Zm1.86-.04c-.24,0-.43-.19-.43-.43.16-.36-.42-4.35.43-4.19.85-.19.27,3.84.43,4.19,0,.25-.18.43-.43.43Z"/>
    <path class="b" d="m16.5,87.03c-1.29.03-2.33-1.06-2.32-2.34.06-.18-.14-4.13.12-4.15,1.23-.78.59,2.16.74,2.59,3.24-3.12,5.77,3.73,1.46,3.91Zm0-.76c1.96.04,1.97-3.21,0-3.16-1.96-.05-1.96,3.2,0,3.16Z"/>
    <path class="b" d="m21.71,86.99c-2.16,0-.98-4.93-1.26-6.16,0-.24.18-.43.42-.42.86-.24.25,4.71.42,5.02-.02.43.2.8.63.72.63.06.39.95-.21.84Z"/>
    <path class="b" d="m24.16,81.64c-.72.01-.72-1.12,0-1.11.72-.01.72,1.12,0,1.11Zm0,5.36c-.24,0-.43-.19-.43-.43.16-.36-.42-4.35.43-4.18.85-.19.27,3.83.43,4.18,0,.25-.18.43-.43.43Z"/>
    <path class="b" d="m28.79,87.03c-4.42-.24-1.66-7.03,1.61-3.92.33.39-.33.82-.62.44-.62-.7-1.9-.54-2.3.31-.85,1.66,1.1,3.15,2.52,1.99,1.19.4-.54,1.31-1.2,1.18Z"/>
    <path class="b" d="m37.56,87.03c-1.29.03-2.33-1.06-2.32-2.34.06-.18-.14-4.13.12-4.15,1.23-.78.59,2.16.74,2.59,3.24-3.12,5.77,3.73,1.46,3.91Zm0-.76c1.96.04,1.97-3.21,0-3.16-1.96-.05-1.96,3.2,0,3.16Z"/>
    <path class="b" d="m43.59,87.03c-2.94,0-2.75-4.81.17-4.68,1.29-.03,2.35,1.06,2.32,2.34,0,0-.33,0-.33,0,.03,1.23-.9,2.36-2.16,2.33Zm.17-.76c1.96.05,1.96-3.21,0-3.16-1.96-.04-1.96,3.2,0,3.16Zm1.89.73c-.82,0-.32-2.12-.27-2.61,0,0,.7.3.7.3-.12.39.35,2.37-.43,2.31Z"/>
    <path class="b" d="m47.67,83.28c-.52.03-.51-.76,0-.72.34.12,2.4-.33,2.34.37.04.67-2.01.24-2.34.35Zm1.87,3.72c-2.37.03-1.23-4.32-1.48-5.65,0-.24.18-.43.42-.42.84-.2.26,4.11.42,4.44,0,.39.24.79.64.79.17,0,.43-.04.54.12.31.38-.1.82-.54.72Z"/>
    <path class="b" d="m52.18,85.32c-.24,0-.43-.19-.43-.43.17-.36-.43-4.66.43-4.47.86-.2.26,4.14.43,4.47,0,.25-.18.43-.43.43Zm0,1.69c-.24,0-.43-.19-.43-.43.16-.36-.42-4.35.43-4.19.85-.19.27,3.84.43,4.19,0,.25-.18.43-.43.43Zm3.46,0c-.8.08-.3-2.12-.43-2.5.2-1.64-2.51-1.9-2.6-.3-1.14.2-.16-1.38.43-1.61,1.38-.76,3.17.26,3.03,1.91-.14.38.37,2.58-.43,2.5Z"/>
    <path class="b" d="m58.44,85.32c-.24,0-.43-.19-.43-.43.17-.36-.43-4.66.43-4.47.86-.2.26,4.14.43,4.47,0,.25-.18.43-.43.43Zm0,1.69c-.24,0-.43-.19-.43-.43.16-.36-.42-4.35.43-4.19.85-.19.27,3.84.43,4.19,0,.25-.18.43-.43.43Zm3.46,0c-.8.08-.3-2.12-.43-2.5.2-1.64-2.51-1.9-2.6-.3-1.14.2-.16-1.38.43-1.61,1.38-.76,3.17.26,3.03,1.91-.14.38.37,2.58-.43,2.5Z"/>
    <path class="b" d="m66.36,87.03c-3.05.13-3.05-4.81,0-4.68,3.03-.13,3.04,4.81,0,4.68Zm0-.76c1.97.07,1.96-3.23,0-3.16-1.97-.07-1.97,3.23,0,3.16Z"/>
    <path class="b" d="m72.4,87.04c-1.22.03-2.08-.93-2.03-2.16.05-.23-.12-2.25.12-2.38.25-.26.76-.08.74.31.05.56-.14,2.39.18,2.85.53.98,2.42.72,2.43-.48,1.5-.11-.47,2.17-1.43,1.85Zm1.86-.04c-.24,0-.43-.19-.43-.43.16-.36-.42-4.35.43-4.19.85-.19.27,3.84.43,4.19,0,.25-.18.43-.43.43Z"/>
    <path class="b" d="m78.39,87.03c-.65.02-2.46-.38-1.81-1.23.45-.35.64.19,1.07.33.62.38,2.35,0,1.47-.87-4.59-.7-1.99-4.43.87-2.24.4.46-.34.81-.67.44-.52-.77-2.82-.18-1.51.64,2.52.16,3.58,2.63.56,2.94Z"/>
    <path class="b" d="m83.96,87.03c-3.05.19-3.2-4.76-.13-4.68,1.25-.24,2.9,1.9,1.71,2.64,0,0-3.4,0-3.4,0v-.67h3.37l-.35.24c.08-2.06-3.03-1.83-2.86.14-.04,1.12,1.14,1.9,2.18,1.51.37-.09.62-.5.97-.23.59.71-1.02,1.04-1.51,1.05Z"/>
    <path class="b" d="m92.19,87.03c-.76.17-2.94-.85-1.48-1.34.57.66,3.2.96,2.22-.43-.42-.3-1.82-.4-2.14-.81-1.37-1.46,1.11-2.59,2.33-1.92.88.18,1.1,1.53.02.93-.52-.77-2.82-.18-1.51.64,2.52.16,3.57,2.63.56,2.94Z"/>
    <path class="b" d="m97.51,87.03c-2.94,0-2.75-4.81.17-4.68,1.29-.03,2.35,1.06,2.32,2.34,0,0-.33,0-.33,0,.03,1.23-.9,2.36-2.16,2.33Zm.17-.76c1.96.05,1.96-3.21,0-3.16-1.96-.04-1.96,3.2,0,3.16Zm1.89.73c-.82,0-.32-2.12-.27-2.61,0,0,.7.3.7.3-.12.39.35,2.37-.43,2.31Z"/>
    <path class="b" d="m103.72,87.04c-1.22.03-2.08-.93-2.03-2.16.05-.23-.13-2.25.12-2.38.25-.26.76-.07.74.31.05.56-.14,2.39.18,2.85.53.98,2.42.72,2.43-.48,1.5-.11-.47,2.17-1.43,1.85Zm1.86-.04c-.24,0-.43-.19-.43-.43.16-.36-.42-4.36.43-4.19.85-.19.27,3.84.43,4.19,0,.25-.18.43-.43.43Z"/>
    <path class="b" d="m108.46,87c-.24,0-.43-.19-.43-.43.16-.36-.42-4.35.43-4.19.85-.19.27,3.84.43,4.19,0,.25-.18.43-.43.43Zm3.46,0c-.8.08-.3-2.12-.43-2.5.2-1.64-2.51-1.9-2.6-.3-1.14.2-.16-1.38.43-1.61,1.38-.76,3.17.26,3.03,1.91-.14.38.37,2.58-.43,2.5Z"/>
    <path class="b" d="m116.21,87.03c-2.94,0-2.75-4.81.17-4.68,1.29-.03,2.35,1.06,2.32,2.34,0,0-.33,0-.33,0,.03,1.23-.9,2.36-2.16,2.33Zm.17-.76c1.96.05,1.96-3.21,0-3.16-1.96-.04-1.96,3.2,0,3.16Zm1.89.73c-.82,0-.32-2.12-.27-2.61,0,0,.7.3.7.3-.12.39.35,2.37-.43,2.31Z"/>
    <path class="b" d="m126.49,87.08c-5.97-.37-2.6-9.7,2.16-5.92.4,1.95-2.71-2.05-4.39,1.54-1.02,2.59,1.97,4.61,4.07,2.92,1.2.73-1.17,1.56-1.85,1.45Zm2.2-1.04l-.84-.17v-1.51h-1.16c-.57.03-.57-.81,0-.78.24.05,1.73-.12,1.89.12.24.14.07,2.1.12,2.33Z"/>
    <path class="b" d="m132.44,87.04c-1.22.03-2.08-.93-2.03-2.16.05-.23-.12-2.25.12-2.38.25-.26.76-.08.74.31.05.56-.14,2.39.18,2.85.53.98,2.42.72,2.43-.48,1.5-.11-.47,2.17-1.43,1.85Zm1.86-.04c-.24,0-.43-.19-.43-.43.16-.36-.42-4.35.43-4.19.85-.19.27,3.84.43,4.19,0,.25-.18.43-.43.43Z"/>
    <path class="b" d="m137.27,81.64c-.72.01-.72-1.12,0-1.11.72-.01.72,1.12,0,1.11Zm0,5.36c-.24,0-.43-.19-.43-.43.16-.36-.42-4.35.43-4.18.85-.19.27,3.83.43,4.18,0,.25-.18.43-.43.43Z"/>
    <path class="b" d="m141.9,87.03c-4.31-.19-1.78-7.03,1.46-3.91.14-.38-.38-2.79.43-2.7.26,0,.43.17.43.43-.13,1.91.8,6.28-2.32,6.18Zm0-.76c1.96.05,1.96-3.21,0-3.16-1.97-.04-1.96,3.2,0,3.16Z"/>
    <path class="b" d="m148.4,87.03c-3.05.19-3.2-4.76-.13-4.68,1.25-.24,2.9,1.9,1.71,2.64,0,0-3.4,0-3.4,0v-.67h3.37l-.35.24c.08-2.06-3.03-1.83-2.86.14-.04,1.12,1.14,1.9,2.18,1.51.37-.09.62-.5.97-.23.59.71-1.02,1.04-1.51,1.05Z"/>
    <path class="b" d="m3.59,99.78c-1.45.12-2.36-1.57-1.4-2.68.59-.98,3.16-1.84,2.21-3.26-.6-.63-1.83.08-1.35.93.16.5,4.1,3.99,4.3,4.51,0,.29-.43.55-.66.25,0,0-3.88-3.87-3.88-3.87-1.47-1.26.11-3.45,1.76-2.54,2.27,1.65-.97,3.15-1.86,4.45-.62,1.19.83,1.89,1.74,1.25.54-.29,1.53-1.48,1.99-1.93.3-.44.86.13.5.46-.95.89-1.9,2.49-3.37,2.43Z"/>
    <path class="b" d="m12.34,99.66c-.9.31-.26-5.86-.44-6.14,0-.25.19-.44.44-.44.9-.34.26,5.87.44,6.14,0,.25-.19.44-.44.44Z"/>
    <path class="b" d="m15.31,99.67c-.24,0-.43-.19-.43-.43.16-.36-.42-4.35.43-4.19.85-.19.27,3.84.43,4.19,0,.25-.18.43-.43.43Zm3.46,0c-.8.08-.3-2.12-.43-2.5.2-1.64-2.51-1.9-2.6-.3-1.14.2-.16-1.38.43-1.61,1.38-.75,3.17.26,3.03,1.91-.14.38.37,2.58-.43,2.5Z"/>
    <path class="b" d="m20.94,95.94c-.52.03-.52-.76,0-.72.34.12,2.4-.33,2.34.37.04.67-2.01.24-2.34.35Zm1.87,3.72c-.87.01-1.51-.79-1.48-1.63,0,0,0-4.02,0-4.02-.03-.38.48-.56.72-.3.23-.09.08,4.22.12,4.32,0,.39.24.79.64.79.17,0,.43-.04.54.12.31.38-.1.82-.54.72Z"/>
    <path class="b" d="m25.44,99.66c-.84.21-.26-3.85-.42-4.19,0-.27.15-.42.42-.42.85-.22.26,3.85.42,4.19,0,.27-.14.42-.42.42Zm0-2.88c-.04-2.66,4.25-1.64,2.33-.97-.8-.18-1.88.03-1.9.97,0,0-.43,0-.43,0Z"/>
    <path class="b" d="m31.37,99.69c-3.05.13-3.05-4.81,0-4.68,3.03-.13,3.04,4.81,0,4.68Zm0-.76c1.97.07,1.96-3.23,0-3.16-1.97-.07-1.97,3.23,0,3.16Z"/>
    <path class="b" d="m37.57,99.69c-4.31-.19-1.78-7.03,1.46-3.91.14-.42-.48-3.37.74-2.59.25-.02.07,4.01.12,4.15.03,1.28-1.03,2.37-2.32,2.34Zm0-.76c1.96.05,1.96-3.21,0-3.16-1.97-.04-1.96,3.2,0,3.16Z"/>
    <path class="b" d="m43.84,99.7c-1.22.03-2.08-.93-2.03-2.16.05-.23-.12-2.25.12-2.38.25-.26.76-.08.74.31.05.56-.14,2.39.18,2.85.53.98,2.42.72,2.43-.48,1.5-.11-.47,2.17-1.43,1.85Zm1.86-.04c-.24,0-.43-.19-.43-.43.16-.36-.42-4.36.43-4.19.85-.19.27,3.84.43,4.19,0,.25-.18.43-.43.43Z"/>
    <path class="b" d="m50.25,99.69c-4.42-.24-1.66-7.03,1.61-3.92.33.39-.33.82-.62.44-.62-.7-1.9-.54-2.3.31-.85,1.67,1.1,3.15,2.52,1.99,1.19.4-.54,1.31-1.2,1.18Z"/>
    <path class="b" d="m53.53,95.94c-.52.03-.52-.76,0-.72.34.12,2.4-.33,2.34.37.04.67-2.01.24-2.34.35Zm1.87,3.72c-.87.01-1.51-.79-1.48-1.63,0,0,0-4.02,0-4.02-.03-.38.48-.56.72-.3.23-.09.08,4.22.12,4.32,0,.39.24.79.64.79.17,0,.43-.04.54.12.31.38-.1.82-.54.72Z"/>
    <path class="b" d="m58.13,94.3c-.72.01-.72-1.12,0-1.11.72,0,.72,1.12,0,1.11Zm0,5.36c-.24,0-.43-.19-.43-.43.16-.36-.42-4.35.43-4.18.85-.18.27,3.83.43,4.18,0,.25-.18.43-.43.43Z"/>
    <path class="b" d="m62.75,99.69c-3.05.13-3.05-4.81,0-4.68,3.03-.13,3.04,4.81,0,4.68Zm0-.76c1.97.07,1.96-3.23,0-3.16-1.97-.07-1.97,3.23,0,3.16Z"/>
    <path class="b" d="m67.29,99.67c-.24,0-.43-.19-.43-.43.16-.36-.42-4.36.43-4.19.85-.18.27,3.84.43,4.19,0,.25-.18.43-.43.43Zm3.46,0c-.8.08-.3-2.12-.43-2.5.2-1.64-2.51-1.9-2.6-.3-1.15.2-.16-1.38.43-1.61,1.38-.75,3.17.26,3.03,1.91-.14.38.37,2.58-.43,2.5Z"/>
    <path class="b" d="m78.4,99.69c-1.29.03-2.33-1.06-2.32-2.34.06-.18-.14-4.13.12-4.15,1.23-.78.59,2.16.74,2.59,3.24-3.12,5.77,3.73,1.46,3.91Zm0-.76c1.96.05,1.97-3.21,0-3.16-1.96-.05-1.96,3.2,0,3.16Z"/>
    <path class="b" d="m84.6,99.69c-3.05.13-3.05-4.81,0-4.68,3.03-.13,3.04,4.81,0,4.68Zm0-.76c1.97.07,1.96-3.23,0-3.16-1.97-.07-1.97,3.23,0,3.16Z"/>
    <path class="b" d="m90.79,99.69c-3.05.13-3.05-4.81,0-4.68,3.03-.13,3.04,4.81,0,4.68Zm0-.76c1.97.07,1.96-3.23,0-3.16-1.97-.07-1.97,3.23,0,3.16Z"/>
    <path class="b" d="m95.31,99.66c-.86.34-.24-5.92-.41-6.17,0-.24.17-.42.41-.41.85-.34.24,5.92.41,6.17,0,.24-.17.42-.41.41Zm.4-1.69l-.52-.57c.16-.08,2.7-2.56,2.87-2.42,1.47.3-2.23,2.65-2.35,2.99Zm2.61,1.64c-.53.59-1.96-1.98-2.28-2.17,0,0,.59-.56.59-.56.12.36,2.37,2.33,1.69,2.72Z"/>
  </g>
  <g>
    <path class="b" d="m226.44,136.53c-4.54-6.63-16.3-.52-24.26-1.57-1.46-.74-.69-3.87-.92-5.85-.83-3.4.71-7.85-.11-10.79-.69-2.63-6.07-5.99-9.11-4.17-.95,2.89,2.64,3.96,3.06,6.51.9,4.02,1.05,8.79,1.03,13.74-.23,1.97-2.39,1.84-4.36,2.06-4.74.66-10.02,1.91-15.42,1.3-2.99-.13-11.33-4.7-7.91,1.57,4.78,6.12,19.77-1.65,27.05.19,1.57,16.55-5.08,30.39-13.09,39.11-1.07,4.19,6.54-3.92,6.78-4.55,5.87-6.43,9.89-14.7,11.25-25.64,1.33-8.18-2.16-10.62,8.08-10.22,2.85-.93,19.72,2.62,17.94-1.68Z"/>
    <path class="b" d="m110.47,25.57c.32,1.51,2.73,1.68,3.71.65.59-.7.9-1.63,1.68-2.14,5.42-.47,11.7-.06,17.45-.19,1.56.12,1.77,1.41,2.6,2.25,2.79,1.23,4.48-1.47,3.82-4.36.18-5.19-.34-11.08.19-15.91.2-.99,1.5-2.05.46-3.06-1.6-2.14-4.28-1.85-6.31-.38-6.17.11-14.96,1.16-20.16-.54-1.72-1.29-4.28-.23-3.44,2.33.08,7.09-.12,14.62,0,21.36Zm4.44-18.75c-.16-3.69,14.24-1.48,18.59-2.06.86.21,1.43.48,1.68,1.3-.21,2.11.66,5.31-.92,6.04-5.61.54-11.86-.06-17.75.08-2.21-.2-1.5-3.08-1.6-5.37Zm0,9.46c.18-1.07.52-1.66,1.49-1.95,5.8,0,11.6,0,17.4,0,2.06.24,1.75,6.01.73,7.26-5.45.66-12.52.17-18.32.19-1.69-.6-1.21-3.31-1.3-5.5Z"/>
    <path class="b" d="m27.4,16.28c1.05,1.99,4.94,1.02,7.24.76,4.06-.69,2.52,4.29,2.87,7.34-.25.58-.64.84-1.19,1.11-2.03.47-11.05-.15-7.07,2.6,7.8.68,8.58-3.55,9.4,6.31.23,4.43-7.57,1.36-9.86,3.33-.94,4.5,8.46-.35,10.33,1.68,1.17,2.14,1.42,5.22,2.41,7.53.94,1.48,1.23,3.82-.57,4.55-1.18,1.17-2.72,1.98-3.98,3.06-3.18,2.09-6.44,4.09-9.86,5.94-6.76,4.74,11.01-2.03,11.44-3.06,9.26-5.46,4.67-3.52,12.17,2.25,2.42,1.24,5.49,4.59,9.11,2.95,1.36-1.53-.33-3.78-.46-5.66.48-6.56-.57-5.51-2.33-1.11-1.15,2.43-3.17,1.09-4.72-.08-1.38-1.32-2.94-2.46-3.82-4.28.09-2.16,2.01-2.61,2.87-4.01,1.33-1.08,2.32-2.51,3.63-3.6,1.38-.52,3.02-1.19,1.49-2.71-.89-.85-2.77-2.09-4.09-.84-.96.9-5.44,7.72-6.78,5.58-1.07-1.58-1.35-3.99-1.95-6.04-.21-3.22,4.35-2.2,6.78-2.87,2.92-1,7.67-.33,9.76-2.14.41-1.74-2.16-2.7-3.44-2.68-2.14.03-2.28,2.12-4.36,2.22-2.18.49-4.47.85-6.88,1.11-2.04.75-2.91-.64-3.06-2.41-.24-3.66-1.58-6.48,2.98-6.5,2.52-.71,14.66-.02,11.25-3.44-2.58-2.07-3.86-.5-6.04.65-1.56.69-4.04.48-5.85.92-2.44.45-3.22-.55-3.25-2.79-.12-3.72-.83-5.92,3.25-5.93,4.6-.75,10.49-.25,14.12-1.95.73-1.6-1.52-2.62-2.98-2.79-1.28-.32-2.07.83-2.87,1.3-1.91,1.29-5.47.99-8.27,1.41-5.04,1.69-3.34-5.4-3.25-8.75.4-1.13,1.96-2.04.65-3.25-8.93-5.31-2.87,8.66-5.77,12.55-1.86,1.17-9.12-.68-9,1.76Z"/>
    <path class="b" d="m45.7,3.46c.87.96,2.05,1.62,2.79,2.71,1,.91,1.38,2.46,2.33,3.41,2.6,2.34,4.23-3.19,1.95-4.44-.36-.9-6.97-4.3-7.07-1.68Z"/>
    <path class="b" d="m93.1,1.13c2.47,2.33,4.81,4.69,5.75,8.56.82,1.7,3.26.75,3.44-.92.72-1.81-.44-3.57-1.11-4.66-.34-.79-8.3-6.21-8.08-2.98Z"/>
    <path class="b" d="m230.61,53c-3.45-4.17-14.07-4.9-18.4-1.03-1.24.64-2.05,1.71-2.95,2.68-.73.76-.8,2.31-2.06,1.49-2.28-1.16-6.74.21-9.11-.92-4.93-1.23-5.43-8.04-4.82-14.12.42-6.79,1.72-12.61,5.94-15.61,2.52-3,7.21-3.65,12.82-3.55,9.3,2.49,5.52-6.73-7.62-2.03-7.81,1.7-14.89,4.14-22.3,6.23-1.71.29-3.7.5-5.56.19-1.06-.53-4.55-1.61-3.9.73,2.84,10.64,28.29-8.07,22.85-.38-4.85,4.27-7.71,25.19-1.57,30.11,1.86,1.75,4.57,2.69,8.08,2.79,2.7.4,6.53-.79,3.82,2.52-3.02-.13-5.77.19-7.34,1.76-3.01,2.63-3.13,5.41-3.36,9.95-.65,1.19-1.61,2.01-2.03,3.44-.21,1.09-.54,3.82.84,3.52.09-1.58.29-3.08,1.03-4.01,1.64-2.98,3.77-3.03,7.15-2.41-.56-3.87-8.54,1.39-4.39-6.51,1.03-1.73,2.42-3.19,4.66-3.71,1.42-.8,3.96.35,5.2-.38,1.29-7.04,5.04-11.46,12.25-12.44,2.64-.07,5.01.14,6.8.92,1-.11,4.08,2.39,3.98.76Z"/>
    <path class="b" d="m216.95,27.71c-.94-.89-7.43-2.29-4.93.46,1.62.67,2.81,1.78,4.01,2.87,4.24,2.77,4.94-2.33.92-3.33Z"/>
    <path class="b" d="m212.97,34.79c6.4-2.63-10.17-8.74-6.15-3.9,2.15,1.18,3.13,3.61,6.15,3.9Z"/>
    <path class="b" d="m147.63,29.93c-1.61-2.19-4.04-2.35-6.21-.65-10.05,1.34-23.37.42-34.01.3-2.22-.35-5.61.13-3.06,2.03,2.05.97,6.26-.18,8.46.65,1.73,1.49-2.86,6.42-3.36,8-1.35,1.69-2.45,3.62-3.9,5.2-.89,1.2-5.45,6.43-.73,3.52,2.88-2.19,5.54-4.61,7.8-7.43.82-1.64,4.43-2.48,6.13-1.03.62,2.52-6.99,11.13-8.83,12.82-1.62,2.09-3.91,3.52-5.56,5.58-.85,3.08,10.07-5.41,10.41-6.12,2.51-2.12,4.66-4.64,6.5-7.43,1.99-2.39,2.25-6.29,7.34-5.58,4.27.1-4.83,12.26-5.77,13.28-1.85,2.54-4.09,4.72-6.42,6.78-7.6,6.65,2.94,1.18,5.12-.73,2.72-2.17,5.32-4.46,7.24-7.43,1.98-2.5,3.59-5.42,4.93-8.56.67-.82.83-2.24,1.87-2.68.93-1.02,3.91-1.13,4.17.54-.51,6.35-.34,13.56-3.98,16.75-.94,1.76-10.21-.91-5.2,2.22.8.7,1.25,1.7,1.84,2.6,1.11,1.9,4.4.08,5.77-.46,3.91-2.73,4.63-8.55,5.39-14.42.15-2.33.12-4.83.65-6.78,1.07-.94,1.33-2.67,0-3.52-2.38-2.19-4.4-.06-6.99.46-5.16-.11-10.47.29-15.5,0-2.91.13-6.8.23-4.66-2.71,1.55-3.3,3.56-3.13,7.99-3.25,7.13,0,14.26,0,21.38,0,.92-.18,1.6-.8,1.19-1.95Z"/>
    <path class="b" d="m88.08,43.32c2.55,2.38,4.6,5.13,5.09,9.57.43,2.75-.51,6.9.65,8.92,3.87,4.11,5.38-4.83,4.09-8.35-.82-5.17-3.85-6.67-1.11-12.28.02-1.55,10.21-30.3,5.93-23.88-3.14,7.7-6.11,15.57-9.3,23.23-.74,4.65-5.82-.23-5.37,2.79Z"/>
    <path class="b" d="m136.11,130.1c-2.02-3.09-5.04-4.06-8.65-1.84-3.15.58-9,1.77-11.98.54-1.55-4.06,2.58-10.21-1.11-12.17-1.82-1.96-8.52-2.19-4.55,1.6,2.12,1.63,2.1,6.98,1.49,10.41-.75,1.87-5.55,1.11-7.53.81-1.48-.8-2.3-2.29-4.09-2.76-.97-.94-4.3-.52-2.98,1.3.47.82,1.15,1.45,1.6,2.3,1.45,4.18.26,11.04,2.14,14.77,1.1,2.24,4.26,1.91,4.44-.92.67-3.5-3.27-10.72.57-11.44,5.43-.11,10.79-.29,16.07-.54,2.72-.44,6.28-.86,6.12,2.41.16,6.71-1.31,11.82-3.33,16.34-2.29,5.62-5.7,10.11-9.57,14.15-3.63,3.57-7.8,6.58-12.93,8.65-2.42,1.16-5.25,1.92-8.08,2.68-1.86.5-4.31.41-5.58,1.49-.03,2.29,7.79.08,9.3-.19,14.23-3.61,23.53-12.27,30.49-23.15,2.82-5.6,5-11.84,6.02-19.24.42-1.92,2.58-2.87,2.14-5.2Z"/>
    <path class="b" d="m87.98,17.68c1.25,1.08,2.41,2.22,3.36,3.6,1.1,1.4,1.07,4.88,3.41,4.66,4.05-1.76.1-7.35-2.3-8.18-.64-.68-6.28-2.66-4.47-.08Z"/>
    <path class="b" d="m.63,25.68c2.04-1.16,3.06-3.35,5.31-4.28,1.72.85,5.09.05,6.4,1.3.47,2.15.84,6.77-.08,8.73-1.48,2.06-12.87-1.73-11.25,1.76,15.67,3.39,11.1-5.95,11.79,20.65-.16,4.09-14.48,2.06-11.33,6.96.48,1.15,1.99,3.23,3.33,1.95,2.16-2.5,6.62-2.74,9.68-4.36,1.13-.36,18.36-6.82,12.93-7.15-2.39.24-8.67,3.5-10.24,1.95-.81-4.12-.14-9.7-.35-14.42.35-1.39-.39-3.86.73-4.47,1.88-1.57,10.72,1.36,9.49-2.22-.35-.69-1-1.21-1.87-1.38-1.64-.77-2.67,1.01-4.07,1.19-1.66-.04-3.37.38-4.01-.84-.24-2.49-.56-6.51.38-8.46,1.22-1.71,7.98.81,7.16-2.22-1.46-2.77-3.83-1.24-5.96-.27-2.47-.26-11.5,1.1-10.49-1.68,1.82-3.08,4.25-5.55,5.85-8.84,1.01-1.31,2.01-4.84,4.17-2.6,2.19,2.27,3.71,5.15,5.01,8.29.59,1.13,2.34.93,3.17.16.74-1.57-.22-4.1-.92-5.2-1.1-1.81-2.82-3-4.55-4.17-2.53-1.14-2.61-.96-2.52-3.79-.71-1.53-4.02-3.51-5.12-1.22-1.03,2.86-2.39,5.39-3.6,8.08-1.78,3.24-3.5,6.55-5.58,9.49-.07.97-5.97,7.27-3.44,7.07Z"/>
    <path class="b" d="m20.79,49.64c2.04-1.82,3.43-4.32,4.74-6.86.5-1.19,3.26-2.37,1.57-3.82-3.94-2.34-4.61-.48-5.28,3.52-.04,1.11-3.06,7.28-1.03,7.15Z"/>
    <path class="b" d="m65.59,137.83c-2.67-6.33-11.5-2.31-18.4-2.41-3.64-1.62,1.36-13.16-1.87-15.99-.87-1.49-2.07-2.7-3.6-3.52-1-1.19-5.76-1.73-3.82,1.03,4.27,2.46,4.21,11.23,3.44,17.45-.47,2.08-4.17,1.23-6.5,1.49-2.04-.03-5.6.95-6.69-.46-1.32-3.81.52-10.81-2.03-13.39-.6-1.62-7.72-4.29-6.04-.27,3.64,2.53,3.82,7.04,3.44,13.09-.17,2.61-4.5,1.26-6.69,1.87-3.28.03-6.56.06-9.3-.46-1.52-.41-3.29-1.45-5.12-1.11-2.37.32-.93,3.09.11,3.79,2.94,2.57,9.51,1.92,14.5,1.57,2.77-.3,7.62-1.87,6.5,2.6.49,4.15-1.52,10.15,1.19,12.2.91.78,2.89.25,3.06-.84,1.4-3.68-.4-9.54.3-13.85.06-1.95,2.45-1.66,4.36-1.76,2.36,0,6.96-1.14,8.35.46.77,14.16-3.13,27.4-11.41,33.63-1.38,1.37-3.37,2.15-5.01,3.25-1.15.43-1.02-2.38-1.87-2.98-2.25-3.78-6.17-5.9-11.33-6.78-2.83-.24-5.6.03-7.72.76-.97.24-4.86,2.2-2.52,2.6,1.93-.57,3.63-1.4,5.85-1.68,8.36-.24,13.17,3.38,15.18,9.48.52,1.65.39,3.86.08,5.56-.35.96-1.87,3.57.46,3.36,3.77-2.46,8.92-.8,10.14,2.95.8,1.49.9,3.69.84,6.04,2.33,1.72,1.81-6.13.92-7.24-.16-3.15,6.81-2.34,9.11-1.76,6.24,1.39,10.05,5.33,10.95,12.06-.22,2.18,1.32,2.74,1.41.38-.12-2.44-.52-4.53-1.3-6.31-1.66-3.3-4.02-5.9-7.53-7.34-4.49-2.57-9.89-1.01-13.93.27-1.9-.61-3.08-1.93-5.58-1.95-.91-.02-4.46,1.25-3.71-1.46.8-1.34-.42-4.25,1.11-4.66,2.83-1.22,5.25-2.87,7.62-4.55,6.05-4.78,10.27-11.42,12.09-20.43.86-2.55.74-6.08,1.03-9.21.1-1.68-.4-4,.92-4.44,4.05-.73,9.46.15,13.74.27,1.8.19,5.96,1.9,5.31-1.3Z"/>
    <path class="b" d="m3.23,38.5c-.77,1.33.77,2.98,1.03,4.28.7,2.21.41,5.21.54,7.81.01,1.83,2.46,1.75,3.09.54,1.06-1.26,1.23-4.14.65-6.04-.75-2.68-2.58-5.98-5.31-6.59Z"/>
  </g>
</svg>