<?xml version="1.0" encoding="utf-8"?>
<!-- Generator: Adobe Illustrator 27.1.1, SVG Export Plug-In . SVG Version: 6.00 Build 0)  -->
<svg version="1.1" id="レイヤー_1" xmlns="http://www.w3.org/2000/svg" xmlns:xlink="http://www.w3.org/1999/xlink" x="0px"
	 y="0px" viewBox="0 0 410.68 169.76" style="enable-background:new 0 0 410.68 169.76;" xml:space="preserve">
<style type="text/css">
	.st0{fill:#61C1BE;}
</style>
<g>
	<g>
		<g>
			<path class="st0" d="M31.01,106.62c-4.85,0-15.08-13.5-16.81-16.82c-2.6-5-3.66-11.46-3.26-19.77c0.06-1.21,1.1-2.15,2.3-2.08
				c1.21,0.06,2.14,1.09,2.08,2.3c-0.37,7.51,0.54,13.25,2.77,17.53c2.35,4.53,10.59,13.71,12.94,14.45
				c2.06-0.17,5.17-1.18,6.22-1.56c1.14-0.41,2.4,0.18,2.81,1.31c0.41,1.14-0.17,2.4-1.31,2.81c-0.18,0.07-4.47,1.62-7.58,1.82
				C31.12,106.61,31.07,106.62,31.01,106.62z M31.11,102.24C31.11,102.24,31.11,102.24,31.11,102.24L31.11,102.24z"/>
			<path class="st0" d="M38.57,120.75c-0.28,0-0.56-0.05-0.83-0.16c-1.12-0.46-1.66-1.74-1.2-2.86c1.5-3.65,1.22-12.8-0.48-16.05
				c-0.56-1.07-0.15-2.4,0.92-2.96c1.08-0.56,2.4-0.15,2.96,0.92c2.29,4.37,2.64,14.89,0.65,19.75
				C40.25,120.23,39.43,120.75,38.57,120.75z"/>
			<path class="st0" d="M66.96,136.14c-8.4,0-13.21-4.42-17.45-8.32c-2.83-2.6-5.27-4.85-8.45-5.63c-8.28-2.03-14.85,1-18.03,2.99
				c-1.03,0.64-2.38,0.33-3.02-0.7c-0.64-1.03-0.33-2.38,0.7-3.02c3.76-2.35,11.55-5.94,21.4-3.53c4.27,1.05,7.38,3.9,10.38,6.66
				c4.06,3.73,7.89,7.27,14.77,7.16c1.23,0,2.21,0.95,2.22,2.16c0.02,1.21-0.95,2.21-2.16,2.22
				C67.19,136.13,67.08,136.14,66.96,136.14z"/>
			<path class="st0" d="M34.8,79.11c-0.91,0-1.75-0.56-2.07-1.47c-0.4-1.14,0.2-2.39,1.34-2.8c4.84-1.7,5.5-6.89,5.5-12.25
				c0-1.75-1.43-5-3.18-5.69c-0.32-0.12-1.27-0.5-3.01,1.35c-0.83,0.88-2.22,0.93-3.1,0.1c-0.88-0.83-0.93-2.22-0.1-3.1
				c3.29-3.51,6.31-3.03,7.82-2.43c3.84,1.52,5.96,6.74,5.96,9.77c0,4.02,0,13.42-8.44,16.39C35.29,79.07,35.04,79.11,34.8,79.11z"
				/>
			<path class="st0" d="M21.61,66.86c-0.09,0-0.18-0.01-0.27-0.02c-0.32-0.04-7.89-1.01-14.67-3.72c-0.42-0.17-0.78-0.47-1.03-0.85
				C-2.39,49.8-0.1,36.99,1.99,30.47c2.75-8.6,8.19-15.82,13.54-17.96c1.13-0.45,2.4,0.1,2.85,1.22c0.45,1.12-0.1,2.4-1.22,2.85
				c-3.38,1.35-8.26,6.69-10.99,15.22c-1.81,5.68-3.82,16.72,2.79,27.5c3.45,1.31,7.13,2.15,9.68,2.64
				c-1.21-5.3-2.91-15.97-0.07-26.31c0.32-1.17,1.53-1.86,2.69-1.54c1.17,0.32,1.86,1.53,1.54,2.69C19.23,49.77,23.65,63.86,23.7,64
				c0.23,0.71,0.08,1.49-0.4,2.07C22.88,66.57,22.26,66.86,21.61,66.86z"/>
			<path class="st0" d="M29.23,68.91c-0.65,0-1.3-0.29-1.73-0.85c-5.46-7.02-7.19-26.73-4.44-35.77c0.35-1.16,1.58-1.82,2.74-1.46
				c1.16,0.35,1.81,1.58,1.46,2.74c-2.99,9.84,0.18,27.26,3.71,31.8c0.74,0.96,0.57,2.33-0.38,3.08
				C30.17,68.75,29.7,68.91,29.23,68.91z"/>
			<path class="st0" d="M92.27,22.58c-0.72,0-1.43-0.35-1.85-1.01C83.56,10.92,72.08,6.85,63.66,5.31
				c-13.5-2.46-26.21,0.24-31.32,4.02c-0.97,0.72-2.35,0.52-3.07-0.46s-0.52-2.35,0.46-3.07C36.72,0.63,51.32-1.39,64.44,1
				c9.28,1.69,21.95,6.22,29.67,18.2c0.66,1.02,0.36,2.38-0.66,3.03C93.09,22.47,92.68,22.58,92.27,22.58z"/>
			<path class="st0" d="M123.63,149.52c-0.07,0-0.14,0-0.22-0.01c-1.21-0.12-2.09-1.19-1.97-2.4c1.54-15.66-5.37-26.65-10.69-33.56
				c-8.82-11.44-11.54-21.88-9.67-37.21c0.65-5.33,1.66-9.75,2.65-14.02c1.57-6.83,2.93-12.72,2.37-20.57
				c-0.4-5.56-3-10.16-7.15-12.61c-3.66-2.16-7.96-2.39-11.79-0.63c-1.1,0.51-2.4,0.02-2.91-1.08c-0.51-1.1-0.02-2.4,1.08-2.91
				c5.09-2.34,11.01-2.03,15.86,0.84c5.41,3.2,8.79,9.06,9.29,16.07c0.61,8.51-0.89,15-2.47,21.87c-0.96,4.16-1.95,8.47-2.57,13.56
				c-1.73,14.24,0.65,23.45,8.79,34.01c5.78,7.5,13.27,19.45,11.58,36.67C125.69,148.68,124.74,149.52,123.63,149.52z"/>
			<path class="st0" d="M95.82,155.31c-0.27,0-0.55-0.05-0.82-0.16c-9.55-3.86-16.45-11.1-20.51-21.54
				c-6.5-16.73-3.64-36.87,0.34-45.2c4.89-10.23,15.52-35.88,8.79-53.08c-0.44-1.13,0.12-2.4,1.24-2.84
				c1.13-0.44,2.4,0.12,2.84,1.24c3.04,7.78,5.93,25.48-8.92,56.57c-3.8,7.95-5.98,26.87-0.21,41.73
				c3.6,9.27,9.68,15.68,18.06,19.07c1.12,0.45,1.67,1.73,1.21,2.85C97.51,154.79,96.69,155.31,95.82,155.31z"/>
			<path class="st0" d="M120.72,159.12c-0.17,0-0.34-0.02-0.51-0.06c-22.11-5.27-35.45-20.68-36.6-42.27
				c-0.06-1.21,0.86-2.24,2.07-2.31c1.21-0.07,2.24,0.87,2.31,2.07c1.06,19.8,12.86,33.38,33.24,38.24
				c1.18,0.28,1.91,1.46,1.62,2.64C122.61,158.44,121.71,159.12,120.72,159.12z"/>
			<path class="st0" d="M81.34,23.71c-0.71,0-1.4-0.34-1.83-0.98c-0.06-0.09-6.51-9.47-19.15-12.07c-1.19-0.24-1.95-1.4-1.71-2.59
				s1.4-1.95,2.59-1.71C75.71,9.34,82.87,19.86,83.16,20.3c0.67,1.01,0.4,2.37-0.61,3.04C82.18,23.59,81.76,23.71,81.34,23.71z"/>
			<path class="st0" d="M50.1,49.47c-1.99,0-4.03-0.11-6.11-0.33c-1.2-0.13-2.07-1.21-1.94-2.42c0.13-1.21,1.22-2.08,2.42-1.94
				c15.68,1.7,28.49-4.07,33.77-10.15c0.79-0.91,2.18-1.01,3.09-0.22c0.91,0.79,1.01,2.18,0.22,3.09
				C76.09,43.78,64.58,49.47,50.1,49.47z"/>
			<path class="st0" d="M51.57,57.94c-1.19,0-2.17-0.95-2.19-2.15c-0.02-1.21,0.94-2.21,2.15-2.23c9.21-0.18,20.52-5.95,23.61-9.04
				c0.86-0.86,2.24-0.86,3.1,0c0.86,0.86,0.86,2.25,0,3.1C74.25,51.6,61.6,57.75,51.61,57.94C51.6,57.94,51.58,57.94,51.57,57.94z"
				/>
			<path class="st0" d="M45.77,83.55c-1.21,0-2.19-0.98-2.19-2.19s0.98-2.19,2.19-2.19c10.27,0,27.88-13.16,33.04-24.71
				c0.5-1.1,1.79-1.6,2.9-1.1c1.11,0.49,1.6,1.79,1.11,2.9C76.88,69.52,57.84,83.55,45.77,83.55z"/>
			<path class="st0" d="M58.08,89.98c-0.17,0-0.35,0-0.53-0.01c-1.21-0.04-2.16-1.05-2.12-2.26c0.04-1.21,1.04-2.15,2.26-2.12
				c9.37,0.29,14.3-11.25,16.37-18.17c0.35-1.16,1.58-1.82,2.73-1.47c1.16,0.35,1.82,1.57,1.47,2.73
				C75.87,76.68,70.08,89.98,58.08,89.98z"/>
			<circle class="st0" cx="85.67" cy="101.55" r="2.27"/>
			<path class="st0" d="M85.53,112.46c-1.07,0-2.01-0.79-2.17-1.88c-0.17-1.23-0.07-2.92-0.06-3.11c0.08-1.21,1.09-2.15,2.33-2.04
				c1.21,0.08,2.12,1.12,2.04,2.33c-0.04,0.54-0.06,1.61,0.02,2.2c0.17,1.2-0.66,2.31-1.86,2.48
				C85.74,112.45,85.63,112.46,85.53,112.46z"/>
		</g>
		<path class="st0" d="M140.92,169.76c-0.98,0-1.84-0.65-2.11-1.59c-1.75-6.1-2.74-7.09-8.84-8.84c-0.94-0.27-1.59-1.13-1.59-2.11
			s0.65-1.84,1.59-2.11c6.1-1.75,7.09-2.74,8.84-8.84c0.27-0.94,1.13-1.59,2.11-1.59s1.84,0.65,2.11,1.59
			c1.75,6.1,2.74,7.09,8.84,8.84c0.94,0.27,1.59,1.13,1.59,2.11s-0.65,1.84-1.59,2.11c-6.1,1.75-7.09,2.74-8.84,8.84
			C142.76,169.11,141.9,169.76,140.92,169.76z"/>
	</g>
	<g>
		<path class="st0" d="M175.48,28.49c-2.53-1.49-5.45-2.25-8.67-2.25c-3.18,0-6.08,0.76-8.61,2.25c-2.53,1.49-4.56,3.55-6.03,6.12
			c-1.47,2.57-2.24,5.51-2.27,8.73v27.62c0,0.95,0.32,1.76,0.95,2.39c0.63,0.63,1.43,0.95,2.39,0.95c0.99,0,1.81-0.32,2.42-0.95
			c0.61-0.63,0.92-1.43,0.92-2.38V59.41c0-0.71,0.39-1.36,1.03-1.7c0.61-0.33,1.32-0.3,1.89,0.08c0.58,0.39,1.2,0.75,1.84,1.06
			c2.02,1,4.27,1.51,6.68,1.51c2.98,0,5.7-0.76,8.07-2.25c2.37-1.49,4.26-3.54,5.63-6.09c1.37-2.55,2.06-5.47,2.06-8.69
			c0-3.22-0.75-6.16-2.25-8.73C180.04,32.04,178.01,29.98,175.48,28.49z M177.34,43.34c0,2.09-0.47,3.99-1.39,5.66
			c-0.92,1.67-2.19,3-3.76,3.97c-1.57,0.96-3.38,1.45-5.38,1.45c-1.96,0-3.77-0.49-5.35-1.45c-1.59-0.96-2.85-2.29-3.76-3.96
			c-0.9-1.67-1.36-3.58-1.36-5.67c0-2.13,0.46-4.06,1.36-5.73c0.9-1.67,2.17-3,3.76-3.96c1.59-0.96,3.39-1.45,5.35-1.45
			c2,0,3.81,0.49,5.38,1.45c1.57,0.96,2.83,2.3,3.76,3.97C176.87,39.29,177.34,41.21,177.34,43.34z"/>
		<path class="st0" d="M285.81,105.09c-2.53-1.49-5.45-2.25-8.67-2.25c-3.18,0-6.08,0.76-8.61,2.25c-2.53,1.49-4.56,3.55-6.03,6.12
			c-1.47,2.57-2.24,5.51-2.27,8.73v27.62c0,0.95,0.32,1.76,0.95,2.39s1.43,0.95,2.39,0.95c0.99,0,1.81-0.32,2.42-0.95
			c0.61-0.63,0.92-1.43,0.92-2.38v-11.55c0-0.71,0.39-1.36,1.03-1.7c0.61-0.33,1.32-0.3,1.89,0.08c0.58,0.39,1.2,0.75,1.84,1.06
			c2.02,1,4.27,1.51,6.68,1.51c2.98,0,5.7-0.76,8.07-2.25c2.37-1.49,4.26-3.54,5.63-6.09c1.37-2.55,2.06-5.47,2.06-8.69
			c0-3.22-0.75-6.16-2.25-8.73C290.37,108.64,288.34,106.58,285.81,105.09z M287.67,119.93c0,2.09-0.47,3.99-1.39,5.66
			c-0.92,1.67-2.19,3-3.76,3.97c-1.57,0.96-3.38,1.45-5.38,1.45c-1.96,0-3.76-0.49-5.35-1.45c-1.59-0.96-2.85-2.29-3.76-3.96
			c-0.9-1.67-1.36-3.58-1.36-5.67c0-2.13,0.46-4.06,1.36-5.73c0.9-1.67,2.17-3,3.76-3.96c1.59-0.96,3.39-1.45,5.35-1.45
			c2,0,3.81,0.49,5.38,1.45c1.57,0.96,2.83,2.3,3.76,3.97C287.2,115.88,287.67,117.81,287.67,119.93z"/>
		<path class="st0" d="M222.51,52.15c1.43-2.55,2.15-5.52,2.15-8.81c0-3.34-0.73-6.33-2.18-8.88c-1.45-2.55-3.47-4.58-6-6.03
			c-2.53-1.45-5.47-2.18-8.73-2.18c-3.3,0-6.25,0.73-8.79,2.18c-2.53,1.45-4.55,3.48-6,6.03c-1.45,2.55-2.18,5.54-2.18,8.88
			c0,3.3,0.73,6.27,2.18,8.82c1.45,2.55,3.47,4.58,6,6.03c2.53,1.45,5.49,2.18,8.79,2.18c3.3,0,6.26-0.73,8.79-2.18
			C219.07,56.74,221.08,54.71,222.51,52.15z M218.23,43.34c0,2.17-0.45,4.11-1.33,5.76c-0.88,1.65-2.13,2.96-3.69,3.9
			c-1.57,0.94-3.4,1.42-5.44,1.42s-3.88-0.48-5.44-1.42c-1.57-0.94-2.82-2.25-3.73-3.9s-1.36-3.59-1.36-5.76s0.46-4.12,1.36-5.79
			c0.9-1.67,2.16-2.99,3.73-3.93c1.57-0.94,3.4-1.42,5.44-1.42s3.88,0.48,5.44,1.42c1.57,0.94,2.81,2.26,3.69,3.93
			C217.78,39.22,218.23,41.17,218.23,43.34z"/>
		<path class="st0" d="M263.99,59.23c0.63-0.63,0.95-1.44,0.95-2.39v-14.9c0-3.38-0.65-6.27-1.94-8.6
			c-1.29-2.33-3.08-4.13-5.31-5.34c-2.23-1.21-4.79-1.82-7.6-1.82c-2.7,0-5.16,0.6-7.33,1.79c-0.36,0.2-0.71,0.41-1.04,0.63
			c-0.36,0.24-0.78,0.31-1.18,0.21c-0.43-0.11-0.79-0.41-1-0.82c-0.12-0.23-0.26-0.43-0.41-0.58c-0.61-0.61-1.43-0.92-2.42-0.92
			c-0.95,0-1.75,0.31-2.38,0.92c-0.63,0.61-0.95,1.43-0.95,2.42v27.02c0,0.95,0.32,1.76,0.95,2.39c0.63,0.63,1.43,0.95,2.39,0.95
			c0.99,0,1.81-0.32,2.42-0.95c0.61-0.63,0.92-1.43,0.92-2.38V39.76c0-1.44,0.39-2.72,1.17-3.82c0.78-1.11,1.85-2.01,3.18-2.68
			c1.33-0.67,2.84-1,4.49-1c1.81,0,3.43,0.35,4.83,1.03c1.38,0.68,2.5,1.74,3.32,3.14c0.82,1.41,1.24,3.26,1.24,5.51v14.9
			c0,0.95,0.32,1.76,0.95,2.39c0.63,0.63,1.43,0.95,2.39,0.95C262.56,60.19,263.36,59.87,263.99,59.23z"/>
		<path class="st0" d="M282.53,54.33c0.76,1.44,0.82,3.12,0.16,4.61l-4.95,11.18c-0.43,0.92-0.51,1.74-0.26,2.43
			c0.26,0.71,0.88,1.29,1.84,1.72c0.59,0.25,1.12,0.38,1.55,0.38c1.2,0,2.07-0.69,2.59-2.03l18.54-41.67
			c0.43-0.94,0.51-1.77,0.24-2.47c-0.27-0.7-0.91-1.27-1.88-1.68c0,0,0,0,0,0c-1.85-0.77-3.28-0.23-4.14,1.58l-8.42,19.03
			c-0.21,0.47-0.63,0.75-1.14,0.76c-0.49,0.01-0.95-0.25-1.18-0.71l-9.64-19.15c-0.39-0.82-0.97-1.39-1.71-1.67
			c-0.75-0.29-1.54-0.25-2.37,0.09c-0.83,0.35-1.41,0.91-1.74,1.68c-0.33,0.78-0.28,1.59,0.16,2.43L282.53,54.33z"/>
		<path class="st0" d="M328.57,54.5c-0.55-0.62-1.24-0.93-2.03-0.93h-2.06c-1.22,0-2.23-0.5-3.08-1.54
			c-0.85-1.04-1.28-2.35-1.28-3.9V35.21c0-0.99,0.81-1.8,1.8-1.8h3.1c0.91,0,1.66-0.27,2.23-0.79c0.58-0.53,0.87-1.21,0.87-2
			c0-0.88-0.29-1.59-0.87-2.12c-0.57-0.53-1.32-0.79-2.23-0.79h-3.1c-0.99,0-1.8-0.81-1.8-1.8v-6.68c0-0.95-0.31-1.74-0.92-2.36
			c-0.61-0.61-1.41-0.92-2.36-0.92c-0.95,0-1.75,0.31-2.36,0.92c-0.61,0.61-0.92,1.4-0.92,2.36v6.68c0,0.99-0.81,1.8-1.8,1.8h-0.74
			c-0.91,0-1.66,0.27-2.23,0.79c-0.58,0.53-0.87,1.25-0.87,2.12c0,0.8,0.29,1.47,0.87,2c0.57,0.53,1.32,0.79,2.23,0.79h0.74
			c0.99,0,1.8,0.81,1.8,1.8v12.92c0,2.25,0.48,4.31,1.42,6.11c0.95,1.81,2.26,3.26,3.9,4.31c1.65,1.05,3.53,1.58,5.59,1.58h1.09
			c1.11,0,2.03-0.31,2.74-0.91c0.72-0.61,1.09-1.41,1.09-2.37C329.39,55.9,329.12,55.11,328.57,54.5
			C328.57,54.5,328.57,54.5,328.57,54.5z"/>
		<path class="st0" d="M367.61,34.61c-1.49-2.57-3.53-4.63-6.06-6.12c-2.53-1.49-5.43-2.25-8.61-2.25c-3.18,0-6.09,0.76-8.64,2.25
			c-2.55,1.49-4.6,3.55-6.09,6.12c-1.49,2.57-2.25,5.51-2.25,8.73c0,3.22,0.69,6.14,2.06,8.69c1.37,2.55,3.26,4.6,5.63,6.09
			c2.37,1.49,5.08,2.25,8.07,2.25c2.98,0,5.7-0.76,8.07-2.25l0.3-0.18c0.25-0.15,0.48-0.29,0.74-0.49c0.46-0.35,1.06-0.47,1.58-0.3
			c0.47,0.15,0.65,0.37,0.83,0.72l0.09,0.19c0.2,0.41,0.37,0.76,0.79,1.18c0.63,0.63,1.43,0.95,2.39,0.95
			c0.95,0,1.76-0.32,2.39-0.95c0.63-0.63,0.95-1.43,0.95-2.39V43.34C369.86,40.12,369.1,37.18,367.61,34.61L367.61,34.61z
			 M363.42,43.34c0,2.09-0.46,4-1.36,5.67c-0.9,1.67-2.16,3-3.73,3.96c-1.57,0.96-3.38,1.45-5.38,1.45c-1.96,0-3.76-0.49-5.35-1.45
			c-1.59-0.96-2.87-2.3-3.79-3.97c-0.92-1.67-1.39-3.58-1.39-5.66c0-2.13,0.47-4.05,1.39-5.72c0.92-1.67,2.2-3,3.79-3.97
			c1.59-0.96,3.39-1.45,5.35-1.45c2,0,3.81,0.49,5.38,1.45c1.57,0.96,2.82,2.3,3.73,3.96C362.96,39.28,363.42,41.21,363.42,43.34z"
			/>
		<path class="st0" d="M382.51,13.1c-1.15,0-2.16,0.42-2.99,1.25c-0.83,0.83-1.25,1.84-1.25,2.99c0,1.15,0.42,2.16,1.25,2.99
			c0.83,0.83,1.84,1.25,2.99,1.25s2.16-0.42,2.99-1.25c0.83-0.83,1.25-1.84,1.25-2.99s-0.42-2.16-1.25-2.99
			C384.67,13.53,383.66,13.1,382.51,13.1z"/>
		<path class="st0" d="M382.51,26.49c-0.95,0-1.75,0.31-2.38,0.92c-0.63,0.61-0.95,1.43-0.95,2.42v26.96c0,0.95,0.32,1.76,0.95,2.39
			c0.63,0.63,1.43,0.95,2.39,0.95c1,0,1.81-0.32,2.42-0.95c0.61-0.63,0.92-1.43,0.92-2.38V29.83c0-0.99-0.31-1.81-0.92-2.42
			C384.31,26.8,383.5,26.49,382.51,26.49z"/>
		<path class="st0" d="M409.86,54.5c-0.55-0.62-1.28-0.93-2.16-0.93h-1.51c-0.8,0-1.44-0.44-1.96-1.33
			c-0.54-0.93-0.81-2.13-0.81-3.57V15.6c0-0.95-0.31-1.75-0.92-2.36c-0.61-0.61-1.41-0.92-2.36-0.92s-1.75,0.31-2.36,0.92
			c-0.61,0.61-0.92,1.4-0.92,2.36v33.07c0,2.21,0.39,4.19,1.17,5.89c0.78,1.71,1.89,3.08,3.29,4.07c1.41,1,3.05,1.5,4.87,1.5h0.12
			c1.26,0,2.31-0.3,3.12-0.9c0.83-0.61,1.25-1.41,1.25-2.38C410.68,55.9,410.41,55.11,409.86,54.5z"/>
		<path class="st0" d="M178.74,89.05c-0.95,0-1.75,0.31-2.38,0.92c-0.63,0.61-0.96,1.43-0.96,2.42v11.3c0,1.13-0.33,1.88-0.96,2.16
			c-0.72,0.32-1.68-0.03-2.13-0.44c-0.52-0.33-1.07-0.64-1.63-0.92c-2.04-1-4.3-1.51-6.71-1.51c-2.98,0-5.7,0.76-8.07,2.25
			c-2.37,1.49-4.26,3.54-5.63,6.09c-1.37,2.55-2.06,5.47-2.06,8.69c0,3.22,0.75,6.16,2.24,8.73c1.49,2.57,3.54,4.63,6.09,6.12
			c2.55,1.49,5.45,2.25,8.64,2.25s6.08-0.76,8.61-2.25c2.53-1.49,4.57-3.55,6.06-6.12c1.49-2.57,2.24-5.51,2.24-8.73V92.39
			c0-0.99-0.31-1.81-0.92-2.42C180.55,89.36,179.73,89.05,178.74,89.05z M175.64,120.02c0,2.09-0.46,4.01-1.36,5.7
			c-0.9,1.69-2.16,3.03-3.73,3.99c-1.57,0.96-3.38,1.45-5.38,1.45c-1.96,0-3.76-0.49-5.35-1.45c-1.59-0.96-2.86-2.31-3.79-4
			c-0.92-1.69-1.39-3.61-1.39-5.7c0-2.13,0.47-4.04,1.39-5.69c0.92-1.65,2.2-2.97,3.79-3.94c1.59-0.96,3.39-1.45,5.35-1.45
			c2,0,3.81,0.49,5.38,1.45c1.57,0.96,2.83,2.29,3.73,3.94C175.19,115.97,175.64,117.89,175.64,120.02z"/>
		<path class="st0" d="M214.53,104.09c-1.23-0.81-3.1-1.22-5.56-1.22c-2.45,0-4.74,0.58-6.79,1.73c-0.57,0.32-1.11,0.68-1.62,1.06
			c-0.49,0.37-1.12,0.56-1.4,0.42c-0.05-0.03-0.21-0.1-0.21-0.54c-0.12-0.61-0.37-1.11-0.74-1.49c-0.55-0.55-1.38-0.83-2.45-0.83
			c-1.03,0-1.85,0.29-2.42,0.86s-0.86,1.38-0.86,2.42v27.08c0,1.08,0.29,1.9,0.86,2.45c0.57,0.55,1.38,0.83,2.42,0.83
			c1.08,0,1.9-0.29,2.45-0.86c0.55-0.57,0.83-1.38,0.83-2.42V115.9c0-1.78,0.58-3.27,1.72-4.43c1.15-1.17,2.75-1.98,4.75-2.41
			c2.02-0.43,4.33-0.39,6.86,0.12c0.56,0.13,1.08,0.15,1.55,0.06c0.49-0.09,0.92-0.3,1.3-0.63c0.38-0.34,0.64-0.82,0.77-1.43
			C216.3,105.98,215.81,104.94,214.53,104.09z"/>
		<path class="st0" d="M243.5,105.17c-2.53-1.45-5.47-2.18-8.73-2.18c-3.3,0-6.26,0.73-8.79,2.18c-2.53,1.45-4.55,3.48-6,6.03
			c-1.45,2.55-2.18,5.54-2.18,8.88c0,3.3,0.73,6.27,2.18,8.82c1.45,2.55,3.47,4.58,6,6.03c2.53,1.45,5.49,2.18,8.79,2.18
			s6.26-0.73,8.79-2.18c2.53-1.45,4.54-3.48,5.97-6.03c1.43-2.55,2.15-5.51,2.15-8.81c0-3.34-0.73-6.33-2.18-8.88
			C248.05,108.65,246.03,106.62,243.5,105.17z M245.24,120.08c0,2.17-0.45,4.11-1.33,5.76c-0.88,1.65-2.13,2.96-3.69,3.9
			c-1.57,0.94-3.4,1.42-5.44,1.42c-2.04,0-3.88-0.48-5.44-1.42c-1.57-0.94-2.82-2.25-3.73-3.9c-0.9-1.65-1.36-3.59-1.36-5.76
			s0.46-4.12,1.36-5.79c0.9-1.67,2.16-2.99,3.73-3.93c1.57-0.94,3.4-1.42,5.44-1.42s3.88,0.48,5.44,1.42
			c1.57,0.94,2.81,2.26,3.69,3.93C244.79,115.96,245.24,117.91,245.24,120.08z"/>
		<path class="st0" d="M323.48,119.19c-1.77-0.94-4.21-1.72-7.25-2.33c-2.16-0.44-3.82-0.89-4.92-1.35
			c-1.08-0.44-1.8-0.94-2.16-1.48c-0.35-0.54-0.53-1.16-0.53-1.83c0-1.08,0.56-1.88,1.71-2.44c1.19-0.59,2.67-0.88,4.4-0.88
			c1.5,0,2.84,0.18,3.98,0.53c1.13,0.35,2.19,1,3.17,1.94c0.64,0.6,1.44,0.99,2.37,1.15c0.95,0.17,1.79,0.02,2.5-0.47
			c0.7-0.53,1.08-1.19,1.13-1.97c0.04-0.77-0.24-1.51-0.84-2.2c-1.23-1.52-2.92-2.73-5.01-3.59c-2.08-0.86-4.5-1.29-7.18-1.29
			c-2.08,0-4.1,0.34-6.02,1.01c-1.93,0.68-3.53,1.72-4.77,3.1c-1.25,1.39-1.88,3.17-1.88,5.29c0,2.41,0.96,4.47,2.84,6.12
			c1.86,1.64,4.89,2.88,9,3.69c3.1,0.56,5.25,1.28,6.41,2.13c1.13,0.84,1.66,1.81,1.62,2.94c-0.04,1.13-0.62,2.04-1.79,2.76
			c-1.19,0.74-2.94,1.11-5.23,1.11c-1.81,0-3.48-0.33-4.96-0.98c-1.47-0.65-2.56-1.35-3.22-2.09c-0.6-0.65-1.34-1.03-2.18-1.14
			c-0.84-0.11-1.72,0.18-2.58,0.87c-0.74,0.57-1.17,1.3-1.28,2.2c-0.11,0.9,0.17,1.71,0.83,2.42c1.35,1.35,3.27,2.48,5.69,3.36
			c2.42,0.87,5.09,1.32,7.93,1.32c2.89,0,5.34-0.46,7.28-1.36c1.95-0.9,3.45-2.13,4.46-3.66c1.01-1.53,1.53-3.27,1.53-5.17
			c0-1.66-0.4-3.14-1.19-4.4C326.57,121.26,325.27,120.14,323.48,119.19z"/>
	</g>
</g>
</svg>
